SplineFontDB: 3.2
FontName: SeriousShannsItalic
FullName: Serious Shanns Italic
FamilyName: Serious Shanns Italic
Weight: Book
Copyright: https://github.com/kaBeech/serious-shanns/blob/main/LICENSE
Version: 6.0.0
ItalicAngle: -12.7
UnderlinePosition: 0
UnderlineWidth: 0
Ascent: 800
Descent: 200
InvalidEm: 0
sfntRevision: 0x00003333
LayerCount: 2
Layer: 0 0 "Back" 1
Layer: 1 0 "Fore" 0
XUID: [1021 45 630387186 1984481]
StyleMap: 0x0040
FSType: 4
OS2Version: 3
OS2_WeightWidthSlopeOnly: 0
OS2_UseTypoMetrics: 0
CreationTime: 1532631502
ModificationTime: 315532800
PfmFamily: 81
TTFWeight: 400
TTFWidth: 5
LineGap: 0
VLineGap: 0
Panose: 0 0 0 0 0 0 0 0 0 0
OS2TypoAscent: 613
OS2TypoAOffset: 0
OS2TypoDescent: -188
OS2TypoDOffset: 0
OS2TypoLinegap: 98
OS2WinAscent: 778
OS2WinAOffset: 0
OS2WinDescent: 308
OS2WinDOffset: 0
HheadAscent: 796
HheadAOffset: 0
HheadDescent: -317
HheadDOffset: 0
OS2SubXSize: 317
OS2SubYSize: 293
OS2SubXOff: 0
OS2SubYOff: 37
OS2SupXSize: 317
OS2SupYSize: 293
OS2SupXOff: 0
OS2SupYOff: 171
OS2StrikeYSize: 0
OS2StrikeYPos: 132
OS2CapHeight: 576
OS2XHeight: 485
OS2Vendor: 'NONE'
OS2CodePages: 00000001.00000000
OS2UnicodeRanges: 00000001.00000000.00000000.00000000
MarkAttachClasses: 1
DEI: 91125
LangName: 1033 "" "" "Normal" "" "" "Version 0.2.0"
Encoding: UnicodeBmp
Compacted: 1
UnicodeInterp: none
NameList: AGL For New Fonts
DisplaySize: -48
AntiAlias: 1
FitToEm: 0
WinInfo: 0 16 14
BeginPrivate: 8
BlueValues 32 [-40 -6 497 511 708 718 765 769]
OtherBlues 11 [-298 -287]
BlueScale 9 0.0291667
BlueShift 1 2
StdHW 4 [86]
StdVW 4 [58]
StemSnapH 19 [82 85 86 89 90 94]
StemSnapV 7 [58 68]
EndPrivate
BeginChars: 65537 123

StartChar: .notdef
Encoding: 65536 -1 0
Width: 670
GlyphClass: 1
Flags: W
HStem: -268 54<134.699 432.699> 695 54<344.699 642.699>
LayerCount: 2
Fore
SplineSet
72.69921875 -268 m 1
 306.69921875 749 l 1
 705.69921875 749 l 1
 470.69921875 -268 l 1
 72.69921875 -268 l 1
134.69921875 -214 m 1
 432.69921875 -214 l 1
 642.69921875 695 l 1
 344.69921875 695 l 1
 134.69921875 -214 l 1
EndSplineSet
EndChar

StartChar: exclam
Encoding: 33 33 12
Width: 670
GlyphClass: 2
Flags: HMW
HStem: -24.001 152.997
VStem: 271.783 151
LayerCount: 2
Fore
SplineSet
558.786132812 738 m 0
 557.453125 732 546.116210938 688.166015625 524.783203125 606.499023438 c 0
 503.450195312 524.83203125 487.450195312 458.33203125 476.783203125 406.999023438 c 0
 466.116210938 356.999023438 459.116210938 327.166015625 455.783203125 317.499023438 c 0
 452.450195312 307.83203125 448.450195312 292.33203125 443.783203125 270.999023438 c 0
 439.116210938 256.33203125 431.116210938 244.83203125 419.783203125 236.499023438 c 0
 409.290039062 228.783203125 398.225585938 224.92578125 386.588867188 224.92578125 c 0
 385.657226562 224.92578125 384.721679688 224.950195312 383.783203125 225 c 0
 371.116210938 225 361.783203125 229.333007812 355.783203125 238 c 0
 352.606445312 242.587890625 351.018554688 248.297851562 351.018554688 255.127929688 c 0
 351.018554688 261.200195312 352.2734375 268.157226562 354.783203125 276.000976562 c 0
 358.116210938 286.000976562 361.616210938 295.66796875 365.283203125 305.000976562 c 0
 368.950195312 314.333984375 371.783203125 322.166992188 373.783203125 328.5 c 0
 375.783203125 334.833007812 379.616210938 349.833007812 385.283203125 373.5 c 0
 390.950195312 397.166992188 397.450195312 427.666992188 404.783203125 465 c 0
 409.450195312 491 415.1171875 518.5 421.784179688 547.5 c 0
 428.451171875 576.5 434.284179688 600.666992188 439.284179688 620 c 0
 444.284179688 639.333007812 449.951171875 661.333007812 456.284179688 686 c 0
 462.6171875 710.666992188 466.784179688 727 468.784179688 735 c 0
 473.451171875 753 481.118164062 766.666992188 491.78515625 776 c 0
 502.452148438 785.333007812 514.119140625 790 526.786132812 790 c 0
 527.739257812 790.047851562 528.672851562 790.071289062 529.587890625 790.071289062 c 0
 541.482421875 790.071289062 550.21484375 786.047851562 555.786132812 778 c 0
 559.385742188 772.799804688 561.186523438 765.919921875 561.186523438 757.360351562 c 0
 561.186523438 751.653320312 560.385742188 745.200195312 558.786132812 738 c 0
330.782226562 -24.0009765625 m 0
 327.447265625 -24.3818359375 324.2421875 -24.572265625 321.166015625 -24.572265625 c 0
 302.719726562 -24.572265625 288.926757812 -17.7177734375 279.784179688 -4.0048828125 c 0
 272.672851562 6.662109375 269.1171875 18.810546875 269.1171875 32.4404296875 c 0
 269.1171875 39.2548828125 270.005859375 46.439453125 271.783203125 53.9951171875 c 0
 276.450195312 73.9951171875 288.450195312 91.328125 307.783203125 105.995117188 c 0
 327.116210938 120.662109375 346.783203125 128.329101562 366.783203125 128.99609375 c 0
 367.76171875 129.025390625 368.727539062 129.041015625 369.682617188 129.041015625 c 0
 390.194335938 129.041015625 405.227539062 122.192382812 414.783203125 108.497070312 c 0
 421.6015625 98.724609375 425.010742188 87.3251953125 425.010742188 74.298828125 c 0
 425.010742188 68.2197265625 424.268554688 61.7861328125 422.783203125 54.998046875 c 0
 418.116210938 33.6650390625 407.44921875 15.83203125 390.782226562 1.4990234375 c 0
 374.115234375 -12.833984375 354.115234375 -21.333984375 330.782226562 -24.0009765625 c 0
EndSplineSet
EndChar

StartChar: quotedbl
Encoding: 34 34 13
Width: 670
GlyphClass: 2
Flags: HMW
VStem: 319.302 306.002
LayerCount: 2
Fore
SplineSet
476.306640625 738 m 0
 470.306640625 710.666992188 459.471679688 665.830078125 443.8046875 603.497070312 c 0
 428.137695312 541.1640625 416.3046875 498.331054688 408.3046875 474.998046875 c 0
 403.637695312 461.665039062 395.970703125 451.665039062 385.303710938 444.998046875 c 0
 375.606445312 438.9375 366.185546875 435.907226562 357.040039062 435.907226562 c 0
 356.125 435.907226562 355.212890625 435.9375 354.303710938 435.998046875 c 0
 341.63671875 436.665039062 331.469726562 440.83203125 323.802734375 448.499023438 c 0
 319.037109375 453.264648438 316.654296875 459.25390625 316.654296875 466.466796875 c 0
 316.654296875 470.857421875 317.537109375 475.701171875 319.302734375 480.999023438 c 0
 329.302734375 514.999023438 340.135742188 558.666015625 351.802734375 611.999023438 c 0
 363.469726562 665.33203125 372.63671875 709.33203125 379.303710938 743.999023438 c 0
 380.63671875 751.999023438 383.63671875 758.83203125 388.303710938 764.499023438 c 0
 392.970703125 770.166015625 398.303710938 774.333007812 404.303710938 777 c 0
 410.303710938 779.666992188 416.303710938 781.5 422.303710938 782.5 c 0
 428.303710938 783.5 434.303710938 783.666992188 440.303710938 783 c 0
 445.63671875 783 450.63671875 782.333007812 455.303710938 781 c 0
 459.970703125 779.666992188 464.137695312 777.5 467.8046875 774.5 c 0
 471.471679688 771.5 474.138671875 766.833007812 475.805664062 760.5 c 0
 477.47265625 754.166992188 477.639648438 746.666992188 476.306640625 738 c 0
625.3046875 737.99609375 m 0
 619.971679688 710.663085938 609.473632812 665.826171875 593.806640625 603.493164062 c 0
 578.139648438 541.16015625 565.97265625 498.327148438 557.305664062 474.994140625 c 0
 552.638671875 461.661132812 544.971679688 451.661132812 534.3046875 444.994140625 c 0
 524.607421875 438.93359375 515.186523438 435.903320312 506.041015625 435.903320312 c 0
 505.125976562 435.903320312 504.213867188 435.93359375 503.3046875 435.994140625 c 0
 491.3046875 436.661132812 481.3046875 440.828125 473.3046875 448.495117188 c 0
 468.504882812 453.095703125 466.104492188 458.834960938 466.104492188 465.71484375 c 0
 466.104492188 470.301757812 467.171875 475.395507812 469.3046875 480.995117188 c 0
 479.3046875 514.995117188 489.971679688 558.662109375 501.3046875 611.995117188 c 0
 512.637695312 665.328125 521.637695312 709.328125 528.3046875 743.995117188 c 0
 529.637695312 751.995117188 532.637695312 758.828125 537.3046875 764.495117188 c 0
 541.971679688 770.162109375 547.471679688 774.329101562 553.8046875 776.99609375 c 0
 560.137695312 779.663085938 566.137695312 781.49609375 571.8046875 782.49609375 c 0
 577.471679688 783.49609375 583.3046875 783.663085938 589.3046875 782.99609375 c 0
 595.3046875 782.99609375 600.471679688 782.329101562 604.8046875 780.99609375 c 0
 609.137695312 779.663085938 613.3046875 777.49609375 617.3046875 774.49609375 c 0
 621.3046875 771.49609375 624.137695312 766.829101562 625.8046875 760.49609375 c 0
 627.471679688 754.163085938 627.3046875 746.663085938 625.3046875 737.99609375 c 0
EndSplineSet
EndChar

StartChar: numbersign
Encoding: 35 35 14
Width: 670
GlyphClass: 2
Flags: HMW
HStem: 192 82<538.114 557.115 505.115 576.114> 445 84<405.108 545.113 439.113 512.108 439.113 638.114 439.113 604.114>
LayerCount: 2
Fore
SplineSet
236.115234375 42 m 0
 228.115234375 28 216.44140625 16.5 201.108398438 7.5 c 0
 190.493164062 1.26953125 180.99609375 -1.845703125 172.6171875 -1.845703125 c 0
 168.893554688 -1.845703125 165.390625 -1.23046875 162.108398438 0 c 0
 151.44140625 2.6669921875 144.94140625 11.1669921875 142.608398438 25.5 c 0
 142.11328125 28.5400390625 141.866210938 31.6474609375 141.866210938 34.822265625 c 0
 141.866210938 46.6162109375 145.280273438 59.341796875 152.109375 72.9990234375 c 0
 161.442382812 90.9990234375 179.109375 129.666015625 205.109375 188.999023438 c 1
 177.109375 188.999023438 l 2
 161.776367188 188.999023438 150.776367188 192.33203125 144.109375 198.999023438 c 0
 137.442382812 205.666015625 135.442382812 214.666015625 138.109375 225.999023438 c 0
 140.109375 237.999023438 145.776367188 247.999023438 155.109375 255.999023438 c 0
 164.442382812 263.999023438 177.109375 268.666015625 193.109375 269.999023438 c 0
 197.776367188 269.999023438 205.276367188 270.166015625 215.609375 270.499023438 c 0
 225.942382812 270.83203125 233.775390625 270.999023438 239.108398438 270.999023438 c 1
 311.108398438 443.999023438 l 1
 305.775390625 443.999023438 298.775390625 443.83203125 290.108398438 443.499023438 c 0
 281.44140625 443.166015625 275.44140625 442.999023438 272.108398438 442.999023438 c 0
 270.880859375 442.9453125 269.682617188 442.918945312 268.513671875 442.918945312 c 0
 255.0703125 442.918945312 245.435546875 446.4453125 239.609375 453.499023438 c 0
 233.276367188 461.166015625 231.443359375 470.666015625 234.110351562 481.999023438 c 0
 236.110351562 493.999023438 241.943359375 504.166015625 251.610351562 512.499023438 c 0
 261.27734375 520.83203125 274.444335938 525.33203125 291.111328125 525.999023438 c 0
 303.111328125 526.666015625 321.111328125 526.999023438 345.111328125 526.999023438 c 1
 386.444335938 627.666015625 407.444335938 679.666015625 408.111328125 682.999023438 c 0
 416.778320312 699.666015625 427.111328125 711.333007812 439.111328125 718 c 0
 447.111328125 722.4453125 454.815429688 724.666992188 462.223632812 724.666992188 c 0
 465.926757812 724.666992188 469.555664062 724.112304688 473.111328125 723.000976562 c 0
 485.778320312 720.333984375 494.4453125 713.666992188 499.112304688 703 c 0
 500.927734375 698.8515625 501.834960938 694.19921875 501.834960938 689.041992188 c 0
 501.834960938 680.939453125 499.594726562 671.591796875 495.11328125 661 c 2
 439.11328125 529 l 1
 545.11328125 529 l 1
 603.11328125 675 l 2
 611.780273438 692.333007812 622.11328125 704.333007812 634.11328125 711 c 0
 642.11328125 715.4453125 649.965820312 717.666992188 657.669921875 717.666992188 c 0
 661.521484375 717.666992188 665.3359375 717.112304688 669.11328125 716.000976562 c 0
 682.446289062 713.333984375 691.446289062 706.666992188 696.11328125 696 c 0
 697.747070312 692.266601562 698.563476562 688.125 698.563476562 683.57421875 c 0
 698.563476562 675.124023438 695.747070312 665.266601562 690.11328125 654 c 0
 676.780273438 626 659.780273438 585 639.11328125 531 c 1
 649.11328125 531 l 2
 663.780273438 531 675.280273438 526.5 683.61328125 517.5 c 0
 690.333984375 510.2421875 693.694335938 502.658203125 693.694335938 494.75 c 0
 693.694335938 492.852539062 693.5 490.935546875 693.11328125 489 c 0
 690.446289062 477 684.446289062 466.833007812 675.11328125 458.5 c 0
 665.780273438 450.166992188 653.447265625 445.666992188 638.114257812 445 c 2
 604.114257812 445 l 1
 538.114257812 274 l 1
 576.114257812 274 l 2
 590.78125 274 599.948242188 270.5 603.615234375 263.5 c 0
 607.282226562 256.5 608.115234375 247.333007812 606.115234375 236 c 0
 599.448242188 206.666992188 583.115234375 192 557.115234375 192 c 2
 505.115234375 192 l 1
 475.115234375 116 454.115234375 64.6669921875 442.115234375 38 c 0
 433.448242188 24 422.115234375 13.1669921875 408.115234375 5.5 c 0
 398.915039062 0.4619140625 390.291015625 -2.0576171875 382.243164062 -2.0576171875 c 0
 378.043945312 -2.0576171875 374.000976562 -1.37109375 370.115234375 0 c 0
 359.448242188 2.6669921875 352.615234375 10.5 349.615234375 23.5 c 0
 348.84375 26.8427734375 348.458007812 30.3076171875 348.458007812 33.892578125 c 0
 348.458007812 44.25 351.676757812 55.619140625 358.115234375 68 c 0
 370.782226562 94.6669921875 388.115234375 135.666992188 410.115234375 191 c 1
 397.448242188 191 378.615234375 190.833007812 353.615234375 190.5 c 0
 328.615234375 190.166992188 310.448242188 190 299.115234375 190 c 1
 269.115234375 118 248.115234375 68.6669921875 236.115234375 42 c 0
405.108398438 445 m 1
 334.109375 273.999023438 l 1
 359.442382812 274.666015625 395.775390625 274.999023438 443.108398438 274.999023438 c 1
 465.775390625 329.666015625 488.775390625 386.333007812 512.108398438 445 c 1
 405.108398438 445 l 1
EndSplineSet
EndChar

StartChar: dollar
Encoding: 36 36 15
Width: 670
GlyphClass: 2
Flags: HMW
HStem: -28.9932 84.9932<271.539 308.538 282.539 308.538> 642.998 79.002
VStem: 267.539 82.999 527.04 93.998
LayerCount: 2
Fore
SplineSet
350.538085938 -99 m 0
 345.87109375 -113.666992188 337.872070312 -124.993164062 326.5390625 -132.993164062 c 0
 315.206054688 -140.993164062 303.206054688 -144.993164062 290.5390625 -144.993164062 c 0
 279.206054688 -144.993164062 271.5390625 -140.493164062 267.5390625 -131.493164062 c 0
 265.939453125 -127.893554688 265.138671875 -123.6796875 265.138671875 -118.853515625 c 0
 265.138671875 -111.61328125 266.939453125 -102.993164062 270.5390625 -92.9931640625 c 0
 275.206054688 -76.9931640625 280.5390625 -55.66015625 286.5390625 -28.9931640625 c 1
 282.5390625 -28.9931640625 l 2
 260.5390625 -28.9931640625 240.5390625 -25.9931640625 222.5390625 -19.9931640625 c 0
 204.5390625 -13.9931640625 189.5390625 -5.9931640625 177.5390625 4.0068359375 c 0
 165.5390625 14.0068359375 155.872070312 24.673828125 148.5390625 36.0068359375 c 0
 141.206054688 47.33984375 135.5390625 59.6728515625 131.5390625 73.005859375 c 0
 130.256835938 79.9287109375 129.616210938 86.3583984375 129.616210938 92.2958984375 c 0
 129.616210938 101.794921875 131.256835938 110.03125 134.5390625 117.005859375 c 0
 139.872070312 128.338867188 148.205078125 136.671875 159.538085938 142.004882812 c 0
 167.538085938 145.337890625 174.038085938 147.670898438 179.038085938 149.00390625 c 0
 184.038085938 150.336914062 189.038085938 150.669921875 194.038085938 150.002929688 c 0
 199.038085938 149.3359375 203.538085938 146.668945312 207.538085938 142.001953125 c 0
 211.538085938 137.334960938 215.538085938 130.66796875 219.538085938 122.000976562 c 0
 227.538085938 101.333984375 238.038085938 85.1669921875 251.038085938 73.5 c 0
 264.038085938 61.8330078125 282.538085938 56 306.538085938 56 c 2
 308.538085938 56 l 1
 335.87109375 167.333007812 359.204101562 266.666015625 378.537109375 353.999023438 c 1
 375.204101562 353.999023438 370.037109375 354.666015625 363.037109375 355.999023438 c 0
 356.037109375 357.33203125 350.537109375 357.999023438 346.537109375 357.999023438 c 0
 325.204101562 360.666015625 306.537109375 366.999023438 290.537109375 376.999023438 c 0
 274.537109375 386.999023438 262.537109375 399.166015625 254.537109375 413.499023438 c 0
 246.537109375 427.83203125 241.204101562 442.83203125 238.537109375 458.499023438 c 0
 237.470703125 464.765625 236.936523438 471.05859375 236.936523438 477.37890625 c 0
 236.936523438 486.859375 238.13671875 496.399414062 240.537109375 505.999023438 c 0
 245.870117188 529.999023438 254.537109375 552.999023438 266.537109375 574.999023438 c 0
 278.537109375 596.999023438 293.704101562 617.499023438 312.037109375 636.499023438 c 0
 330.370117188 655.499023438 352.537109375 671.83203125 378.537109375 685.499023438 c 0
 404.537109375 699.166015625 432.537109375 708.666015625 462.537109375 713.999023438 c 1
 467.204101562 729.999023438 472.537109375 749.33203125 478.537109375 771.999023438 c 0
 487.870117188 808.666015625 504.537109375 826.999023438 528.537109375 826.999023438 c 0
 529.055664062 827.01171875 529.568359375 827.017578125 530.075195312 827.017578125 c 0
 550.827148438 827.017578125 561.204101562 816.641601562 561.204101562 795.888671875 c 0
 561.204101562 789.814453125 560.314453125 782.8515625 558.537109375 775 c 2
 545.537109375 722 l 1
 559.537109375 721.333007812 578.037109375 718 601.037109375 712 c 0
 624.037109375 706 640.870117188 700.333007812 651.537109375 695 c 0
 662.204101562 690.333007812 669.037109375 683 672.037109375 673 c 0
 673.2109375 669.086914062 673.797851562 665.071289062 673.797851562 660.954101562 c 0
 673.797851562 654.549804688 672.377929688 647.8984375 669.537109375 641 c 0
 666.870117188 633 663.037109375 626.833007812 658.037109375 622.5 c 0
 653.037109375 618.166992188 647.537109375 615.5 641.537109375 614.5 c 0
 635.537109375 613.5 629.870117188 613.333007812 624.537109375 614 c 0
 619.204101562 614.666992188 614.204101562 615.666992188 609.537109375 617 c 0
 604.204101562 618.333007812 597.704101562 621.166015625 590.037109375 625.499023438 c 0
 582.370117188 629.83203125 573.537109375 633.665039062 563.537109375 636.998046875 c 0
 553.537109375 640.331054688 541.204101562 642.331054688 526.537109375 642.998046875 c 1
 513.204101562 589.665039062 495.87109375 518.998046875 474.538085938 430.998046875 c 1
 501.87109375 426.998046875 525.538085938 419.831054688 545.538085938 409.498046875 c 0
 565.538085938 399.165039062 580.705078125 387.33203125 591.038085938 373.999023438 c 0
 601.37109375 360.666015625 609.038085938 345.333007812 614.038085938 328 c 0
 618.725585938 311.749023438 621.069335938 295.791992188 621.069335938 280.126953125 c 0
 621.069335938 266.818359375 619.493164062 247.967773438 613.538085938 225 c 0
 606.205078125 194.333007812 594.705078125 165.333007812 579.038085938 138 c 0
 563.37109375 110.666992188 544.538085938 87 522.538085938 67 c 0
 500.538085938 47 476.37109375 29.6669921875 450.038085938 15 c 0
 423.705078125 0.3330078125 396.205078125 -10.6669921875 367.538085938 -18 c 1
 358.205078125 -58 352.538085938 -85 350.538085938 -99 c 0
332.5390625 531.006835938 m 0
 331.206054688 524.911132812 330.5390625 519.034179688 330.5390625 513.374023438 c 0
 330.5390625 499.224609375 334.706054688 486.435546875 343.0390625 475.006835938 c 0
 354.706054688 459.006835938 373.206054688 447.673828125 398.5390625 441.006835938 c 1
 409.872070312 487.006835938 425.205078125 551.006835938 444.538085938 633.006835938 c 1
 415.87109375 624.33984375 391.37109375 611.33984375 371.038085938 594.006835938 c 0
 350.705078125 576.673828125 337.872070312 555.673828125 332.5390625 531.006835938 c 0
523.5390625 208.006835938 m 0
 525.91015625 219.267578125 527.095703125 229.73828125 527.095703125 239.418945312 c 0
 527.095703125 252.064453125 524.829101562 263.998046875 520.540039062 276.508789062 c 0
 516.540039062 288.17578125 508.70703125 299.008789062 497.040039062 309.008789062 c 0
 485.373046875 319.008789062 470.206054688 327.67578125 451.5390625 335.008789062 c 1
 444.206054688 305.67578125 433.5390625 261.508789062 419.5390625 202.508789062 c 0
 405.5390625 143.508789062 395.206054688 100.67578125 388.5390625 74.0087890625 c 1
 421.872070312 87.341796875 451.0390625 105.674804688 476.0390625 129.0078125 c 0
 501.0390625 152.340820312 516.872070312 178.673828125 523.5390625 208.006835938 c 0
EndSplineSet
EndChar

StartChar: percent
Encoding: 37 37 16
Width: 670
GlyphClass: 2
Flags: HMW
HStem: -28.001 76 170.999 74<501.087 514.087> 432 75<289.42 335.087> 632 73<358.753 362.753>
LayerCount: 2
Fore
SplineSet
300.419921875 432 m 0
 278.419921875 432 260.420898438 438.5 246.420898438 451.5 c 0
 232.420898438 464.5 223.587890625 480.833007812 219.920898438 500.5 c 0
 218.426757812 508.513671875 217.6796875 516.775390625 217.6796875 525.286132812 c 0
 217.6796875 537.665039062 219.259765625 550.569335938 222.419921875 564.000976562 c 0
 231.752929688 605.333984375 250.252929688 639.166992188 277.919921875 665.5 c 0
 305.586914062 691.833007812 339.086914062 705 378.419921875 705 c 0
 393.752929688 705 407.419921875 702.166992188 419.419921875 696.5 c 0
 431.419921875 690.833007812 441.419921875 682.333007812 449.419921875 671 c 0
 457.419921875 659.666992188 461.919921875 644.166992188 462.919921875 624.5 c 0
 463.040039062 622.139648438 463.099609375 619.734375 463.099609375 617.283203125 c 0
 463.099609375 599.307617188 459.873046875 578.879882812 453.419921875 556 c 0
 442.086914062 515.333007812 424.086914062 484.5 399.419921875 463.5 c 0
 374.752929688 442.5 341.752929688 432 300.419921875 432 c 0
120.420898438 19 m 0
 139.75390625 47.6669921875 184.419921875 107.833984375 254.419921875 199.500976562 c 0
 324.419921875 291.16796875 394.586914062 383.66796875 464.919921875 477.000976562 c 0
 535.252929688 570.333984375 583.419921875 637.000976562 609.419921875 677.000976562 c 0
 619.419921875 689.000976562 630.752929688 696.500976562 643.419921875 699.500976562 c 0
 647.3515625 700.431640625 651.122070312 700.897460938 654.732421875 700.897460938 c 0
 662.75390625 700.897460938 669.983398438 698.598632812 676.419921875 694.000976562 c 0
 686.419921875 688.66796875 690.919921875 680.834960938 689.919921875 670.501953125 c 0
 688.919921875 660.168945312 682.752929688 647.668945312 671.419921875 633.001953125 c 0
 638.752929688 592.334960938 559.919921875 488.66796875 434.919921875 322.000976562 c 0
 309.919921875 155.333984375 226.419921875 42.6669921875 184.419921875 -16 c 0
 167.189453125 -39.630859375 151.049804688 -51.4462890625 136 -51.4462890625 c 0
 130.669921875 -51.4462890625 125.477539062 -49.9638671875 120.420898438 -47 c 0
 109.420898438 -40.666015625 103.920898438 -32 103.920898438 -21 c 0
 103.920898438 -10 109.420898438 3.333984375 120.420898438 19 c 0
327.419921875 507 m 0
 342.752929688 507 355.75390625 512.33203125 366.420898438 522.999023438 c 0
 377.087890625 533.666015625 385.087890625 547.999023438 390.420898438 565.999023438 c 0
 393.262695312 576.736328125 394.684570312 586.126953125 394.684570312 594.171875 c 0
 394.684570312 603.109375 392.9296875 610.385742188 389.420898438 616 c 0
 382.75390625 626.666992188 371.086914062 632 354.419921875 632 c 0
 339.752929688 632 326.919921875 626.166992188 315.919921875 614.5 c 0
 304.919921875 602.833007812 296.419921875 587 290.419921875 567 c 0
 288.0859375 557.666015625 286.919921875 549.416015625 286.919921875 542.25 c 0
 286.919921875 535.083007812 288.0859375 529 290.419921875 524 c 0
 295.086914062 514 307.419921875 508.333007812 327.419921875 507 c 0
443.420898438 -28.0009765625 m 0
 421.420898438 -28.0009765625 403.419921875 -21.5009765625 389.419921875 -8.5009765625 c 0
 375.419921875 4.4990234375 366.586914062 20.83203125 362.919921875 40.4990234375 c 0
 361.42578125 48.5126953125 360.678710938 56.7744140625 360.678710938 65.28515625 c 0
 360.678710938 77.6640625 362.258789062 90.568359375 365.418945312 104 c 0
 374.751953125 145.333007812 393.251953125 179.166015625 420.918945312 205.499023438 c 0
 448.5859375 231.83203125 481.752929688 244.999023438 520.419921875 244.999023438 c 0
 535.752929688 244.999023438 549.5859375 242.33203125 561.918945312 236.999023438 c 0
 574.251953125 231.666015625 584.418945312 223.166015625 592.418945312 211.499023438 c 0
 600.418945312 199.83203125 604.918945312 184.165039062 605.918945312 164.498046875 c 0
 606.030273438 162.3125 606.0859375 160.088867188 606.0859375 157.825195312 c 0
 606.0859375 139.717773438 602.530273438 119.109375 595.418945312 95.998046875 c 0
 584.0859375 55.3310546875 566.252929688 24.3310546875 541.919921875 2.998046875 c 0
 518.32421875 -17.6884765625 486.737304688 -28.03125 447.157226562 -28.03125 c 0
 445.918945312 -28.03125 444.673828125 -28.021484375 443.420898438 -28.0009765625 c 0
470.419921875 47.9990234375 m 0
 471.258789062 47.9609375 472.08984375 47.94140625 472.916015625 47.94140625 c 0
 486.528320312 47.94140625 498.36328125 53.1279296875 508.420898438 63.4990234375 c 0
 519.087890625 74.4990234375 527.087890625 88.666015625 532.420898438 105.999023438 c 0
 535.172851562 116.522460938 536.548828125 125.768554688 536.548828125 133.736328125 c 0
 536.548828125 158.578125 523.172851562 170.999023438 496.420898438 170.999023438 c 0
 481.75390625 170.999023438 469.086914062 165.166015625 458.419921875 153.499023438 c 0
 447.752929688 141.83203125 439.419921875 126.33203125 433.419921875 106.999023438 c 0
 431.166992188 98.3095703125 430.040039062 90.513671875 430.040039062 83.6103515625 c 0
 430.040039062 76.2138671875 431.333984375 69.84375 433.919921875 64.4990234375 c 0
 438.919921875 54.166015625 451.086914062 48.666015625 470.419921875 47.9990234375 c 0
EndSplineSet
EndChar

StartChar: ampersand
Encoding: 38 38 17
Width: 670
GlyphClass: 2
Flags: HMW
HStem: -41.998 93.998<254.054 297.718> 645.001 79<478.72 479.053>
VStem: 471.389 89.9971 558.386 83.5<297 297>
LayerCount: 2
Fore
SplineSet
536.385742188 -35 m 0xe0
 529.868164062 -38.5849609375 523.469726562 -40.376953125 517.19140625 -40.376953125 c 0
 510.626953125 -40.376953125 504.192382812 -38.4169921875 497.887695312 -34.498046875 c 0
 485.5546875 -26.8310546875 476.721679688 -13.6640625 471.388671875 5.0029296875 c 0xe0
 470.721679688 8.3359375 469.221679688 18.3359375 466.888671875 35.0029296875 c 0
 464.555664062 51.669921875 462.388671875 63.669921875 460.388671875 71.0029296875 c 1
 458.388671875 68.3359375 453.388671875 62.6689453125 445.388671875 54.001953125 c 0
 437.388671875 45.3349609375 431.388671875 39.001953125 427.388671875 35.001953125 c 0
 423.388671875 31.001953125 416.888671875 25.001953125 407.888671875 17.001953125 c 0
 398.888671875 9.001953125 391.388671875 2.8349609375 385.388671875 -1.498046875 c 0
 379.388671875 -5.8310546875 371.555664062 -10.998046875 361.888671875 -16.998046875 c 0
 352.221679688 -22.998046875 343.0546875 -27.498046875 334.387695312 -30.498046875 c 0
 325.720703125 -33.498046875 315.887695312 -36.1650390625 304.887695312 -38.498046875 c 0
 293.887695312 -40.8310546875 282.720703125 -41.998046875 271.387695312 -41.998046875 c 0
 236.720703125 -41.998046875 207.053710938 -32.3310546875 182.38671875 -12.998046875 c 0
 157.719726562 6.3349609375 141.052734375 31.66796875 132.385742188 63.0009765625 c 0
 127.87890625 79.2939453125 125.625976562 96.30859375 125.625976562 114.04296875 c 0
 125.625976562 130.415039062 127.545898438 147.400390625 131.385742188 165.000976562 c 0
 160.052734375 291.000976562 228.385742188 376.66796875 336.385742188 422.000976562 c 1
 333.052734375 432.000976562 328.885742188 444.000976562 323.885742188 458.000976562 c 0
 318.885742188 472.000976562 315.385742188 481.833984375 313.385742188 487.500976562 c 0
 311.385742188 493.16796875 309.21875 500.500976562 306.885742188 509.500976562 c 0
 304.552734375 518.500976562 303.385742188 526.333984375 303.385742188 533.000976562 c 0
 303.385742188 539.66796875 303.885742188 547.834960938 304.885742188 557.501953125 c 0
 305.885742188 567.168945312 307.71875 577.668945312 310.385742188 589.001953125 c 0
 313.052734375 601.001953125 317.219726562 612.834960938 322.88671875 624.501953125 c 0
 328.553710938 636.168945312 336.38671875 648.168945312 346.38671875 660.501953125 c 0
 356.38671875 672.834960938 367.88671875 683.66796875 380.88671875 693.000976562 c 0
 393.88671875 702.333984375 409.88671875 709.833984375 428.88671875 715.500976562 c 0
 447.88671875 721.16796875 468.053710938 724.000976562 489.38671875 724.000976562 c 0
 507.38671875 724.000976562 524.38671875 721.000976562 540.38671875 715.000976562 c 0
 556.38671875 709.000976562 570.219726562 700.16796875 581.88671875 688.500976562 c 0
 593.553710938 676.833984375 601.38671875 661.500976562 605.38671875 642.500976562 c 0
 607.100585938 634.358398438 607.958007812 625.817382812 607.958007812 616.87890625 c 0
 607.958007812 604.9609375 606.434570312 592.333984375 603.38671875 579.000976562 c 0
 598.719726562 557.66796875 591.552734375 537.834960938 581.885742188 519.501953125 c 0
 572.21875 501.168945312 562.21875 485.8359375 551.885742188 473.502929688 c 0
 541.552734375 461.169921875 529.052734375 449.336914062 514.385742188 438.00390625 c 0
 499.71875 426.670898438 486.71875 417.670898438 475.385742188 411.00390625 c 0
 464.052734375 404.336914062 451.052734375 397.669921875 436.385742188 391.002929688 c 1
 443.052734375 370.3359375 455.052734375 339.668945312 472.385742188 299.001953125 c 0
 489.71875 258.334960938 500.71875 231.334960938 505.385742188 218.001953125 c 1
 511.385742188 227.334960938 518.385742188 238.16796875 526.385742188 250.500976562 c 0
 534.385742188 262.833984375 541.052734375 272.833984375 546.385742188 280.500976562 c 0
 551.71875 288.16796875 555.71875 293.66796875 558.385742188 297.000976562 c 0
 573.052734375 314.333984375 585.885742188 325.166992188 596.885742188 329.5 c 0
 601.21875 331.20703125 605.525390625 332.060546875 609.806640625 332.060546875 c 0
 616.39453125 332.060546875 622.920898438 330.040039062 629.385742188 325.999023438 c 0
 637.815429688 321.181640625 642.03125 312.694335938 642.03125 300.534179688 c 0
 642.03125 288.635742188 638.213867188 271.743164062 622.385742188 248 c 0
 617.71875 242 605.385742188 228.666992188 585.385742188 208 c 0
 565.385742188 187.333007812 548.052734375 168.333007812 533.385742188 151 c 1
 537.385742188 138.333007812 543.052734375 120.166015625 550.385742188 96.4990234375 c 0
 557.71875 72.83203125 561.71875 58.9990234375 562.385742188 54.9990234375 c 0
 564.895507812 47.4697265625 566.150390625 39.5712890625 566.150390625 31.302734375 c 0
 566.150390625 22.001953125 564.5625 12.234375 561.385742188 1.9990234375 c 0
 555.385742188 -17.333984375 547.052734375 -29.6669921875 536.385742188 -35 c 0xe0
394.38671875 572.000976562 m 0
 392.385742188 563.665039062 391.385742188 554.913085938 391.385742188 545.744140625 c 0
 391.385742188 536.579101562 392.385742188 526.999023438 394.384765625 517.000976562 c 0
 398.384765625 497.000976562 404.717773438 479.333984375 413.384765625 464.000976562 c 1
 428.051757812 468.66796875 440.71875 473.500976562 451.385742188 478.500976562 c 0
 462.052734375 483.500976562 472.552734375 490.000976562 482.885742188 498.000976562 c 0
 493.21875 506.000976562 501.71875 515.833984375 508.385742188 527.500976562 c 0
 515.052734375 539.16796875 520.052734375 553.000976562 523.385742188 569.000976562 c 0
 525.462890625 577.5390625 526.500976562 585.37890625 526.500976562 592.51953125 c 0
 526.500976562 606.006835938 522.795898438 617.000976562 515.385742188 625.500976562 c 0
 504.052734375 638.500976562 488.719726562 645.000976562 469.38671875 645.000976562 c 0
 430.719726562 645.000976562 405.719726562 620.66796875 394.38671875 572.000976562 c 0
226.384765625 174.000976562 m 0
 223.237304688 160.361328125 221.663085938 147.59765625 221.663085938 135.711914062 c 0
 221.663085938 117.389648438 225.403320312 101.15234375 232.883789062 87 c 0
 245.216796875 63.6669921875 265.383789062 52 293.383789062 52 c 0
 302.05078125 52 310.717773438 53 319.384765625 55 c 0
 328.051757812 57 335.71875 59 342.385742188 61 c 0
 349.052734375 63 356.052734375 66.3330078125 363.385742188 71 c 0
 370.71875 75.6669921875 376.551757812 79.5 380.884765625 82.5 c 0
 385.217773438 85.5 390.717773438 90.1669921875 397.384765625 96.5 c 0
 404.051757812 102.833007812 408.71875 107.333007812 411.385742188 110 c 0
 414.052734375 112.666992188 418.385742188 117.5 424.385742188 124.5 c 0
 430.385742188 131.5 434.052734375 135.666992188 435.385742188 137 c 0
 430.71875 163 426.051757812 183.333007812 421.384765625 198 c 0
 417.384765625 213.333007812 408.217773438 238.333007812 393.884765625 273 c 0
 379.551757812 307.666992188 369.384765625 333.333984375 363.384765625 350.000976562 c 1
 342.717773438 341.333984375 324.384765625 330.500976562 308.384765625 317.500976562 c 0
 292.384765625 304.500976562 279.051757812 290.16796875 268.384765625 274.500976562 c 0
 257.717773438 258.833984375 249.217773438 243.000976562 242.884765625 227.000976562 c 0
 236.551757812 211.000976562 231.051757812 193.333984375 226.384765625 174.000976562 c 0
EndSplineSet
EndChar

StartChar: quotesingle
Encoding: 39 39 18
Width: 670
GlyphClass: 2
Flags: HMW
HStem: 446.001 325.499
VStem: 396.464 152
LayerCount: 2
Fore
SplineSet
548.463867188 728 m 0
 543.130859375 701.333007812 533.465820312 660.16796875 519.465820312 604.500976562 c 0
 505.465820312 548.833984375 494.1328125 509.333984375 485.465820312 486.000976562 c 0
 480.798828125 472.000976562 473.131835938 461.66796875 462.46484375 455.000976562 c 0
 452.767578125 448.940429688 443.346679688 445.91015625 434.201171875 445.91015625 c 0
 433.286132812 445.91015625 432.374023438 445.940429688 431.46484375 446.000976562 c 0
 418.797851562 446.66796875 408.630859375 451.000976562 400.963867188 459.000976562 c 0
 396.198242188 463.973632812 393.815429688 470.106445312 393.815429688 477.397460938 c 0
 393.815429688 481.8359375 394.698242188 486.703125 396.463867188 492.000976562 c 0
 406.463867188 526.66796875 416.463867188 566.66796875 426.463867188 612.000976562 c 0
 436.463867188 657.333984375 444.796875 697.666992188 451.463867188 733 c 0
 452.796875 741 455.796875 748 460.463867188 754 c 0
 465.130859375 760 470.630859375 764.166992188 476.963867188 766.5 c 0
 483.296875 768.833007812 489.296875 770.5 494.963867188 771.5 c 0
 500.630859375 772.5 506.463867188 772.666992188 512.463867188 772 c 0
 517.796875 772 522.796875 771.333007812 527.463867188 770 c 0
 532.130859375 768.666992188 536.463867188 766.5 540.463867188 763.5 c 0
 544.463867188 760.5 547.130859375 756 548.463867188 750 c 0
 549.796875 744 549.796875 736.666992188 548.463867188 728 c 0
EndSplineSet
EndChar

StartChar: parenleft
Encoding: 40 40 19
Width: 670
GlyphClass: 2
Flags: HMW
HStem: -130.998 83.998<381.371 428.04> 733.002 81<593.04 633.706>
LayerCount: 2
Fore
SplineSet
448.040039062 -93 m 0
 445.373046875 -103.666992188 439.205078125 -112.665039062 429.538085938 -119.998046875 c 0
 419.87109375 -127.331054688 410.704101562 -130.998046875 402.037109375 -130.998046875 c 0
 360.704101562 -130.998046875 326.87109375 -114.998046875 300.538085938 -82.998046875 c 0
 274.205078125 -50.998046875 257.038085938 -6.6650390625 249.038085938 50.001953125 c 0
 245.482421875 75.1875 243.705078125 102.083984375 243.705078125 130.693359375 c 0
 243.705078125 166.455078125 246.482421875 204.890625 252.038085938 246.001953125 c 0
 258.705078125 294.668945312 274.372070312 358.001953125 299.0390625 436.001953125 c 0
 323.706054688 514.001953125 350.706054688 578.334960938 380.0390625 629.001953125 c 0
 393.372070312 651.001953125 409.0390625 672.834960938 427.0390625 694.501953125 c 0
 445.0390625 716.168945312 464.706054688 736.001953125 486.0390625 754.001953125 c 0
 507.372070312 772.001953125 530.0390625 786.501953125 554.0390625 797.501953125 c 0
 578.0390625 808.501953125 600.372070312 814.001953125 621.0390625 814.001953125 c 0
 641.521484375 814.001953125 651.762695312 805.068359375 651.762695312 787.200195312 c 0
 651.762695312 782.96875 651.1875 778.236328125 650.0390625 773.001953125 c 0
 646.706054688 759.001953125 640.373046875 748.834960938 631.040039062 742.501953125 c 0
 621.70703125 736.168945312 611.70703125 733.001953125 601.040039062 733.001953125 c 0
 585.040039062 733.001953125 568.873046875 728.001953125 552.540039062 718.001953125 c 0
 536.20703125 708.001953125 520.70703125 694.334960938 506.040039062 677.001953125 c 0
 491.373046875 659.668945312 477.873046875 640.668945312 465.540039062 620.001953125 c 0
 453.20703125 599.334960938 441.70703125 577.001953125 431.040039062 553.001953125 c 0
 415.040039062 518.334960938 398.540039062 470.66796875 381.540039062 410.000976562 c 0
 364.540039062 349.333984375 353.040039062 300.000976562 347.040039062 262.000976562 c 0
 342.130859375 228.727539062 339.676757812 196.235351562 339.676757812 164.5234375 c 0
 339.676757812 157.477539062 339.797851562 150.469726562 340.040039062 143.500976562 c 0
 341.373046875 105.16796875 345.540039062 72.16796875 352.540039062 44.5009765625 c 0
 359.540039062 16.833984375 369.20703125 -5.3330078125 381.540039062 -22 c 0
 393.873046875 -38.6669921875 407.373046875 -47 422.040039062 -47 c 0
 434.040039062 -47 442.373046875 -50.3330078125 447.040039062 -57 c 0
 449.552734375 -60.58984375 450.809570312 -65.7255859375 450.809570312 -72.408203125 c 0
 450.809570312 -78.1357421875 449.88671875 -85 448.040039062 -93 c 0
EndSplineSet
EndChar

StartChar: parenright
Encoding: 41 41 20
Width: 670
GlyphClass: 2
Flags: HMW
HStem: -131.005 84<216.675 223.676> 732.998 81.002<398.344 430.677>
VStem: 491.01 86.001
LayerCount: 2
Fore
SplineSet
527.01171875 246 m 0
 503.01171875 172 474.008789062 106.662109375 440.008789062 49.9951171875 c 0
 406.008789062 -6.671875 368.341796875 -51.0048828125 327.008789062 -83.0048828125 c 0
 285.67578125 -115.004882812 244.342773438 -131.004882812 203.009765625 -131.004882812 c 0
 194.342773438 -131.004882812 186.67578125 -127.337890625 180.008789062 -120.004882812 c 0
 173.341796875 -112.671875 171.341796875 -103.671875 174.008789062 -93.0048828125 c 0
 178.008789062 -75.671875 184.008789062 -63.671875 192.008789062 -57.0048828125 c 0
 200.008789062 -50.337890625 210.341796875 -47.0048828125 223.008789062 -47.0048828125 c 0
 237.67578125 -47.0048828125 254.842773438 -38.671875 274.509765625 -22.0048828125 c 0
 294.176757812 -5.337890625 314.009765625 16.8291015625 334.009765625 44.49609375 c 0
 354.009765625 72.1630859375 373.676757812 105.330078125 393.009765625 143.997070312 c 0
 412.342773438 182.6640625 428.009765625 221.997070312 440.009765625 261.997070312 c 0
 452.009765625 299.997070312 463.342773438 349.330078125 474.009765625 409.997070312 c 0
 484.676757812 470.6640625 490.34375 518.331054688 491.010742188 552.998046875 c 0
 491.010742188 576.998046875 489.510742188 599.331054688 486.510742188 619.998046875 c 0
 483.510742188 640.665039062 478.84375 659.665039062 472.510742188 676.998046875 c 0
 466.177734375 694.331054688 457.177734375 707.998046875 445.510742188 717.998046875 c 0
 433.84375 727.998046875 420.010742188 732.998046875 404.010742188 732.998046875 c 0
 392.677734375 732.998046875 384.010742188 736.165039062 378.010742188 742.498046875 c 0
 373.856445312 746.8828125 371.780273438 753.104492188 371.780273438 761.1640625 c 0
 371.780273438 764.745117188 372.190429688 768.690429688 373.010742188 772.998046875 c 0
 375.010742188 781.665039062 378.010742188 788.83203125 382.010742188 794.499023438 c 0
 386.010742188 800.166015625 390.34375 804.333007812 395.010742188 807 c 0
 399.677734375 809.666992188 404.010742188 811.5 408.010742188 812.5 c 0
 412.010742188 813.5 416.010742188 814 420.010742188 814 c 0
 441.34375 814 461.34375 808.5 480.010742188 797.5 c 0
 498.677734375 786.5 514.510742188 772 527.510742188 754 c 0
 540.510742188 736 551.34375 716.166992188 560.010742188 694.5 c 0
 568.677734375 672.833007812 574.344726562 651 577.01171875 629 c 0
 579.049804688 611.791992188 580.068359375 593.0078125 580.068359375 572.647460938 c 0
 580.068359375 533.057617188 576.215820312 487.508789062 568.51171875 436 c 0
 556.844726562 358 543.01171875 294.666992188 527.01171875 246 c 0
EndSplineSet
EndChar

StartChar: asterisk
Encoding: 42 42 21
Width: 670
GlyphClass: 2
Flags: HMW
HStem: 292.998 103.999 305.999 77<471.193 515.193>
VStem: 320.192 86.001 420.193 86
LayerCount: 2
Fore
SplineSet
316.1953125 139 m 0x70
 312.1953125 131 306.693359375 124.999023438 299.693359375 120.999023438 c 0
 292.693359375 116.999023438 285.526367188 114.666015625 278.193359375 113.999023438 c 0
 270.860351562 113.33203125 264.193359375 113.83203125 258.193359375 115.499023438 c 0
 252.193359375 117.166015625 247.193359375 119.333007812 243.193359375 122 c 0
 238.526367188 125.333007812 234.859375 130.166015625 232.192382812 136.499023438 c 0
 229.525390625 142.83203125 228.692382812 150.665039062 229.692382812 159.998046875 c 0
 230.692382812 169.331054688 234.859375 178.998046875 242.192382812 188.998046875 c 2
 329.192382812 297.998046875 l 1
 277.192382812 294.665039062 239.192382812 292.998046875 215.192382812 292.998046875 c 0
 200.525390625 292.998046875 190.192382812 298.331054688 184.192382812 308.998046875 c 0
 180.038085938 316.3828125 177.961914062 324.086914062 177.961914062 332.110351562 c 0
 177.961914062 335.676757812 178.372070312 339.305664062 179.192382812 342.998046875 c 0
 179.859375 348.998046875 181.692382812 355.165039062 184.692382812 361.498046875 c 0
 187.692382812 367.831054688 191.525390625 373.831054688 196.192382812 379.498046875 c 0
 200.859375 385.165039062 206.859375 389.665039062 214.192382812 392.998046875 c 0
 221.525390625 396.331054688 228.858398438 397.6640625 236.19140625 396.997070312 c 0xb0
 264.19140625 394.330078125 305.524414062 390.997070312 360.19140625 386.997070312 c 1
 344.858398438 435.6640625 331.525390625 472.997070312 320.192382812 498.997070312 c 0
 317.525390625 506.6640625 316.192382812 514.247070312 316.192382812 521.747070312 c 0
 316.192382812 529.247070312 317.525390625 536.663085938 320.192382812 543.997070312 c 0
 325.525390625 558.6640625 333.525390625 568.331054688 344.192382812 572.998046875 c 0
 350.859375 576.998046875 358.359375 579.165039062 366.692382812 579.498046875 c 0
 375.025390625 579.831054688 383.025390625 577.331054688 390.692382812 571.998046875 c 0
 398.359375 566.665039062 403.526367188 558.665039062 406.193359375 547.998046875 c 0
 409.526367188 531.998046875 418.859375 493.665039062 434.192382812 432.998046875 c 1
 469.525390625 478.331054688 496.858398438 516.331054688 516.19140625 546.998046875 c 0
 522.858398438 557.665039062 531.025390625 565.665039062 540.692382812 570.998046875 c 0
 550.359375 576.331054688 559.026367188 578.831054688 566.693359375 578.498046875 c 0
 574.360351562 578.165039062 580.52734375 575.665039062 585.194335938 570.998046875 c 0
 590.52734375 567.665039062 594.360351562 562.33203125 596.693359375 554.999023438 c 0
 599.026367188 547.666015625 599.026367188 538.999023438 596.693359375 528.999023438 c 0
 594.360351562 518.999023438 589.193359375 509.33203125 581.193359375 499.999023438 c 0
 553.860351562 468.666015625 522.860351562 429.666015625 488.193359375 382.999023438 c 1
 542.193359375 382.999023438 581.526367188 386.666015625 606.193359375 393.999023438 c 0
 610.860351562 395.484375 615.172851562 396.2265625 619.130859375 396.2265625 c 0
 627.612304688 396.2265625 634.466796875 392.817382812 639.694335938 385.999023438 c 0
 645.775390625 378.068359375 648.815429688 369.717773438 648.815429688 360.948242188 c 0
 648.815429688 358.66015625 648.608398438 356.34375 648.194335938 353.999023438 c 0
 646.861328125 347.999023438 644.861328125 341.999023438 642.194335938 335.999023438 c 0
 639.52734375 329.999023438 636.02734375 323.999023438 631.694335938 317.999023438 c 0
 627.361328125 311.999023438 621.861328125 307.33203125 615.194335938 303.999023438 c 0
 608.52734375 300.666015625 601.860351562 299.999023438 595.193359375 301.999023438 c 0
 580.193359375 304.999023438 553.192382812 306.499023438 514.19140625 306.499023438 c 0
 501.192382812 306.499023438 486.859375 306.33203125 471.193359375 305.999023438 c 1
 507.193359375 189.999023438 l 2
 508.708007812 183.029296875 509.465820312 176.438476562 509.465820312 170.2265625 c 0
 509.465820312 162.771484375 508.375 155.862304688 506.193359375 149.499023438 c 0
 502.193359375 137.83203125 495.526367188 129.33203125 486.193359375 123.999023438 c 0
 479.526367188 119.999023438 471.193359375 117.666015625 461.193359375 116.999023438 c 0
 451.193359375 116.33203125 442.026367188 118.33203125 433.693359375 122.999023438 c 0
 425.360351562 127.666015625 420.860351562 135.333007812 420.193359375 146 c 0
 418.860351562 172.666992188 411.52734375 211 398.194335938 261 c 1
 354.861328125 199.666992188 327.528320312 159 316.1953125 139 c 0x70
EndSplineSet
EndChar

StartChar: plus
Encoding: 43 43 22
Width: 670
GlyphClass: 2
Flags: HMW
HStem: 356.998 84.001<368.99 395.322>
LayerCount: 2
Fore
SplineSet
426.323242188 250 m 0
 422.990234375 234.666992188 417.322265625 223.831054688 409.322265625 217.498046875 c 0
 401.322265625 211.165039062 391.989257812 207.998046875 381.322265625 207.998046875 c 0
 359.771484375 207.998046875 348.995117188 216.701171875 348.995117188 234.108398438 c 0
 348.995117188 238.778320312 349.771484375 244.075195312 351.322265625 249.998046875 c 2
 375.322265625 356.998046875 l 1
 362.655273438 356.998046875 345.822265625 356.831054688 324.822265625 356.498046875 c 0
 303.822265625 356.165039062 289.655273438 355.998046875 282.322265625 355.998046875 c 0
 266.989257812 355.998046875 256.489257812 360.165039062 250.822265625 368.498046875 c 0
 246.96875 374.1640625 245.041992188 380.678710938 245.041992188 388.041015625 c 0
 245.041992188 391.505859375 245.46875 395.158203125 246.322265625 398.998046875 c 0
 248.322265625 411.665039062 253.989257812 422.33203125 263.322265625 430.999023438 c 0
 271.98828125 439.046875 283.529296875 443.0703125 297.943359375 443.0703125 c 0
 299.052734375 443.0703125 300.178710938 443.046875 301.322265625 442.999023438 c 0
 344.655273438 441.666015625 375.98828125 440.999023438 395.321289062 440.999023438 c 1
 403.321289062 474.33203125 410.654296875 510.33203125 417.321289062 548.999023438 c 0
 422.654296875 577.666015625 439.321289062 591.999023438 467.321289062 591.999023438 c 0
 479.98828125 592.666015625 489.655273438 589.999023438 496.322265625 583.999023438 c 0
 500.244140625 580.469726562 502.205078125 575.094726562 502.205078125 567.875 c 0
 502.205078125 562.8203125 501.244140625 556.862304688 499.322265625 549.999023438 c 0
 487.989257812 511.33203125 478.322265625 474.33203125 470.322265625 438.999023438 c 1
 572.322265625 438.999023438 l 2
 586.989257812 438.999023438 596.322265625 435.666015625 600.322265625 428.999023438 c 0
 604.322265625 422.33203125 605.655273438 413.33203125 604.322265625 401.999023438 c 0
 602.989257812 395.999023438 601.15625 390.499023438 598.823242188 385.499023438 c 0
 596.490234375 380.499023438 593.323242188 375.666015625 589.323242188 370.999023438 c 0
 585.323242188 366.33203125 580.323242188 362.83203125 574.323242188 360.499023438 c 0
 568.323242188 358.166015625 561.65625 357.333007812 554.323242188 358 c 0
 544.723632812 359.200195312 528.524414062 359.799804688 505.724609375 359.799804688 c 0
 490.524414062 359.799804688 472.390625 359.533203125 451.323242188 359 c 1
 447.323242188 341 442.490234375 319.666992188 436.823242188 295 c 0
 431.15625 270.333007812 427.65625 255.333007812 426.323242188 250 c 0
EndSplineSet
EndChar

StartChar: comma
Encoding: 44 44 23
Width: 670
GlyphClass: 2
Flags: HMW
VStem: 198.421 254.999
LayerCount: 2
Fore
SplineSet
451.919921875 96 m 0
 437.919921875 63.3330078125 412.921875 12.9990234375 376.921875 -55.0009765625 c 0
 340.921875 -123.000976562 315.588867188 -165.000976562 300.921875 -181.000976562 c 0
 287.588867188 -195.000976562 272.588867188 -205.000976562 255.921875 -211.000976562 c 0
 245.921875 -214.600585938 237.361328125 -216.401367188 230.241210938 -216.401367188 c 0
 225.494140625 -216.401367188 221.387695312 -215.600585938 217.920898438 -214.000976562 c 0
 211.920898438 -212.000976562 206.920898438 -208.000976562 202.920898438 -202.000976562 c 0
 198.920898438 -196.000976562 197.420898438 -188.66796875 198.420898438 -180.000976562 c 0
 199.420898438 -171.333984375 203.920898438 -162.333984375 211.920898438 -153.000976562 c 0
 229.25390625 -133.000976562 257.086914062 -89.0009765625 295.419921875 -21.0009765625 c 0
 333.752929688 46.9990234375 358.5859375 94.33203125 369.918945312 120.999023438 c 0
 373.918945312 130.33203125 380.0859375 137.665039062 388.418945312 142.998046875 c 0
 396.751953125 148.331054688 404.751953125 150.998046875 412.418945312 150.998046875 c 0
 420.0859375 150.998046875 427.252929688 150.331054688 433.919921875 148.998046875 c 0
 442.586914062 145.665039062 449.086914062 139.33203125 453.419921875 129.999023438 c 0
 455.362304688 125.815429688 456.333007812 121.229492188 456.333007812 116.2421875 c 0
 456.333007812 110.103515625 454.862304688 103.356445312 451.919921875 96 c 0
EndSplineSet
EndChar

StartChar: hyphen
Encoding: 45 45 24
Width: 670
GlyphClass: 2
Flags: HMW
HStem: 243 87<290.842 296.51> 251 82<491.51 521.844>
VStem: 255.51 290.001
LayerCount: 2
Fore
SplineSet
304.508789062 330 m 0xa0
 339.841796875 330 382.010742188 330.5 431.010742188 331.5 c 0
 480.010742188 332.5 507.84375 333 514.510742188 333 c 0
 529.177734375 333 538.510742188 329.5 542.510742188 322.5 c 0
 546.510742188 315.5 547.510742188 306.333007812 545.510742188 295 c 0
 538.84375 265.666992188 522.176757812 251 495.509765625 251 c 0x60
 487.509765625 251 456.009765625 249.666992188 401.009765625 247 c 0
 346.009765625 244.333007812 307.509765625 243 285.509765625 243 c 0
 264.176757812 243 253.509765625 252.172851562 253.509765625 270.51953125 c 0
 253.509765625 275.106445312 254.176757812 280.266601562 255.509765625 286 c 0
 260.842773438 315.333007812 277.17578125 330 304.508789062 330 c 0xa0
EndSplineSet
EndChar

StartChar: period
Encoding: 46 46 25
Width: 670
GlyphClass: 2
Flags: HMW
HStem: -14 153.998
VStem: 274.035 151
LayerCount: 2
Fore
SplineSet
333.034179688 -14 m 0
 329.7578125 -14.3740234375 326.606445312 -14.5615234375 323.581054688 -14.5615234375 c 0
 305.052734375 -14.5615234375 291.205078125 -7.5439453125 282.036132812 6.49609375 c 0
 274.924804688 17.384765625 271.369140625 29.5341796875 271.369140625 42.94140625 c 0
 271.369140625 49.6455078125 272.2578125 56.6630859375 274.03515625 63.99609375 c 0
 278.702148438 84.6630859375 290.702148438 102.330078125 310.03515625 116.997070312 c 0
 329.368164062 131.6640625 349.03515625 139.331054688 369.03515625 139.998046875 c 0
 370.013671875 140.02734375 370.98046875 140.04296875 371.935546875 140.04296875 c 0
 392.4609375 140.04296875 407.661132812 133.194335938 417.53515625 119.499023438 c 0
 424.350585938 110.044921875 427.758789062 98.923828125 427.758789062 86.1337890625 c 0
 427.758789062 79.533203125 426.850585938 72.48828125 425.03515625 64.9990234375 c 0
 420.368164062 43.666015625 409.701171875 25.8330078125 393.034179688 11.5 c 0
 376.3671875 -2.8330078125 356.3671875 -11.3330078125 333.034179688 -14 c 0
EndSplineSet
EndChar

StartChar: slash
Encoding: 47 47 26
Width: 670
GlyphClass: 2
Flags: HMW
VStem: 96.5905 95
LayerCount: 2
Fore
SplineSet
713.58984375 676 m 0
 689.58984375 642 625.091796875 558.498046875 520.091796875 425.498046875 c 0
 415.091796875 292.498046875 350.924804688 209.998046875 327.591796875 177.998046875 c 0
 312.924804688 157.331054688 288.7578125 122.331054688 255.090820312 72.998046875 c 0
 221.423828125 23.6650390625 200.256835938 -6.3349609375 191.58984375 -17.001953125 c 0
 177.58984375 -35.6689453125 162.08984375 -48.6689453125 145.08984375 -56.001953125 c 0
 136.58984375 -59.66796875 128.96484375 -61.501953125 122.21484375 -61.501953125 c 0
 115.46484375 -61.501953125 109.58984375 -59.66796875 104.58984375 -56.001953125 c 0
 98.58984375 -52.001953125 95.58984375 -44.0654296875 95.58984375 -32.1904296875 c 0
 95.58984375 -28.232421875 95.9228515625 -23.8359375 96.58984375 -19.0029296875 c 0
 99.2568359375 0.330078125 107.256835938 17.9970703125 120.58984375 33.9970703125 c 0
 248.58984375 193.997070312 358.922851562 336.330078125 451.58984375 460.997070312 c 0
 509.58984375 537.6640625 572.256835938 624.331054688 639.58984375 720.998046875 c 0
 646.922851562 731.665039062 655.58984375 739.83203125 665.58984375 745.499023438 c 0
 675.58984375 751.166015625 684.58984375 753.833007812 692.58984375 753.5 c 0
 700.58984375 753.166992188 708.256835938 751.333984375 715.58984375 748.000976562 c 0
 725.58984375 742.000976562 730.58984375 732.66796875 730.58984375 720.000976562 c 0
 730.58984375 707.333984375 724.922851562 692.666992188 713.58984375 676 c 0
EndSplineSet
EndChar

StartChar: zero
Encoding: 48 48 27
Width: 670
GlyphClass: 2
Flags: HMW
HStem: -24 83.999<305.937 317.269> 636.999 81.001<492.269 493.603>
LayerCount: 2
Fore
SplineSet
307.936523438 -24 m 0
 279.26953125 -24 253.770507812 -18.333984375 231.4375 -7.0009765625 c 0
 209.104492188 4.33203125 191.604492188 19.9990234375 178.9375 39.9990234375 c 0
 166.270507812 59.9990234375 158.4375 84.9990234375 155.4375 114.999023438 c 0
 154.708007812 122.295898438 154.342773438 129.770507812 154.342773438 137.422851562 c 0
 154.342773438 161.23046875 157.875 186.755859375 164.9375 213.999023438 c 0
 166.270507812 220.666015625 169.770507812 237.166015625 175.4375 263.499023438 c 0
 181.104492188 289.83203125 185.771484375 310.83203125 189.438476562 326.499023438 c 0
 193.10546875 342.166015625 198.60546875 363.833007812 205.938476562 391.5 c 0
 213.271484375 419.166992188 220.271484375 443 226.938476562 463 c 0
 233.60546875 483 241.938476562 504.5 251.938476562 527.5 c 0
 261.938476562 550.5 271.938476562 570.666992188 281.938476562 588 c 0
 307.271484375 630 340.104492188 662.166992188 380.4375 684.5 c 0
 420.770507812 706.833007812 466.603515625 718 517.936523438 718 c 0
 543.26953125 718 565.76953125 713.333007812 585.436523438 704 c 0
 605.103515625 694.666992188 621.770507812 681 635.4375 663 c 0
 649.104492188 645 658.271484375 621.666992188 662.938476562 593 c 0
 665.116210938 579.62109375 666.206054688 565.298828125 666.206054688 550.032226562 c 0
 666.206054688 532.586914062 664.783203125 513.91015625 661.939453125 494 c 0
 656.606445312 460.666992188 649.2734375 422.833984375 639.940429688 380.500976562 c 0
 630.607421875 338.16796875 619.607421875 295.500976562 606.940429688 252.500976562 c 0
 594.2734375 209.500976562 582.606445312 176.66796875 571.939453125 154.000976562 c 0
 561.272460938 131.333984375 550.60546875 111.333984375 539.938476562 94.0009765625 c 0
 529.271484375 76.66796875 518.604492188 61.66796875 507.9375 49.0009765625 c 0
 497.270507812 36.333984375 485.770507812 25.6669921875 473.4375 17 c 0
 461.104492188 8.3330078125 449.104492188 1.3330078125 437.4375 -4 c 0
 425.770507812 -9.3330078125 412.770507812 -13.5 398.4375 -16.5 c 0
 384.104492188 -19.5 370.104492188 -21.5 356.4375 -22.5 c 0
 342.770507812 -23.5 326.603515625 -24 307.936523438 -24 c 0
258.9375 229.999023438 m 0
 258.270507812 227.33203125 257.4375 223.333007812 256.4375 218 c 0
 255.4375 212.666992188 254.604492188 209 253.9375 207 c 1
 365.270507812 329 469.270507812 454.333007812 565.9375 583 c 1
 558.604492188 600.333007812 547.9375 613.666015625 533.9375 622.999023438 c 0
 519.9375 632.33203125 503.270507812 636.999023438 483.9375 636.999023438 c 0
 449.270507812 636.999023438 419.9375 626.666015625 395.9375 605.999023438 c 0
 371.9375 585.33203125 349.9375 551.999023438 329.9375 505.999023438 c 0
 321.9375 489.33203125 314.4375 469.83203125 307.4375 447.499023438 c 0
 300.4375 425.166015625 293.4375 398.166015625 286.4375 366.499023438 c 0
 279.4375 334.83203125 274.770507812 312.499023438 272.4375 299.499023438 c 0
 270.104492188 286.499023438 265.604492188 263.33203125 258.9375 229.999023438 c 0
487.9375 168 m 0
 491.9375 176 499.604492188 197.999023438 510.9375 233.999023438 c 0
 522.270507812 269.999023438 533.9375 311.166015625 545.9375 357.499023438 c 0
 557.9375 403.83203125 567.270507812 448.33203125 573.9375 490.999023438 c 1
 473.270507812 344.33203125 366.270507812 221.33203125 252.9375 121.999023438 c 1
 260.270507812 80.666015625 284.9375 59.9990234375 326.9375 59.9990234375 c 0
 343.604492188 59.9990234375 358.9375 61.4990234375 372.9375 64.4990234375 c 0
 386.9375 67.4990234375 400.770507812 72.83203125 414.4375 80.4990234375 c 0
 428.104492188 88.166015625 440.9375 99.3330078125 452.9375 114 c 0
 464.9375 128.666992188 476.604492188 146.666992188 487.9375 168 c 0
EndSplineSet
EndChar

StartChar: one
Encoding: 49 49 28
Width: 670
GlyphClass: 2
Flags: HMW
HStem: -9 85.5 -5 89<161.731 162.396>
LayerCount: 2
Fore
SplineSet
570.064453125 38 m 0x80
 567.397460938 24.6669921875 561.561523438 13.5 552.561523438 4.5 c 0
 543.561523438 -4.5 529.728515625 -9 511.061523438 -9 c 0x80
 503.061523438 -9 448.061523438 -8.3330078125 346.061523438 -7 c 0
 244.061523438 -5.6669921875 177.728515625 -5 147.061523438 -5 c 0
 133.061523438 -5 123.89453125 -1 119.561523438 7 c 0
 116.87890625 11.9521484375 115.538085938 17.7978515625 115.538085938 24.5380859375 c 0
 115.538085938 28.6865234375 116.045898438 33.173828125 117.0625 38 c 0
 119.729492188 51.3330078125 125.396484375 62.3330078125 134.063476562 71 c 0
 142.73046875 79.6669921875 154.397460938 84 169.064453125 84 c 0x40
 197.064453125 84 244.731445312 83.6669921875 312.064453125 83 c 1
 318.064453125 109.666992188 322.731445312 131 326.064453125 147 c 0
 326.731445312 152.333007812 330.564453125 170 337.564453125 200 c 0
 344.564453125 230 349.731445312 251.666992188 353.064453125 265 c 0
 356.397460938 278.333007812 362.897460938 303 372.564453125 339 c 0
 382.231445312 375 389.231445312 401.833007812 393.564453125 419.5 c 0
 397.897460938 437.166992188 405.23046875 465.166992188 415.563476562 503.5 c 0
 425.896484375 541.833007812 433.729492188 570 439.0625 588 c 1
 383.729492188 546.666992188 344.396484375 522 321.063476562 514 c 0
 316.9609375 512.359375 313.016601562 511.5390625 309.229492188 511.5390625 c 0
 300.708984375 511.5390625 292.986328125 515.692382812 286.063476562 524 c 0
 278.563476562 533 274.813476562 542 274.813476562 551 c 0
 274.813476562 554 275.23046875 557 276.063476562 560 c 0
 278.063476562 570.666992188 282.396484375 580.166992188 289.063476562 588.5 c 0
 295.73046875 596.833007812 305.73046875 605.333007812 319.063476562 614 c 0
 340.396484375 628.666992188 362.896484375 644.833984375 386.563476562 662.500976562 c 0
 410.23046875 680.16796875 427.563476562 693.000976562 438.563476562 701.000976562 c 0
 449.563476562 709.000976562 460.23046875 715.833984375 470.563476562 721.500976562 c 0
 480.896484375 727.16796875 489.729492188 730.000976562 497.0625 730.000976562 c 0
 510.395507812 730.000976562 522.5625 724.000976562 533.5625 712.000976562 c 0
 542.870117188 701.846679688 547.524414062 693.125 547.524414062 685.834960938 c 0
 547.524414062 683.2109375 547.524414062 683.2109375 503.5625 518.500976562 c 0
 478.5625 424.833984375 464.395507812 370.000976562 461.0625 354.000976562 c 0
 445.729492188 287.333984375 433.0625 231.666992188 423.0625 187 c 0
 417.0625 162.333007812 409.729492188 126.333007812 401.0625 79 c 1
 419.0625 79 437.895507812 78.6669921875 457.5625 78 c 0
 477.229492188 77.3330078125 493.396484375 76.8330078125 506.063476562 76.5 c 0
 518.73046875 76.1669921875 527.397460938 76 532.064453125 76 c 0
 549.397460938 76 560.564453125 72.5 565.564453125 65.5 c 0
 570.564453125 58.5 572.064453125 49.3330078125 570.064453125 38 c 0x80
EndSplineSet
EndChar

StartChar: two
Encoding: 50 50 29
Width: 670
GlyphClass: 2
Flags: HMW
HStem: -18.0049 84.0049 -12 89<504.729 541.23> 637.997 83.999<489.063 502.065>
LayerCount: 2
Fore
SplineSet
517.729492188 -12 m 0x60
 491.729492188 -12 459.231445312 -12.6728515625 420.231445312 -14.005859375 c 0
 381.231445312 -15.3388671875 346.564453125 -16.671875 316.231445312 -18.0048828125 c 0
 285.8984375 -19.337890625 255.231445312 -20.0048828125 224.231445312 -20.0048828125 c 0
 193.231445312 -20.0048828125 169.064453125 -18.671875 151.731445312 -16.0048828125 c 0
 138.3984375 -14.671875 130.565429688 -5.671875 128.232421875 10.9951171875 c 0
 127.706054688 14.7587890625 127.442382812 18.8955078125 127.442382812 23.4072265625 c 0
 127.442382812 38.8740234375 130.5390625 58.7373046875 136.732421875 82.9951171875 c 0
 143.399414062 111.662109375 155.899414062 141.829101562 174.232421875 173.49609375 c 0
 192.565429688 205.163085938 216.3984375 235.49609375 245.731445312 264.49609375 c 0
 275.064453125 293.49609375 306.731445312 316.99609375 340.731445312 334.99609375 c 0
 416.731445312 374.99609375 466.064453125 402.99609375 488.731445312 418.99609375 c 0
 518.731445312 440.329101562 540.064453125 462.99609375 552.731445312 486.99609375 c 0
 559.3984375 500.99609375 565.065429688 518.329101562 569.732421875 538.99609375 c 0
 572.514648438 551.053710938 573.90625 561.962890625 573.90625 571.72265625 c 0
 573.90625 590.021484375 569.014648438 604.279296875 559.232421875 614.497070312 c 0
 544.232421875 630.1640625 519.399414062 637.997070312 484.732421875 637.997070312 c 0
 460.732421875 637.997070312 435.732421875 629.997070312 409.732421875 613.997070312 c 0
 383.732421875 597.997070312 362.399414062 580.330078125 345.732421875 560.997070312 c 0
 337.732421875 552.330078125 330.899414062 545.497070312 325.232421875 540.497070312 c 0
 319.565429688 535.497070312 313.8984375 532.6640625 308.231445312 531.997070312 c 0
 302.564453125 531.330078125 297.564453125 531.663085938 293.231445312 532.99609375 c 0
 288.8984375 534.329101562 283.731445312 536.662109375 277.731445312 539.995117188 c 0
 268.3984375 545.995117188 263.731445312 554.662109375 263.731445312 565.995117188 c 0
 263.731445312 577.328125 269.731445312 591.995117188 281.731445312 609.995117188 c 0
 291.064453125 622.662109375 303.231445312 635.329101562 318.231445312 647.99609375 c 0
 333.231445312 660.663085938 350.231445312 672.663085938 369.231445312 683.99609375 c 0
 388.231445312 695.329101562 409.3984375 704.49609375 432.731445312 711.49609375 c 0
 456.064453125 718.49609375 478.397460938 721.99609375 499.73046875 721.99609375 c 0
 567.063476562 721.99609375 614.23046875 705.329101562 641.23046875 671.99609375 c 0
 658.451171875 650.736328125 667.060546875 622.697265625 667.060546875 587.877929688 c 0
 667.060546875 568.103515625 664.284179688 546.143554688 658.73046875 521.99609375 c 0
 646.063476562 466.663085938 622.73046875 422.330078125 588.73046875 388.997070312 c 0
 563.397460938 364.330078125 522.397460938 336.997070312 465.73046875 306.997070312 c 0
 451.73046875 298.997070312 427.397460938 286.6640625 392.73046875 269.997070312 c 0
 362.73046875 254.6640625 336.23046875 235.831054688 313.23046875 213.498046875 c 0
 290.23046875 191.165039062 272.063476562 168.33203125 258.73046875 144.999023438 c 0
 245.397460938 121.666015625 234.73046875 96.3330078125 226.73046875 69 c 1
 260.73046875 67 293.73046875 66 325.73046875 66 c 0xa0
 357.73046875 66 382.897460938 66.5 401.23046875 67.5 c 0
 419.563476562 68.5 440.73046875 70 464.73046875 72 c 2
 512.73046875 76 l 2
 513.397460938 76 516.397460938 76.1669921875 521.73046875 76.5 c 0
 527.063476562 76.8330078125 530.563476562 77 532.23046875 77 c 2
 541.23046875 77 l 2
 545.563476562 77 548.73046875 76.3330078125 550.73046875 75 c 0
 552.73046875 73.6669921875 554.897460938 72 557.23046875 70 c 0
 559.563476562 68 561.23046875 65.3330078125 562.23046875 62 c 0
 563.23046875 58.6669921875 563.397460938 54.6669921875 562.73046875 50 c 0
 562.063476562 42 559.896484375 33.5 556.229492188 24.5 c 0
 552.5625 15.5 547.229492188 7.1669921875 540.229492188 -0.5 c 0
 533.229492188 -8.1669921875 525.729492188 -12 517.729492188 -12 c 0x60
EndSplineSet
EndChar

StartChar: three
Encoding: 51 51 30
Width: 670
GlyphClass: 2
Flags: HMW
HStem: -23.9941 84<328.37 352.037> 318.006 100<357.37 364.037> 638.006 83.998<467.705 482.703>
VStem: 499.204 100
LayerCount: 2
Fore
SplineSet
591.704101562 199 m 0
 576.37109375 130.333007812 544.37109375 76.005859375 495.704101562 36.005859375 c 0
 447.037109375 -3.994140625 387.370117188 -23.994140625 316.703125 -23.994140625 c 0
 294.703125 -23.994140625 273.870117188 -20.494140625 254.203125 -13.494140625 c 0
 234.536132812 -6.494140625 217.703125 2.505859375 203.703125 13.505859375 c 0
 189.703125 24.505859375 178.036132812 36.505859375 168.703125 49.505859375 c 0
 159.370117188 62.505859375 153.370117188 75.3388671875 150.703125 88.005859375 c 0
 149.370117188 94.138671875 148.703125 100.059570312 148.703125 105.765625 c 0
 148.703125 114.326171875 150.203125 122.405273438 153.203125 130.005859375 c 0
 158.203125 142.672851562 166.370117188 151.672851562 177.703125 157.005859375 c 0
 187.358398438 161.603515625 195.982421875 163.90234375 203.576171875 163.90234375 c 0
 206.994140625 163.90234375 210.203125 163.436523438 213.203125 162.505859375 c 0
 222.870117188 159.505859375 231.037109375 151.005859375 237.704101562 137.005859375 c 0
 247.037109375 117.005859375 260.370117188 99.1728515625 277.703125 83.505859375 c 0
 295.036132812 67.8388671875 316.036132812 60.005859375 340.703125 60.005859375 c 0
 377.370117188 60.005859375 410.370117188 71.3388671875 439.703125 94.005859375 c 0
 469.036132812 116.672851562 487.703125 146.005859375 495.703125 182.005859375 c 0
 498.814453125 196.673828125 500.370117188 210.0078125 500.370117188 222.008789062 c 0
 500.370117188 228.0078125 499.981445312 233.672851562 499.204101562 239.005859375 c 0
 496.87109375 255.005859375 490.37109375 269.005859375 479.704101562 281.005859375 c 0
 469.037109375 293.005859375 452.537109375 302.172851562 430.204101562 308.505859375 c 0
 407.87109375 314.838867188 380.37109375 318.005859375 347.704101562 318.005859375 c 0
 335.037109375 318.005859375 325.370117188 323.505859375 318.703125 334.505859375 c 0
 314.2578125 341.83984375 312.036132812 349.692382812 312.036132812 358.0625 c 0
 312.036132812 362.248046875 312.590820312 366.561523438 313.702148438 371.005859375 c 0
 317.03515625 385.005859375 323.03515625 396.338867188 331.702148438 405.005859375 c 0
 340.369140625 413.672851562 351.036132812 418.005859375 363.703125 418.005859375 c 0
 415.703125 418.005859375 459.203125 429.172851562 494.203125 451.505859375 c 0
 529.203125 473.838867188 551.036132812 506.338867188 559.703125 549.005859375 c 0
 562.262695312 558.60546875 563.54296875 567.420898438 563.54296875 575.450195312 c 0
 563.54296875 592.513671875 557.762695312 606.032226562 546.203125 616.005859375 c 0
 529.203125 630.672851562 501.703125 638.005859375 463.703125 638.005859375 c 0
 456.370117188 638.005859375 449.203125 637.172851562 442.203125 635.505859375 c 0
 435.203125 633.838867188 429.203125 632.171875 424.203125 630.504882812 c 0
 419.203125 628.837890625 413.703125 626.004882812 407.703125 622.004882812 c 0
 401.703125 618.004882812 396.870117188 614.671875 393.203125 612.004882812 c 0
 389.536132812 609.337890625 384.703125 605.004882812 378.703125 599.004882812 c 2
 366.203125 586.504882812 l 2
 363.870117188 584.171875 359.703125 579.338867188 353.703125 572.005859375 c 0
 340.370117188 557.338867188 328.203125 548.671875 317.203125 546.004882812 c 0
 314.060546875 545.243164062 310.958007812 544.862304688 307.896484375 544.862304688 c 0
 300.243164062 544.862304688 292.845703125 547.243164062 285.703125 552.004882812 c 0
 276.9921875 556.982421875 272.637695312 565.0078125 272.637695312 576.083007812 c 0
 272.637695312 588.150390625 277.678710938 603.212890625 289.705078125 622.00390625 c 0
 299.038085938 635.336914062 309.705078125 647.50390625 321.705078125 658.50390625 c 0
 333.705078125 669.50390625 347.372070312 680.00390625 362.705078125 690.00390625 c 0
 378.038085938 700.00390625 395.705078125 707.836914062 415.705078125 713.50390625 c 0
 435.705078125 719.170898438 456.705078125 722.00390625 478.705078125 722.00390625 c 0
 550.038085938 722.00390625 600.038085938 706.00390625 628.705078125 674.00390625 c 0
 647.103515625 653.466796875 656.301757812 626.614257812 656.301757812 593.4453125 c 0
 656.301757812 574.932617188 653.436523438 554.452148438 647.705078125 532.00390625 c 0
 643.705078125 512.670898438 637.538085938 495.170898438 629.205078125 479.50390625 c 0
 620.872070312 463.836914062 611.372070312 450.50390625 600.705078125 439.50390625 c 0
 590.038085938 428.50390625 577.87109375 418.836914062 564.204101562 410.50390625 c 0
 550.537109375 402.170898438 537.204101562 395.670898438 524.204101562 391.00390625 c 0
 511.204101562 386.336914062 497.37109375 382.669921875 482.704101562 380.002929688 c 1
 506.704101562 374.002929688 526.704101562 366.669921875 542.704101562 358.002929688 c 0
 558.704101562 349.3359375 571.704101562 338.168945312 581.704101562 324.501953125 c 0
 591.704101562 310.834960938 597.537109375 293.66796875 599.204101562 273.000976562 c 0
 599.537109375 268.8671875 599.704101562 264.573242188 599.704101562 260.119140625 c 0
 599.704101562 242.305664062 597.037109375 221.932617188 591.704101562 199 c 0
EndSplineSet
EndChar

StartChar: four
Encoding: 52 52 31
Width: 670
GlyphClass: 2
Flags: HMW
HStem: -23.001 21G<442.946 455.613> 223.999 79.999
LayerCount: 2
Fore
SplineSet
503.611328125 55 m 0
 502.944335938 33.6669921875 497.112304688 15.33203125 486.112304688 -0.0009765625 c 0
 475.112304688 -15.333984375 462.612304688 -23.0009765625 448.612304688 -23.0009765625 c 0
 437.279296875 -23.0009765625 427.279296875 -18.16796875 418.612304688 -8.5009765625 c 0
 411.100585938 -0.123046875 407.344726562 8.380859375 407.344726562 17.0087890625 c 0
 407.344726562 23.4921875 413.22265625 48.0009765625 416.110351562 59.9990234375 c 0
 420.443359375 77.9990234375 426.610351562 103.83203125 434.610351562 137.499023438 c 0
 442.610351562 171.166015625 449.27734375 199.999023438 454.610351562 223.999023438 c 1
 441.357421875 224.15625 428.565429688 224.234375 416.234375 224.234375 c 0
 323.740234375 224.234375 257.19921875 219.822265625 216.610351562 210.999023438 c 0
 206.610351562 208.999023438 197.77734375 209.33203125 190.110351562 211.999023438 c 0
 182.443359375 214.666015625 177.110351562 219.333007812 174.110351562 226 c 0
 171.110351562 232.666992188 169.27734375 240.333984375 168.610351562 249.000976562 c 0
 167.943359375 257.66796875 168.776367188 266.66796875 171.109375 276.000976562 c 0
 173.442382812 285.333984375 176.942382812 294.333984375 181.609375 303.000976562 c 0
 192.276367188 321.66796875 216.109375 352.16796875 253.109375 394.500976562 c 0
 290.109375 436.833984375 337.276367188 489.166992188 394.609375 551.5 c 0
 451.942382812 613.833007812 492.942382812 659 517.609375 687 c 0
 528.942382812 699.666992188 540.442382812 709.166992188 552.109375 715.5 c 0
 563.776367188 721.833007812 573.943359375 725 582.610351562 725 c 0
 584.913085938 725.2421875 587.155273438 725.36328125 589.336914062 725.36328125 c 0
 599.155273438 725.36328125 607.74609375 722.909179688 615.110351562 718 c 0
 623.489257812 712.4140625 627.6796875 703.072265625 627.6796875 689.973632812 c 0
 627.6796875 684.974609375 626.553710938 656.916992188 611.611328125 579 c 0
 602.278320312 530.333007812 593.9453125 489.166015625 586.612304688 455.499023438 c 0
 579.279296875 421.83203125 568.279296875 370.999023438 553.612304688 302.999023438 c 1
 564.279296875 302.33203125 576.279296875 301.999023438 589.612304688 301.999023438 c 0
 604.279296875 301.999023438 613.612304688 298.499023438 617.612304688 291.499023438 c 0
 621.612304688 284.499023438 622.612304688 275.33203125 620.612304688 263.999023438 c 0
 613.9453125 234.666015625 597.278320312 219.999023438 570.611328125 219.999023438 c 0
 557.944335938 219.999023438 546.611328125 220.33203125 536.611328125 220.999023438 c 1
 514.611328125 123.666015625 503.611328125 68.3330078125 503.611328125 55 c 0
534.612304688 601.998046875 m 1
 412.612304688 472.665039062 327.278320312 372.331054688 278.611328125 300.998046875 c 1
 313.850585938 303.37890625 356.9140625 304.569335938 407.801757812 304.569335938 c 0
 428.153320312 304.569335938 449.756835938 304.37890625 472.611328125 303.998046875 c 1
 501.278320312 428.665039062 521.9453125 527.998046875 534.612304688 601.998046875 c 1
EndSplineSet
EndChar

StartChar: five
Encoding: 53 53 32
Width: 670
GlyphClass: 2
Flags: HMW
HStem: -18.001 83.998<325.707 332.04> 419.997 89.0029<450.041 512.709> 619 88.998<650.376 681.71> 630 79.998
LayerCount: 2
Fore
SplineSet
623.708984375 296 m 0xd0
 612.375976562 246.666992188 596.373046875 202.166015625 575.706054688 162.499023438 c 0
 555.0390625 122.83203125 531.206054688 89.83203125 504.206054688 63.4990234375 c 0
 477.206054688 37.166015625 447.5390625 16.9990234375 415.206054688 2.9990234375 c 0
 382.873046875 -11.0009765625 349.373046875 -18.0009765625 314.706054688 -18.0009765625 c 0
 287.373046875 -18.0009765625 262.873046875 -15.0009765625 241.206054688 -9.0009765625 c 0
 219.5390625 -3.0009765625 202.206054688 5.33203125 189.206054688 15.9990234375 c 0
 176.206054688 26.666015625 165.873046875 37.8330078125 158.206054688 49.5 c 0
 150.5390625 61.1669921875 144.706054688 73.333984375 140.706054688 86.0009765625 c 0
 139.373046875 93.201171875 138.706054688 99.8681640625 138.706054688 106.000976562 c 0
 138.706054688 115.201171875 140.206054688 123.201171875 143.206054688 130.000976562 c 0
 148.206054688 141.333984375 157.0390625 150.000976562 169.706054688 156.000976562 c 0
 177.706054688 159.333984375 183.873046875 161.666992188 188.206054688 163 c 0
 192.5390625 164.333007812 197.5390625 164.666015625 203.206054688 163.999023438 c 0
 208.873046875 163.33203125 213.540039062 160.665039062 217.20703125 155.998046875 c 0
 220.874023438 151.331054688 224.374023438 144.6640625 227.70703125 135.997070312 c 0
 245.040039062 89.9970703125 277.70703125 66.6640625 325.70703125 65.9970703125 c 0
 372.374023438 65.9970703125 413.874023438 85.830078125 450.20703125 125.497070312 c 0
 486.540039062 165.1640625 512.373046875 218.331054688 527.706054688 284.998046875 c 0
 531.920898438 303.6640625 534.028320312 320.59765625 534.028320312 335.796875 c 0
 534.028320312 354.252929688 530.920898438 370.153320312 524.706054688 383.497070312 c 0
 513.373046875 407.830078125 490.040039062 419.997070312 454.70703125 419.997070312 c 0
 445.374023438 419.997070312 436.20703125 419.497070312 427.20703125 418.497070312 c 0
 418.20703125 417.497070312 410.540039062 416.1640625 404.20703125 414.497070312 c 0
 397.874023438 412.830078125 390.70703125 410.330078125 382.70703125 406.997070312 c 0
 374.70703125 403.6640625 368.70703125 400.997070312 364.70703125 398.997070312 c 0
 360.70703125 396.997070312 355.040039062 393.330078125 347.70703125 387.997070312 c 0
 340.374023438 382.6640625 335.541015625 378.997070312 333.208007812 376.997070312 c 0
 330.875 374.997070312 325.875 370.830078125 318.208007812 364.497070312 c 0
 310.541015625 358.1640625 305.708007812 354.331054688 303.708007812 352.998046875 c 0
 297.708007812 348.331054688 290.875 344.331054688 283.208007812 340.998046875 c 0
 275.541015625 337.665039062 267.208007812 335.498046875 258.208007812 334.498046875 c 0
 249.208007812 333.498046875 241.041015625 334.998046875 233.708007812 338.998046875 c 0
 224.375 343.665039062 218.875 353.998046875 217.208007812 369.998046875 c 0
 216.76953125 374.208984375 216.549804688 378.673828125 216.549804688 383.392578125 c 0
 216.549804688 396.603515625 218.26953125 411.805664062 221.708007812 428.998046875 c 0
 226.375 452.331054688 231.708007812 474.831054688 237.708007812 496.498046875 c 0
 243.708007812 518.165039062 250.375 541.498046875 257.708007812 566.498046875 c 0
 265.041015625 591.498046875 269.708007812 608.665039062 271.708007812 617.998046875 c 1
 268.375 626.665039062 267.375 636.498046875 268.708007812 647.498046875 c 0
 270.041015625 658.498046875 273.041015625 668.665039062 277.708007812 677.998046875 c 0
 282.375 687.331054688 288.541992188 695.331054688 296.208984375 701.998046875 c 0
 303.875976562 708.665039062 312.04296875 711.998046875 320.709960938 711.998046875 c 0
 344.04296875 711.998046875 398.209960938 711.331054688 483.209960938 709.998046875 c 0xd0
 568.209960938 708.665039062 633.04296875 707.998046875 677.709960938 707.998046875 c 0
 685.709960938 707.998046875 691.376953125 704.331054688 694.709960938 696.998046875 c 0
 698.04296875 689.665039062 699.375976562 681.33203125 698.708984375 671.999023438 c 0
 698.041992188 662.666015625 696.375 653.999023438 693.708007812 645.999023438 c 0
 692.375 641.33203125 690.541992188 637.33203125 688.208984375 633.999023438 c 0
 685.875976562 630.666015625 683.04296875 628.166015625 679.709960938 626.499023438 c 0
 676.376953125 624.83203125 673.543945312 623.33203125 671.2109375 621.999023438 c 0
 668.877929688 620.666015625 665.377929688 619.833007812 660.7109375 619.5 c 0
 656.043945312 619.166992188 652.876953125 619 651.209960938 619 c 0xe0
 649.54296875 619 646.04296875 619.333007812 640.709960938 620 c 0
 635.376953125 620.666992188 632.376953125 621 631.709960938 621 c 0
 623.04296875 621 607.875976562 622 586.208984375 624 c 0
 564.541992188 626 545.041992188 627.5 527.708984375 628.5 c 0
 510.375976562 629.5 486.208984375 630 455.208984375 630 c 0
 424.208984375 630 391.708984375 629 357.708984375 627 c 1
 355.708984375 620.333007812 350.541992188 601 342.208984375 569 c 0
 333.875976562 537 327.875976562 513.833007812 324.208984375 499.5 c 0
 320.541992188 485.166992188 316.041992188 464.666992188 310.708984375 438 c 1
 332.708984375 458.666992188 360.041992188 475.666992188 392.708984375 489 c 0
 425.375976562 502.333007812 460.708984375 509 498.708984375 509 c 0
 526.708984375 509 550.375976562 503.5 569.708984375 492.5 c 0
 589.041992188 481.5 603.708984375 466.333007812 613.708984375 447 c 0
 623.708984375 427.666992188 629.541992188 405.166992188 631.208984375 379.5 c 0
 631.541992188 374.366210938 631.708984375 369.145507812 631.708984375 363.837890625 c 0
 631.708984375 342.611328125 629.041992188 319.999023438 623.708984375 296 c 0xd0
EndSplineSet
EndChar

StartChar: six
Encoding: 54 54 33
Width: 670
GlyphClass: 2
Flags: HMW
HStem: -21.9971 84.0049<340.472 344.14> 393.004 87.9961<422.14 497.14> 657 80.002
VStem: 162.806 82.9971 530.306 95
LayerCount: 2
Fore
SplineSet
613.806640625 246 m 0
 605.139648438 208.666992188 591.138671875 173.502929688 571.805664062 140.502929688 c 0
 552.47265625 107.502929688 530.305664062 79.169921875 505.305664062 55.5029296875 c 0
 480.305664062 31.8359375 452.305664062 13.0029296875 421.305664062 -0.9970703125 c 0
 390.305664062 -14.9970703125 359.47265625 -21.9970703125 328.805664062 -21.9970703125 c 0
 290.805664062 -21.9970703125 259.305664062 -14.1640625 234.305664062 1.5029296875 c 0
 209.305664062 17.169921875 190.97265625 39.8369140625 179.305664062 69.50390625 c 0
 168.26953125 97.56640625 162.751953125 130.848632812 162.751953125 169.349609375 c 0
 162.751953125 171.55078125 162.76953125 173.768554688 162.805664062 176.00390625 c 0
 163.47265625 217.336914062 170.139648438 263.669921875 182.806640625 315.002929688 c 0
 196.806640625 372.3359375 214.139648438 424.002929688 234.806640625 470.002929688 c 0
 255.473632812 516.002929688 278.306640625 554.669921875 303.306640625 586.002929688 c 0
 328.306640625 617.3359375 356.139648438 643.8359375 386.806640625 665.502929688 c 0
 417.473632812 687.169921875 449.140625 703.669921875 481.807617188 715.002929688 c 0
 514.474609375 726.3359375 549.807617188 733.668945312 587.807617188 737.001953125 c 0
 590.600585938 737.255859375 593.291015625 737.3828125 595.877929688 737.3828125 c 0
 606.87890625 737.3828125 616.021484375 735.088867188 623.307617188 730.500976562 c 0
 631.686523438 725.224609375 635.876953125 716.915039062 635.876953125 705.571289062 c 0
 635.876953125 701.477539062 635.876953125 691.969726562 618.806640625 676.5 c 0
 608.139648438 666.833007812 597.47265625 660.333007812 586.805664062 657 c 0
 579.47265625 655 568.305664062 652.333007812 553.305664062 649 c 0
 538.305664062 645.666992188 525.638671875 642.5 515.305664062 639.5 c 0
 504.97265625 636.5 492.305664062 632 477.305664062 626 c 0
 462.305664062 620 446.805664062 611.333007812 430.805664062 600 c 0
 414.805664062 588.666992188 398.47265625 575 381.805664062 559 c 0
 364.47265625 541.666992188 346.639648438 518 328.306640625 488 c 0
 309.973632812 458 296.473632812 431.333007812 287.806640625 408 c 1
 313.139648438 432.666992188 342.47265625 451 375.805664062 463 c 0
 409.138671875 475 444.805664062 481 482.805664062 481 c 0
 511.47265625 481 535.97265625 476.666992188 556.305664062 468 c 0
 576.638671875 459.333007812 592.805664062 445.666015625 604.805664062 426.999023438 c 0
 616.805664062 408.33203125 623.638671875 383.83203125 625.305664062 353.499023438 c 0
 625.55859375 348.90234375 625.684570312 344.178710938 625.684570312 339.330078125 c 0
 625.684570312 312.178710938 621.725585938 281.069335938 613.806640625 246 c 0
247.805664062 230.002929688 m 0
 246.3046875 218.997070312 245.552734375 207.899414062 245.552734375 196.708007812 c 0
 245.552734375 192.984375 245.63671875 189.250976562 245.802734375 185.506835938 c 0
 246.469726562 170.506835938 249.13671875 155.33984375 253.803710938 140.006835938 c 0
 258.470703125 124.673828125 264.637695312 111.340820312 272.3046875 100.0078125 c 0
 279.971679688 88.6748046875 290.471679688 79.5078125 303.8046875 72.5078125 c 0
 317.137695312 65.5078125 332.137695312 62.0078125 348.8046875 62.0078125 c 0
 371.471679688 62.0078125 395.138671875 70.6748046875 419.805664062 88.0078125 c 0
 444.47265625 105.340820312 465.805664062 127.173828125 483.805664062 153.506835938 c 0
 501.805664062 179.83984375 513.805664062 206.672851562 519.805664062 234.005859375 c 0
 526.8203125 263.977539062 530.327148438 289.375 530.327148438 310.196289062 c 0
 530.327148438 333.04296875 526.104492188 350.248046875 517.805664062 362.00390625 c 0
 509.805664062 373.336914062 499.47265625 381.336914062 486.805664062 386.00390625 c 0
 474.138671875 390.670898438 457.805664062 393.00390625 437.805664062 393.00390625 c 0
 406.47265625 393.00390625 375.305664062 384.336914062 344.305664062 367.00390625 c 0
 313.305664062 349.670898438 286.138671875 327.670898438 262.805664062 301.00390625 c 1
 255.47265625 272.336914062 250.47265625 248.669921875 247.805664062 230.002929688 c 0
EndSplineSet
EndChar

StartChar: seven
Encoding: 55 55 34
Width: 670
GlyphClass: 2
Flags: HMW
HStem: 622.497 90.5
LayerCount: 2
Fore
SplineSet
243.213867188 26 m 0
 231.880859375 8.6669921875 219.375976562 -4.3359375 205.708984375 -13.0029296875 c 0
 195.2578125 -19.630859375 185.489257812 -22.9443359375 176.403320312 -22.9443359375 c 0
 173.607421875 -22.9443359375 170.875976562 -22.630859375 168.208984375 -22.0029296875 c 0
 155.541992188 -18.669921875 148.041992188 -10.669921875 145.708984375 1.9970703125 c 0
 145.267578125 4.3935546875 145.046875 6.837890625 145.046875 9.3291015625 c 0
 145.046875 20.0087890625 149.100585938 31.564453125 157.208984375 43.9970703125 c 0
 204.541992188 112.6640625 254.208984375 180.997070312 306.208984375 248.997070312 c 0
 358.208984375 316.997070312 400.708984375 371.1640625 433.708984375 411.497070312 c 0
 466.708984375 451.830078125 497.708984375 490.997070312 526.708984375 528.997070312 c 0
 555.708984375 566.997070312 576.541992188 597.997070312 589.208984375 621.997070312 c 1
 560.1171875 623.087890625 529.8359375 623.633789062 498.36328125 623.633789062 c 0
 472.138671875 623.633789062 445.087890625 623.254882812 417.209960938 622.497070312 c 0
 355.876953125 620.830078125 315.209960938 617.330078125 295.209960938 611.997070312 c 0
 287.209960938 609.997070312 280.709960938 610.330078125 275.709960938 612.997070312 c 0
 270.709960938 615.6640625 267.04296875 619.6640625 264.709960938 624.997070312 c 0
 262.376953125 630.330078125 261.043945312 635.997070312 260.7109375 641.997070312 c 0
 260.377929688 647.997070312 260.544921875 653.997070312 261.211914062 659.997070312 c 0
 263.87890625 671.997070312 268.87890625 681.497070312 276.211914062 688.497070312 c 0
 283.544921875 695.497070312 295.211914062 700.6640625 311.211914062 703.997070312 c 0
 335.211914062 708.6640625 367.544921875 711.6640625 408.211914062 712.997070312 c 0
 428.545898438 713.6640625 448.045898438 713.997070312 466.711914062 713.997070312 c 0
 485.37890625 713.997070312 503.211914062 713.663085938 520.211914062 712.997070312 c 0
 554.211914062 711.6640625 587.37890625 710.331054688 619.711914062 708.998046875 c 0
 652.044921875 707.665039062 669.544921875 706.998046875 672.211914062 706.998046875 c 0
 678.87890625 706.998046875 684.87890625 705.498046875 690.211914062 702.498046875 c 0
 695.544921875 699.498046875 700.211914062 694.665039062 704.211914062 687.998046875 c 0
 708.211914062 681.331054688 709.044921875 672.6640625 706.711914062 661.997070312 c 0
 704.37890625 651.330078125 698.545898438 638.997070312 689.212890625 624.997070312 c 0
 675.879882812 604.997070312 653.212890625 574.830078125 621.212890625 534.497070312 c 0
 589.212890625 494.1640625 556.045898438 452.831054688 521.712890625 410.498046875 c 0
 487.379882812 368.165039062 444.546875 311.83203125 393.213867188 241.499023438 c 0
 341.880859375 171.166015625 291.880859375 99.3330078125 243.213867188 26 c 0
EndSplineSet
EndChar

StartChar: eight
Encoding: 56 56 35
Width: 670
GlyphClass: 2
Flags: HMW
HStem: -27.9922 85.9971<326.737 331.403> 646.004 72.001<479.403 484.403>
VStem: 524.57 90.501
LayerCount: 2
Fore
SplineSet
610.0703125 204 m 0
 605.403320312 182.666992188 597.90234375 161.338867188 587.569335938 140.005859375 c 0
 577.236328125 118.672851562 563.569335938 97.83984375 546.569335938 77.5068359375 c 0
 529.569335938 57.173828125 510.236328125 39.3408203125 488.569335938 24.0078125 c 0
 466.90234375 8.6748046875 441.069335938 -3.8251953125 411.069335938 -13.4921875 c 0
 381.069335938 -23.1591796875 348.736328125 -27.9921875 314.069335938 -27.9921875 c 0
 282.736328125 -27.9921875 255.569335938 -23.3251953125 232.569335938 -13.9921875 c 0
 209.569335938 -4.6591796875 191.90234375 7.173828125 179.569335938 21.5068359375 c 0
 167.236328125 35.83984375 157.903320312 53.0068359375 151.5703125 73.0068359375 c 0
 145.553710938 92.0078125 142.544921875 111.159179688 142.544921875 130.4609375 c 0
 142.544921875 141.575195312 143.374023438 165.397460938 150.0703125 196.005859375 c 0
 155.403320312 218.672851562 166.403320312 243.005859375 183.0703125 269.005859375 c 0
 199.737304688 295.005859375 220.737304688 319.005859375 246.0703125 341.005859375 c 0
 271.403320312 363.005859375 297.403320312 378.338867188 324.0703125 387.005859375 c 1
 294.737304688 403.672851562 274.0703125 425.505859375 262.0703125 452.505859375 c 0
 254.356445312 469.86328125 250.499023438 487.426757812 250.499023438 505.197265625 c 0
 250.499023438 515.069335938 251.689453125 525.005859375 254.0703125 535.005859375 c 0
 256.0703125 543.005859375 258.5703125 551.505859375 261.5703125 560.505859375 c 0
 264.5703125 569.505859375 269.403320312 580.172851562 276.0703125 592.505859375 c 0
 282.737304688 604.838867188 290.237304688 616.671875 298.5703125 628.004882812 c 0
 306.903320312 639.337890625 317.403320312 650.504882812 330.0703125 661.504882812 c 0
 342.737304688 672.504882812 356.5703125 682.171875 371.5703125 690.504882812 c 0
 386.5703125 698.837890625 404.403320312 705.504882812 425.0703125 710.504882812 c 0
 445.737304688 715.504882812 467.737304688 718.004882812 491.0703125 718.004882812 c 0
 515.0703125 718.004882812 536.237304688 715.504882812 554.5703125 710.504882812 c 0
 572.903320312 705.504882812 587.903320312 698.837890625 599.5703125 690.504882812 c 0
 611.237304688 682.171875 620.737304688 672.504882812 628.0703125 661.504882812 c 0
 635.403320312 650.504882812 640.736328125 639.337890625 644.069335938 628.004882812 c 0
 647.40234375 616.671875 649.40234375 604.671875 650.069335938 592.004882812 c 0
 650.3359375 586.938476562 650.469726562 582.112304688 650.469726562 577.525390625 c 0
 650.469726562 570.64453125 650.168945312 564.3046875 649.569335938 558.50390625 c 0
 648.569335938 548.836914062 647.069335938 539.669921875 645.069335938 531.002929688 c 0
 643.069335938 523.002929688 640.236328125 515.002929688 636.569335938 507.002929688 c 0
 632.90234375 499.002929688 628.90234375 492.002929688 624.569335938 486.002929688 c 0
 620.236328125 480.002929688 614.736328125 473.669921875 608.069335938 467.002929688 c 0
 601.40234375 460.3359375 595.40234375 454.668945312 590.069335938 450.001953125 c 0
 584.736328125 445.334960938 577.903320312 440.001953125 569.5703125 434.001953125 c 0
 561.237304688 428.001953125 554.5703125 423.501953125 549.5703125 420.501953125 c 0
 544.5703125 417.501953125 537.903320312 413.334960938 529.5703125 408.001953125 c 0
 521.237304688 402.668945312 515.404296875 399.001953125 512.071289062 397.001953125 c 1
 532.73828125 386.334960938 550.23828125 374.334960938 564.571289062 361.001953125 c 0
 578.904296875 347.668945312 589.571289062 334.501953125 596.571289062 321.501953125 c 0
 603.571289062 308.501953125 608.571289062 294.668945312 611.571289062 280.001953125 c 0
 614.025390625 268.001953125 615.252929688 257.006835938 615.252929688 247.014648438 c 0
 615.252929688 244.793945312 615.192382812 242.623046875 615.071289062 240.500976562 c 0
 614.404296875 228.833984375 612.737304688 216.666992188 610.0703125 204 c 0
342.069335938 538.004882812 m 0
 340.670898438 532.235351562 339.971679688 526.637695312 339.971679688 521.211914062 c 0
 339.971679688 505.94921875 345.504882812 492.046875 356.571289062 479.504882812 c 0
 371.571289062 462.504882812 399.071289062 445.337890625 439.071289062 428.004882812 c 1
 467.73828125 439.337890625 494.23828125 454.670898438 518.571289062 474.00390625 c 0
 542.904296875 493.336914062 556.737304688 511.336914062 560.0703125 528.00390625 c 0
 561.784179688 536.00390625 562.641601562 543.942382812 562.641601562 551.819335938 c 0
 562.641601562 562.323242188 561.118164062 572.717773438 558.0703125 583.00390625 c 0
 552.737304688 601.00390625 542.5703125 616.00390625 527.5703125 628.00390625 c 0
 512.5703125 640.00390625 494.737304688 646.00390625 474.0703125 646.00390625 c 0
 445.403320312 646.00390625 417.736328125 634.836914062 391.069335938 612.50390625 c 0
 364.40234375 590.170898438 348.069335938 565.337890625 342.069335938 538.004882812 c 0
338.071289062 58.0048828125 m 0
 356.071289062 58.0048828125 374.737304688 60.8330078125 394.0703125 66.5 c 0
 413.403320312 72.1669921875 431.5703125 80.333984375 448.5703125 91.0009765625 c 0
 465.5703125 101.66796875 480.5703125 115.66796875 493.5703125 133.000976562 c 0
 506.5703125 150.333984375 515.403320312 168.666992188 520.0703125 188 c 0
 521.821289062 195.001953125 524.620117188 208.245117188 524.620117188 221.444335938 c 0
 524.620117188 230.415039062 523.270507812 240.600585938 520.5703125 252.001953125 c 0
 517.5703125 264.668945312 512.403320312 276.3359375 505.0703125 287.002929688 c 0
 497.737304688 297.669921875 486.737304688 308.836914062 472.0703125 320.50390625 c 0
 457.403320312 332.170898438 439.0703125 342.670898438 417.0703125 352.00390625 c 1
 369.0703125 339.336914062 327.737304688 317.336914062 293.0703125 286.00390625 c 0
 258.403320312 254.670898438 236.736328125 221.337890625 228.069335938 186.004882812 c 0
 225.771484375 176.557617188 224.622070312 167.453125 224.622070312 158.690429688 c 0
 224.622070312 144.573242188 227.604492188 131.344726562 233.569335938 119.004882812 c 0
 243.236328125 99.0048828125 257.403320312 83.837890625 276.0703125 73.5048828125 c 0
 294.737304688 63.171875 315.404296875 58.0048828125 338.071289062 58.0048828125 c 0
EndSplineSet
EndChar

StartChar: nine
Encoding: 57 57 36
Width: 670
GlyphClass: 2
Flags: HMW
HStem: -22 79.9961<221.612 221.612> 234.998 89<347.945 419.279> 654.995 84.0049<487.279 490.943>
LayerCount: 2
Fore
SplineSet
221.612304688 -22 m 0
 218.81640625 -22.25390625 216.1171875 -22.380859375 213.514648438 -22.380859375 c 0
 202.465820312 -22.380859375 193.163085938 -20.0908203125 185.609375 -15.50390625 c 0
 177.442382812 -10.544921875 173.359375 -2.90625 173.359375 7.412109375 c 0
 173.359375 14.451171875 174.158203125 24.6025390625 190.610351562 38.9970703125 c 0
 201.27734375 48.330078125 211.944335938 54.6630859375 222.611328125 57.99609375 c 0
 229.944335938 59.99609375 241.611328125 62.6630859375 257.611328125 65.99609375 c 0
 273.611328125 69.3291015625 288.111328125 72.8291015625 301.111328125 76.49609375 c 0
 314.111328125 80.1630859375 328.944335938 84.99609375 345.611328125 90.99609375 c 0
 362.278320312 96.99609375 378.778320312 105.329101562 395.111328125 115.99609375 c 0
 411.444335938 126.663085938 427.611328125 139.330078125 443.611328125 153.997070312 c 0
 463.611328125 173.330078125 482.611328125 195.830078125 500.611328125 221.497070312 c 0
 518.611328125 247.1640625 531.944335938 270.331054688 540.611328125 290.998046875 c 1
 518.611328125 269.665039062 493.278320312 254.998046875 464.611328125 246.998046875 c 0
 435.944335938 238.998046875 401.611328125 234.998046875 361.611328125 234.998046875 c 0
 334.278320312 234.998046875 309.778320312 241.831054688 288.111328125 255.498046875 c 0
 266.444335938 269.165039062 249.611328125 287.33203125 237.611328125 309.999023438 c 0
 225.611328125 332.666015625 217.944335938 358.833007812 214.611328125 388.5 c 0
 213.5 398.387695312 212.9453125 408.33203125 212.9453125 418.331054688 c 0
 212.9453125 438.33203125 215.166992188 458.555664062 219.612304688 479.000976562 c 0
 228.279296875 516.333984375 242.112304688 551.166992188 261.112304688 583.5 c 0
 280.112304688 615.833007812 302.112304688 643.333007812 327.112304688 666 c 0
 352.112304688 688.666992188 379.9453125 706.5 410.612304688 719.5 c 0
 441.279296875 732.5 471.946289062 739 502.61328125 739 c 0
 578.61328125 739 628.11328125 708 651.11328125 646 c 0
 661.485351562 618.0390625 666.671875 584.586914062 666.671875 545.643554688 c 0
 666.671875 498.234375 658.985351562 442.686523438 643.61328125 379 c 0
 630.946289062 325.666992188 613.779296875 277.5 592.112304688 234.5 c 0
 570.4453125 191.5 546.278320312 155 519.611328125 125 c 0
 492.944335938 95 463.111328125 69.3330078125 430.111328125 48 c 0
 397.111328125 26.6669921875 363.444335938 10.5 329.111328125 -0.5 c 0
 294.778320312 -11.5 258.9453125 -18.6669921875 221.612304688 -22 c 0
313.609375 490.995117188 m 0
 307.879882812 466.268554688 305.015625 444.237304688 305.015625 424.8984375 c 0
 305.015625 401.482421875 309.215820312 382.015625 317.61328125 366.498046875 c 0
 332.946289062 338.165039062 362.279296875 323.998046875 405.612304688 323.998046875 c 0
 432.9453125 323.998046875 461.278320312 330.665039062 490.611328125 343.998046875 c 0
 519.944335938 357.331054688 544.944335938 375.6640625 565.611328125 398.997070312 c 1
 570.944335938 418.330078125 576.944335938 447.663085938 583.611328125 486.99609375 c 0
 585.111328125 497.99609375 585.861328125 509.088867188 585.861328125 520.276367188 c 0
 585.861328125 524.005859375 585.778320312 527.74609375 585.611328125 531.49609375 c 0
 584.944335938 546.49609375 582.27734375 561.663085938 577.610351562 576.99609375 c 0
 572.943359375 592.329101562 566.776367188 605.662109375 559.109375 616.995117188 c 0
 551.442382812 628.328125 540.942382812 637.495117188 527.609375 644.495117188 c 0
 514.276367188 651.495117188 499.276367188 654.995117188 482.609375 654.995117188 c 0
 459.276367188 654.995117188 435.776367188 646.995117188 412.109375 630.995117188 c 0
 388.442382812 614.995117188 367.609375 594.495117188 349.609375 569.495117188 c 0
 331.609375 544.495117188 319.609375 518.328125 313.609375 490.995117188 c 0
EndSplineSet
EndChar

StartChar: colon
Encoding: 58 58 37
Width: 670
GlyphClass: 2
Flags: HMW
VStem: 294.892 192.996
LayerCount: 2
Fore
SplineSet
487.887695312 417 m 0
 484.5546875 395 476.891601562 371.6640625 464.891601562 346.997070312 c 0
 458.891601562 333.6640625 449.891601562 323.497070312 437.891601562 316.497070312 c 0
 426.935546875 310.106445312 416.8125 306.91015625 407.5234375 306.91015625 c 0
 406.638671875 306.91015625 405.76171875 306.939453125 404.891601562 306.997070312 c 0
 371.831054688 308.80078125 355.301757812 321.442382812 355.301757812 344.924804688 c 0
 355.301757812 347.486328125 355.498046875 350.177734375 355.891601562 352.997070312 c 0
 358.55859375 370.997070312 363.225585938 393.997070312 369.892578125 421.997070312 c 0
 371.892578125 430.6640625 375.892578125 437.831054688 381.892578125 443.498046875 c 0
 387.892578125 449.165039062 394.559570312 453.33203125 401.892578125 455.999023438 c 0
 409.225585938 458.666015625 416.05859375 460.333007812 422.391601562 461 c 0
 428.724609375 461.666992188 435.224609375 462 441.891601562 462 c 0
 447.224609375 462 452.557617188 461.333007812 457.890625 460 c 0
 463.223632812 458.666992188 468.556640625 456.5 473.889648438 453.5 c 0
 479.22265625 450.5 483.055664062 445.833007812 485.388671875 439.5 c 0
 487.721679688 433.166992188 488.5546875 425.666992188 487.887695312 417 c 0
426.891601562 149.997070312 m 0
 425.55859375 126.6640625 418.892578125 102.66015625 406.892578125 77.9931640625 c 0
 400.892578125 64.66015625 390.892578125 54.8271484375 376.892578125 48.494140625 c 0
 364.2265625 42.7646484375 352.924804688 39.8994140625 342.987304688 39.8994140625 c 0
 341.940429688 39.8994140625 340.909179688 39.931640625 339.892578125 39.9951171875 c 0
 327.225585938 40.662109375 316.05859375 44.8291015625 306.391601562 52.49609375 c 0
 298.381835938 58.8486328125 294.376953125 67.375 294.376953125 78.0751953125 c 0
 294.376953125 80.2890625 294.548828125 82.595703125 294.891601562 84.99609375 c 0
 297.55859375 98.99609375 299.225585938 107.829101562 299.892578125 111.49609375 c 0
 300.559570312 115.163085938 302.392578125 121.99609375 305.392578125 131.99609375 c 0
 308.392578125 141.99609375 310.559570312 149.663085938 311.892578125 154.99609375 c 0
 313.892578125 162.99609375 317.725585938 169.99609375 323.392578125 175.99609375 c 0
 329.059570312 181.99609375 335.392578125 186.163085938 342.392578125 188.49609375 c 0
 349.392578125 190.829101562 356.059570312 192.49609375 362.392578125 193.49609375 c 0
 368.725585938 194.49609375 374.892578125 194.99609375 380.892578125 194.99609375 c 0
 388.225585938 194.99609375 395.225585938 193.829101562 401.892578125 191.49609375 c 0
 408.559570312 189.163085938 414.559570312 184.330078125 419.892578125 176.997070312 c 0
 425.225585938 169.6640625 427.55859375 160.6640625 426.891601562 149.997070312 c 0
EndSplineSet
EndChar

StartChar: semicolon
Encoding: 59 59 38
Width: 670
GlyphClass: 2
Flags: HMW
VStem: 206.4 300.994
LayerCount: 2
Fore
SplineSet
507.393554688 375 m 0
 504.060546875 353 496.065429688 329.666015625 483.3984375 304.999023438 c 0
 477.3984375 291.666015625 468.3984375 281.499023438 456.3984375 274.499023438 c 0
 445.442382812 268.108398438 435.59765625 264.912109375 426.864257812 264.912109375 c 0
 426.032226562 264.912109375 425.209960938 264.94140625 424.3984375 264.999023438 c 0
 416.3984375 265.666015625 408.565429688 267.499023438 400.8984375 270.499023438 c 0
 393.231445312 273.499023438 386.564453125 278.666015625 380.897460938 285.999023438 c 0
 375.23046875 293.33203125 373.063476562 301.999023438 374.396484375 311.999023438 c 0
 377.063476562 329.999023438 382.396484375 352.999023438 390.396484375 380.999023438 c 0
 392.396484375 388.999023438 396.229492188 395.999023438 401.896484375 401.999023438 c 0
 407.563476562 407.999023438 414.063476562 412.166015625 421.396484375 414.499023438 c 0
 428.729492188 416.83203125 435.729492188 418.499023438 442.396484375 419.499023438 c 0
 449.063476562 420.499023438 455.063476562 420.666015625 460.396484375 419.999023438 c 0
 466.396484375 419.999023438 472.063476562 419.499023438 477.396484375 418.499023438 c 0
 482.729492188 417.499023438 488.0625 415.33203125 493.395507812 411.999023438 c 0
 498.728515625 408.666015625 502.561523438 403.833007812 504.89453125 397.5 c 0
 507.227539062 391.166992188 508.060546875 383.666992188 507.393554688 375 c 0
419.3984375 73.9990234375 m 0
 412.731445312 52.666015625 372.399414062 -34.3349609375 298.399414062 -187.001953125 c 0
 291.732421875 -201.001953125 283.232421875 -211.168945312 272.899414062 -217.501953125 c 0
 263.55078125 -223.231445312 254.338867188 -226.096679688 245.262695312 -226.096679688 c 0
 244.306640625 -226.096679688 243.352539062 -226.064453125 242.399414062 -226.000976562 c 0
 229.732421875 -225.333984375 219.399414062 -221.000976562 211.399414062 -213.000976562 c 0
 206.346679688 -207.948242188 203.8203125 -201.69921875 203.8203125 -194.252929688 c 0
 203.8203125 -189.909179688 204.6796875 -185.159179688 206.399414062 -180.000976562 c 0
 211.06640625 -164.000976562 226.56640625 -125.000976562 252.899414062 -63.0009765625 c 0
 279.232421875 -1.0009765625 299.732421875 46.33203125 314.399414062 78.9990234375 c 0
 319.06640625 88.9990234375 323.899414062 96.9990234375 328.899414062 102.999023438 c 0
 333.899414062 108.999023438 338.732421875 112.999023438 343.399414062 114.999023438 c 0
 348.06640625 116.999023438 353.06640625 118.33203125 358.399414062 118.999023438 c 0
 363.732421875 119.666015625 368.399414062 119.666015625 372.399414062 118.999023438 c 0
 378.399414062 118.999023438 384.399414062 118.166015625 390.399414062 116.499023438 c 0
 396.399414062 114.83203125 402.232421875 112.499023438 407.899414062 109.499023438 c 0
 413.56640625 106.499023438 417.56640625 101.999023438 419.899414062 95.9990234375 c 0
 422.232421875 89.9990234375 422.065429688 82.666015625 419.3984375 73.9990234375 c 0
EndSplineSet
EndChar

StartChar: less
Encoding: 60 60 39
Width: 670
GlyphClass: 2
Flags: W
HStem: -12.3984 21G<509.678 515.411>
LayerCount: 2
Fore
SplineSet
565.502929688 14 m 0
 560.8359375 7.3330078125 555.00390625 1.66796875 548.00390625 -2.9990234375 c 0
 541.00390625 -7.666015625 532.00390625 -10.666015625 521.00390625 -11.9990234375 c 0
 518.8046875 -12.265625 516.557617188 -12.3984375 514.264648438 -12.3984375 c 0
 505.090820312 -12.3984375 495.170898438 -10.265625 484.50390625 -5.9990234375 c 0
 470.50390625 -0.666015625 454.170898438 11.0009765625 435.50390625 29.0009765625 c 0
 416.836914062 47.0009765625 397.169921875 68.5009765625 376.502929688 93.5009765625 c 0
 355.8359375 118.500976562 335.502929688 144.000976562 315.502929688 170.000976562 c 0
 295.502929688 196.000976562 274.3359375 222.833984375 252.002929688 250.500976562 c 0
 229.669921875 278.16796875 210.169921875 299.66796875 193.502929688 315.000976562 c 0
 186.8359375 321.000976562 183.502929688 330.000976562 183.502929688 342.000976562 c 0
 183.502929688 354.000976562 186.3359375 365.500976562 192.002929688 376.500976562 c 0
 197.669921875 387.500976562 204.836914062 395.333984375 213.50390625 400.000976562 c 0
 254.836914062 428.000976562 304.336914062 463.16796875 362.00390625 505.500976562 c 0
 419.670898438 547.833984375 472.170898438 586.166992188 519.50390625 620.5 c 0
 566.836914062 654.833007812 608.169921875 682 643.502929688 702 c 0
 654.8359375 708.666992188 664.8359375 712.166992188 673.502929688 712.5 c 0
 682.169921875 712.833007812 689.169921875 711.166015625 694.502929688 707.499023438 c 0
 699.8359375 703.83203125 704.002929688 699.33203125 707.002929688 693.999023438 c 0
 710.002929688 688.666015625 712.169921875 682.999023438 713.502929688 676.999023438 c 0
 714.095703125 674.48046875 714.391601562 671.953125 714.391601562 669.41796875 c 0
 714.391601562 660.545898438 710.762695312 651.573242188 703.50390625 642.499023438 c 0
 694.170898438 630.83203125 677.170898438 616.999023438 652.50390625 600.999023438 c 0
 611.836914062 574.999023438 549.169921875 532.33203125 464.502929688 472.999023438 c 0
 379.8359375 413.666015625 326.168945312 375.999023438 303.501953125 359.999023438 c 1
 322.834960938 339.999023438 344.001953125 315.83203125 367.001953125 287.499023438 c 0
 390.001953125 259.166015625 410.001953125 233.499023438 427.001953125 210.499023438 c 0
 444.001953125 187.499023438 462.834960938 163.999023438 483.501953125 139.999023438 c 0
 504.168945312 115.999023438 522.8359375 96.9990234375 539.502929688 82.9990234375 c 0
 556.169921875 68.9990234375 566.502929688 56.83203125 570.502929688 46.4990234375 c 0
 571.915039062 42.8525390625 572.620117188 39.142578125 572.620117188 35.3720703125 c 0
 572.620117188 28.45703125 570.248046875 21.3330078125 565.502929688 14 c 0
EndSplineSet
EndChar

StartChar: equal
Encoding: 61 61 40
Width: 670
GlyphClass: 2
Flags: HMW
HStem: 246.996 83<249.86 278.527> 442.999 85.001
LayerCount: 2
Fore
SplineSet
321.528320312 528 m 0
 356.861328125 526.666992188 393.02734375 525.99609375 430.02734375 525.99609375 c 0
 467.02734375 525.99609375 501.860351562 526.329101562 534.52734375 526.99609375 c 0
 567.194335938 527.663085938 586.861328125 527.99609375 593.528320312 527.99609375 c 0
 608.1953125 527.99609375 617.528320312 524.663085938 621.528320312 517.99609375 c 0
 625.528320312 511.329101562 626.528320312 502.329101562 624.528320312 490.99609375 c 0
 623.1953125 484.99609375 621.528320312 479.49609375 619.528320312 474.49609375 c 0
 617.528320312 469.49609375 614.528320312 464.663085938 610.528320312 459.99609375 c 0
 606.528320312 455.329101562 601.528320312 451.829101562 595.528320312 449.49609375 c 0
 589.528320312 447.163085938 582.861328125 446.330078125 575.528320312 446.997070312 c 0
 560.854492188 447.442382812 545.513671875 447.6640625 529.504882812 447.6640625 c 0
 521.512695312 447.6640625 513.353515625 447.609375 505.028320312 447.498046875 c 0
 480.028320312 447.165039062 445.6953125 446.33203125 402.028320312 444.999023438 c 0
 358.361328125 443.666015625 326.528320312 442.999023438 306.528320312 442.999023438 c 0
 291.1953125 442.999023438 280.028320312 446.999023438 273.028320312 454.999023438 c 0
 266.028320312 462.999023438 263.861328125 472.666015625 266.528320312 483.999023438 c 0
 268.528320312 496.666015625 274.361328125 507.333007812 284.028320312 516 c 0
 293.004882812 524.047851562 304.422851562 528.071289062 318.28515625 528.071289062 c 0
 319.3515625 528.071289062 320.432617188 528.047851562 321.528320312 528 c 0
278.52734375 329.99609375 m 0
 294.778320312 329.7734375 311.958984375 329.662109375 330.069335938 329.662109375 c 0
 366.19140625 329.662109375 406.009765625 330.10546875 449.526367188 330.993164062 c 0
 514.859375 332.326171875 547.859375 332.993164062 548.526367188 332.993164062 c 0
 563.193359375 332.993164062 572.526367188 329.493164062 576.526367188 322.493164062 c 0
 580.526367188 315.493164062 581.526367188 306.326171875 579.526367188 294.993164062 c 0
 578.193359375 288.993164062 576.360351562 283.493164062 574.02734375 278.493164062 c 0
 571.694335938 273.493164062 568.694335938 268.66015625 565.02734375 263.993164062 c 0
 561.360351562 259.326171875 556.52734375 255.826171875 550.52734375 253.493164062 c 0
 544.52734375 251.16015625 537.860351562 250.327148438 530.52734375 250.994140625 c 0
 515.853515625 251.439453125 500.364257812 251.661132812 484.059570312 251.661132812 c 0
 475.918945312 251.661132812 467.57421875 251.606445312 459.02734375 251.495117188 c 0
 433.360351562 251.162109375 398.360351562 250.329101562 354.02734375 248.99609375 c 0
 309.694335938 247.663085938 277.52734375 246.99609375 257.52734375 246.99609375 c 0
 242.194335938 246.99609375 231.694335938 251.163085938 226.02734375 259.49609375 c 0
 222.173828125 265.162109375 220.247070312 271.676757812 220.247070312 279.0390625 c 0
 220.247070312 282.50390625 220.673828125 286.15625 221.52734375 289.99609375 c 0
 223.52734375 301.329101562 229.52734375 310.829101562 239.52734375 318.49609375 c 0
 249.52734375 326.163085938 262.52734375 329.99609375 278.52734375 329.99609375 c 0
EndSplineSet
EndChar

StartChar: greater
Encoding: 62 62 41
Width: 670
GlyphClass: 2
Flags: W
LayerCount: 2
Fore
SplineSet
186.201171875 5 m 0
 175.534179688 -1 165.700195312 -4.333984375 156.700195312 -5.0009765625 c 0
 147.700195312 -5.66796875 140.533203125 -4.16796875 135.200195312 -0.5009765625 c 0
 129.8671875 3.166015625 125.700195312 7.666015625 122.700195312 12.9990234375 c 0
 119.700195312 18.33203125 117.533203125 23.9990234375 116.200195312 29.9990234375 c 0
 115.607421875 32.517578125 115.311523438 35.044921875 115.311523438 37.580078125 c 0
 115.311523438 46.4521484375 118.940429688 55.4248046875 126.19921875 64.4990234375 c 0
 135.532226562 76.166015625 152.865234375 89.9990234375 178.198242188 105.999023438 c 0
 218.865234375 131.999023438 281.365234375 174.666015625 365.698242188 233.999023438 c 0
 450.03125 293.33203125 503.864257812 330.999023438 527.197265625 346.999023438 c 1
 507.864257812 366.999023438 486.53125 391.166015625 463.198242188 419.499023438 c 0
 439.865234375 447.83203125 419.532226562 473.499023438 402.19921875 496.499023438 c 0
 384.866210938 519.499023438 366.033203125 542.999023438 345.700195312 566.999023438 c 0
 325.3671875 590.999023438 306.8671875 609.999023438 290.200195312 623.999023438 c 0
 273.533203125 637.999023438 263.200195312 650.166015625 259.200195312 660.499023438 c 0
 257.788085938 664.145507812 257.083007812 667.85546875 257.083007812 671.625976562 c 0
 257.083007812 678.541015625 259.455078125 685.665039062 264.200195312 692.998046875 c 0
 268.8671875 699.665039062 274.700195312 705.33203125 281.700195312 709.999023438 c 0
 288.700195312 714.666015625 297.700195312 717.666015625 308.700195312 718.999023438 c 0
 310.899414062 719.265625 313.146484375 719.3984375 315.439453125 719.3984375 c 0
 324.61328125 719.3984375 334.533203125 717.265625 345.200195312 712.999023438 c 0
 359.200195312 707.666015625 375.700195312 696.166015625 394.700195312 678.499023438 c 0
 413.700195312 660.83203125 433.3671875 639.33203125 453.700195312 613.999023438 c 0
 474.033203125 588.666015625 494.200195312 562.999023438 514.200195312 536.999023438 c 0
 534.200195312 510.999023438 555.3671875 484.33203125 577.700195312 456.999023438 c 0
 600.033203125 429.666015625 619.866210938 407.999023438 637.19921875 391.999023438 c 0
 643.19921875 385.999023438 646.032226562 376.999023438 645.69921875 364.999023438 c 0
 645.366210938 352.999023438 642.533203125 341.499023438 637.200195312 330.499023438 c 0
 631.8671875 319.499023438 624.8671875 311.666015625 616.200195312 306.999023438 c 0
 574.8671875 278.999023438 525.3671875 243.83203125 467.700195312 201.499023438 c 0
 410.033203125 159.166015625 357.533203125 120.833007812 310.200195312 86.5 c 0
 262.8671875 52.1669921875 221.534179688 25 186.201171875 5 c 0
EndSplineSet
EndChar

StartChar: question
Encoding: 63 63 42
Width: 670
GlyphClass: 2
Flags: HMW
HStem: -14.0039 153.998 637.999 84.001<476.135 488.799>
VStem: 250.469 151 326.467 95.001
LayerCount: 2
Fore
SplineSet
421.467773438 262 m 0xd0
 414.80078125 244.666992188 405.966796875 231.330078125 394.966796875 221.997070312 c 0
 387.633789062 215.775390625 379.189453125 212.6640625 369.634765625 212.6640625 c 0
 364.856445312 212.6640625 359.80078125 213.442382812 354.466796875 214.998046875 c 0
 338.466796875 219.665039062 329.133789062 228.33203125 326.466796875 240.999023438 c 0
 325.905273438 243.666015625 325.625 246.524414062 325.625 249.576171875 c 0
 325.625 261.016601562 329.572265625 275.157226562 337.466796875 291.999023438 c 0
 346.133789062 309.999023438 356.466796875 326.999023438 368.466796875 342.999023438 c 0
 380.466796875 358.999023438 392.633789062 372.666015625 404.966796875 383.999023438 c 0
 417.299804688 395.33203125 430.1328125 406.165039062 443.465820312 416.498046875 c 0
 456.798828125 426.831054688 469.465820312 436.498046875 481.465820312 445.498046875 c 0
 493.465820312 454.498046875 504.6328125 463.665039062 514.965820312 472.998046875 c 0
 525.298828125 482.331054688 534.131835938 492.498046875 541.46484375 503.498046875 c 0
 548.797851562 514.498046875 553.797851562 526.331054688 556.46484375 538.998046875 c 0
 559.247070312 551.055664062 560.638671875 561.96484375 560.638671875 571.724609375 c 0
 560.638671875 590.0234375 555.747070312 604.28125 545.96484375 614.499023438 c 0
 530.96484375 630.166015625 506.131835938 637.999023438 471.46484375 637.999023438 c 0
 462.797851562 637.999023438 453.46484375 635.83203125 443.46484375 631.499023438 c 0
 433.46484375 627.166015625 424.797851562 622.333007812 417.46484375 617 c 0
 410.131835938 611.666992188 401.631835938 604.5 391.96484375 595.5 c 0
 382.297851562 586.5 374.797851562 578.833007812 369.46484375 572.5 c 0
 364.131835938 566.166992188 357.798828125 558.666992188 350.465820312 550 c 0
 343.1328125 541.333007812 336.299804688 534.5 329.966796875 529.5 c 0
 323.633789062 524.5 317.80078125 521.833007812 312.467773438 521.5 c 0
 307.134765625 521.166992188 302.301757812 521.5 297.96875 522.5 c 0
 293.635742188 523.5 288.135742188 525.666992188 281.46875 529 c 0
 272.135742188 535 267.635742188 543.666992188 267.96875 555 c 0
 268.301757812 566.333007812 274.46875 581 286.46875 599 c 0
 296.46875 613 307.801757812 626.5 320.46875 639.5 c 0
 333.135742188 652.5 348.135742188 665.5 365.46875 678.5 c 0
 382.801757812 691.5 402.134765625 702 423.467773438 710 c 0
 444.80078125 718 465.80078125 722 486.467773438 722 c 0
 553.80078125 722 600.967773438 705.333007812 627.967773438 672 c 0
 645.188476562 650.740234375 653.797851562 622.701171875 653.797851562 587.881835938 c 0
 653.797851562 568.107421875 651.021484375 546.147460938 645.467773438 522 c 0
 641.467773438 504 634.967773438 487.666992188 625.967773438 473 c 0
 616.967773438 458.333007812 606.967773438 445.666015625 595.967773438 434.999023438 c 0
 584.967773438 424.33203125 572.967773438 414.33203125 559.967773438 404.999023438 c 0
 546.967773438 395.666015625 533.80078125 386.333007812 520.467773438 377 c 0
 507.134765625 367.666992188 494.301757812 358 481.96875 348 c 0
 469.635742188 338 458.135742188 325.5 447.46875 310.5 c 0
 436.801757812 295.5 428.134765625 279.333007812 421.467773438 262 c 0xd0
310.466796875 -14.00390625 m 0
 307.096679688 -14.3779296875 303.858398438 -14.5654296875 300.751953125 -14.5654296875 c 0
 281.731445312 -14.5654296875 267.638671875 -7.5478515625 258.469726562 6.4921875 c 0
 251.358398438 17.380859375 247.802734375 29.5302734375 247.802734375 42.9375 c 0
 247.802734375 49.6416015625 248.69140625 56.6591796875 250.46875 63.9921875 c 0
 255.135742188 84.6591796875 267.135742188 102.326171875 286.46875 116.993164062 c 0
 305.801757812 131.66015625 325.46875 139.327148438 345.46875 139.994140625 c 0
 346.447265625 140.0234375 347.4140625 140.0390625 348.369140625 140.0390625 c 0
 368.89453125 140.0390625 384.094726562 133.190429688 393.96875 119.495117188 c 0
 400.784179688 110.041015625 404.192382812 98.919921875 404.192382812 86.1298828125 c 0
 404.192382812 79.529296875 403.284179688 72.484375 401.46875 64.9951171875 c 0xe0
 396.801757812 43.662109375 386.134765625 25.8291015625 369.467773438 11.49609375 c 0
 352.80078125 -2.8369140625 333.133789062 -11.3369140625 310.466796875 -14.00390625 c 0
EndSplineSet
EndChar

StartChar: at
Encoding: 64 64 43
Width: 670
GlyphClass: 2
Flags: HMW
HStem: -129 84.9961<280.875 329.206> 102.002 77.9951<481.875 524.873> 118.002 79.9941<362.873 371.208> 612.994 90.0078<494.539 498.208>
VStem: 130.706 85.501 447.207 81 597.708 75.499
LayerCount: 2
Fore
SplineSet
528.202148438 5 m 0xde
 522.869140625 -4.3330078125 517.54296875 -12.5009765625 512.209960938 -19.5009765625 c 0
 506.876953125 -26.5009765625 500.209960938 -35.16796875 492.209960938 -45.5009765625 c 0
 484.209960938 -55.833984375 475.876953125 -64.6669921875 467.209960938 -72 c 0
 458.54296875 -79.3330078125 448.209960938 -86.8330078125 436.209960938 -94.5 c 0
 424.209960938 -102.166992188 411.54296875 -108.5 398.209960938 -113.5 c 0
 384.876953125 -118.5 369.376953125 -122.5 351.709960938 -125.5 c 0
 337.255859375 -127.954101562 322.466796875 -129.181640625 307.342773438 -129.181640625 c 0
 303.981445312 -129.181640625 300.603515625 -129.12109375 297.208984375 -129 c 0
 264.541992188 -129 235.875 -120.333007812 211.208007812 -103 c 0
 186.541015625 -85.6669921875 167.374023438 -61.5 153.70703125 -30.5 c 0
 140.040039062 0.5 132.373046875 38.1669921875 130.706054688 82.5 c 0
 130.502929688 87.9072265625 130.401367188 93.3759765625 130.401367188 98.9072265625 c 0
 130.401367188 138.725585938 135.669921875 181.756835938 146.206054688 228 c 0
 160.206054688 286.666992188 177.206054688 341.333984375 197.206054688 392.000976562 c 0
 217.206054688 442.66796875 239.373046875 486.834960938 263.706054688 524.501953125 c 0
 288.0390625 562.168945312 313.706054688 594.501953125 340.706054688 621.501953125 c 0
 367.706054688 648.501953125 395.5390625 668.834960938 424.206054688 682.501953125 c 0
 452.873046875 696.168945312 480.873046875 703.001953125 508.206054688 703.001953125 c 0
 528.873046875 703.001953125 547.373046875 701.168945312 563.706054688 697.501953125 c 0
 580.0390625 693.834960938 595.206054688 687.834960938 609.206054688 679.501953125 c 0
 623.206054688 671.168945312 634.5390625 660.001953125 643.206054688 646.001953125 c 0
 651.873046875 632.001953125 659.040039062 614.501953125 664.70703125 593.501953125 c 0
 670.374023438 572.501953125 673.20703125 548.001953125 673.20703125 520.001953125 c 0
 673.20703125 492.001953125 670.540039062 459.001953125 665.20703125 421.001953125 c 0
 659.874023438 383.001953125 651.874023438 340.334960938 641.20703125 293.001953125 c 0
 635.874023438 269.001953125 629.041015625 246.168945312 620.708007812 224.501953125 c 0
 612.375 202.834960938 602.541992188 182.501953125 591.208984375 163.501953125 c 0
 579.875976562 144.501953125 566.708984375 129.501953125 551.708984375 118.501953125 c 0
 536.708984375 107.501953125 520.875976562 102.001953125 504.208984375 102.001953125 c 0xde
 465.840820312 102.001953125 446.657226562 122.662109375 446.657226562 163.981445312 c 0
 446.657226562 170.764648438 447.173828125 178.104492188 448.208007812 186.001953125 c 1
 423.541015625 140.668945312 391.208007812 118.001953125 351.208007812 118.001953125 c 0
 314.541015625 118.001953125 288.874023438 130.334960938 274.20703125 155.001953125 c 0
 266.140625 168.568359375 262.106445312 186.068359375 262.106445312 207.5 c 0
 262.106445312 225.03515625 264.806640625 245.202148438 270.20703125 268.002929688 c 0
 276.20703125 293.3359375 284.20703125 316.668945312 294.20703125 338.001953125 c 0
 304.20703125 359.334960938 315.374023438 377.501953125 327.70703125 392.501953125 c 0
 340.040039062 407.501953125 353.540039062 420.168945312 368.20703125 430.501953125 c 0
 382.874023438 440.834960938 397.70703125 448.16796875 412.70703125 452.500976562 c 0
 425.706054688 456.255859375 438.705078125 458.133789062 451.704101562 458.133789062 c 0
 457.70703125 458 l 0
 472.70703125 457.333007812 486.874023438 453.666015625 500.20703125 446.999023438 c 0
 513.540039062 440.999023438 523.20703125 432.999023438 529.20703125 422.999023438 c 0
 535.20703125 412.999023438 535.20703125 403.999023438 529.20703125 395.999023438 c 0
 525.874023438 390.666015625 522.20703125 386.333007812 518.20703125 383 c 0
 514.20703125 379.666992188 509.874023438 377.333984375 505.20703125 376.000976562 c 0
 500.540039062 374.66796875 496.373046875 373.66796875 492.706054688 373.000976562 c 0
 489.0390625 372.333984375 484.372070312 372.500976562 478.705078125 373.500976562 c 0
 473.038085938 374.500976562 468.705078125 375.333984375 465.705078125 376.000976562 c 0
 462.705078125 376.66796875 458.538085938 378.000976562 453.205078125 380.000976562 c 0
 445.872070312 381.333984375 438.0390625 381.666992188 429.706054688 381 c 0
 421.373046875 380.333007812 413.040039062 377.5 404.70703125 372.5 c 0
 396.374023438 367.5 388.374023438 361.166992188 380.70703125 353.5 c 0
 373.040039062 345.833007812 366.040039062 335.666015625 359.70703125 322.999023438 c 0
 353.374023438 310.33203125 348.20703125 295.999023438 344.20703125 279.999023438 c 0
 342.20703125 271.33203125 340.874023438 263.165039062 340.20703125 255.498046875 c 0
 339.540039062 247.831054688 339.373046875 239.1640625 339.706054688 229.497070312 c 0
 340.0390625 219.830078125 342.5390625 212.163085938 347.206054688 206.49609375 c 0
 351.873046875 200.829101562 358.540039062 197.99609375 367.20703125 197.99609375 c 0xbe
 386.540039062 197.99609375 402.20703125 206.163085938 414.20703125 222.49609375 c 0
 426.20703125 238.829101562 437.20703125 265.99609375 447.20703125 303.99609375 c 0
 449.874023438 314.663085938 459.874023438 323.330078125 477.20703125 329.997070312 c 0
 488.014648438 334.2421875 497.48046875 336.365234375 505.606445312 336.365234375 c 0
 511.516601562 336.365234375 516.716796875 335.2421875 521.208007812 332.997070312 c 0
 528.541015625 329.6640625 530.874023438 322.997070312 528.20703125 312.997070312 c 0
 516.20703125 277.6640625 508.874023438 250.1640625 506.20703125 230.497070312 c 0
 504.874023438 220.6640625 504.20703125 212.4140625 504.20703125 205.747070312 c 0
 504.20703125 199.080078125 504.874023438 193.997070312 506.20703125 190.497070312 c 0
 508.874023438 183.497070312 514.20703125 179.997070312 522.20703125 179.997070312 c 0
 527.540039062 179.997070312 533.040039062 184.330078125 538.70703125 192.997070312 c 0
 544.374023438 201.6640625 549.541015625 212.997070312 554.208007812 226.997070312 c 0
 558.875 240.997070312 562.708007812 253.330078125 565.708007812 263.997070312 c 0
 568.708007812 274.6640625 571.208007812 284.997070312 573.208007812 294.997070312 c 0
 581.208007812 328.997070312 587.208007812 360.330078125 591.208007812 388.997070312 c 0
 595.208007812 417.6640625 597.375 442.1640625 597.708007812 462.497070312 c 0
 597.741210938 464.529296875 597.7578125 466.541015625 597.7578125 468.533203125 c 0
 597.7578125 486.474609375 596.408203125 502.794921875 593.708007812 517.49609375 c 0
 590.708007812 533.829101562 587.375 547.162109375 583.708007812 557.495117188 c 0
 580.041015625 567.828125 574.708007812 576.661132812 567.708007812 583.994140625 c 0
 560.708007812 591.327148438 554.375 596.827148438 548.708007812 600.494140625 c 0
 543.041015625 604.161132812 536.208007812 606.994140625 528.208007812 608.994140625 c 0
 520.208007812 610.994140625 514.208007812 612.161132812 510.208007812 612.494140625 c 0
 506.208007812 612.827148438 501.208007812 612.994140625 495.208007812 612.994140625 c 0
 470.541015625 612.994140625 445.374023438 604.661132812 419.70703125 587.994140625 c 0
 394.040039062 571.327148438 369.70703125 548.16015625 346.70703125 518.493164062 c 0
 323.70703125 488.826171875 302.374023438 451.993164062 282.70703125 407.993164062 c 0
 263.040039062 363.993164062 247.20703125 315.993164062 235.20703125 263.993164062 c 0
 224.540039062 218.66015625 218.20703125 177.827148438 216.20703125 141.494140625 c 0
 215.661132812 131.5859375 215.388671875 122.198242188 215.388671875 113.330078125 c 0
 215.388671875 89.6826171875 217.328125 69.7373046875 221.20703125 53.4951171875 c 0
 226.540039062 31.162109375 234.373046875 12.3291015625 244.706054688 -3.00390625 c 0
 255.0390625 -18.3369140625 266.5390625 -29.00390625 279.206054688 -35.00390625 c 0
 291.873046875 -41.00390625 305.873046875 -44.00390625 321.206054688 -44.00390625 c 0
 337.206054688 -44.00390625 352.373046875 -42.3369140625 366.706054688 -39.00390625 c 0
 381.0390625 -35.6708984375 393.206054688 -31.6708984375 403.206054688 -27.00390625 c 0
 413.206054688 -22.3369140625 423.0390625 -16.00390625 432.706054688 -8.00390625 c 0
 442.373046875 -0.00390625 450.373046875 7.3291015625 456.706054688 13.99609375 c 0
 463.0390625 20.6630859375 470.206054688 29.330078125 478.206054688 39.9970703125 c 0
 481.5390625 44.6640625 484.372070312 48.3310546875 486.705078125 50.998046875 c 0
 489.038085938 53.6650390625 491.87109375 56.83203125 495.204101562 60.4990234375 c 0
 498.537109375 64.166015625 501.370117188 66.8330078125 503.703125 68.5 c 0
 506.036132812 70.1669921875 508.703125 71.6669921875 511.703125 73 c 0
 514.703125 74.3330078125 517.703125 75 520.703125 75 c 0
 523.703125 75 526.536132812 74.3330078125 529.203125 73 c 0
 533.870117188 71 537.370117188 68.5 539.703125 65.5 c 0
 542.036132812 62.5 543.703125 58.5 544.703125 53.5 c 0
 545.703125 48.5 544.870117188 41.8330078125 542.203125 33.5 c 0
 539.536132812 25.1669921875 534.869140625 15.6669921875 528.202148438 5 c 0xde
EndSplineSet
EndChar

StartChar: A
Encoding: 65 65 44
Width: 670
GlyphClass: 2
Flags: HMW
HStem: 251 81.0059
VStem: 500.088 91.501
LayerCount: 2
Fore
SplineSet
181.087890625 41 m 2
 170.420898438 20.3330078125 158.420898438 6.671875 145.087890625 0.0048828125 c 0
 137.680664062 -3.69921875 130.787109375 -5.55078125 124.408203125 -5.55078125 c 0
 119.305664062 -5.55078125 114.532226562 -4.3662109375 110.087890625 -1.99609375 c 0
 99.89453125 3.6279296875 94.796875 13.330078125 94.796875 27.109375 c 0
 94.796875 39.4638671875 98.89453125 55.0947265625 107.087890625 74.00390625 c 0
 115.754882812 95.3369140625 145.754882812 147.336914062 197.087890625 230.00390625 c 1
 189.829101562 236.225585938 186.200195312 243.456054688 186.200195312 251.694335938 c 0
 186.200195312 254.048828125 186.49609375 256.485351562 187.088867188 259.00390625 c 0
 188.421875 268.336914062 194.421875 277.169921875 205.088867188 285.502929688 c 0
 215.755859375 293.8359375 228.088867188 300.3359375 242.088867188 305.002929688 c 1
 362.088867188 495.669921875 450.088867188 623.002929688 506.088867188 687.002929688 c 0
 518.088867188 700.3359375 528.421875 710.002929688 537.088867188 716.002929688 c 0
 545.755859375 722.002929688 554.422851562 725.002929688 563.08984375 725.002929688 c 0
 565.271484375 725.245117188 567.392578125 725.366210938 569.453125 725.366210938 c 0
 578.725585938 725.366210938 586.771484375 722.912109375 593.58984375 718.002929688 c 0
 600.7734375 712.830078125 604.365234375 704.4375 604.365234375 692.823242188 c 0
 604.365234375 690.965820312 604.2734375 689.025390625 604.08984375 687.002929688 c 0
 597.422851562 604.3359375 592.08984375 487.168945312 588.08984375 335.501953125 c 0
 586.58984375 278.625 585.83984375 230.819335938 585.83984375 192.083984375 c 0
 585.83984375 127.528320312 587.922851562 88.16796875 592.08984375 74.0009765625 c 0
 593.676757812 67.9697265625 594.470703125 62.203125 594.470703125 56.701171875 c 0
 594.470703125 50.6474609375 593.509765625 44.9140625 591.588867188 39.5009765625 c 0
 587.921875 29.16796875 582.754882812 20.5009765625 576.087890625 13.5009765625 c 0
 569.420898438 6.5009765625 562.087890625 1.333984375 554.087890625 -1.9990234375 c 0
 548.296875 -4.4365234375 542.750976562 -5.65625 537.447265625 -5.65625 c 0
 531.150390625 -5.65625 525.197265625 -3.9365234375 519.587890625 -0.4990234375 c 0
 509.254882812 5.833984375 502.754882812 19.6669921875 500.087890625 41 c 0
 499.021484375 49.2666015625 498.487304688 65.4267578125 498.487304688 89.4794921875 c 0
 498.487304688 125.559570312 499.6875 179.399414062 502.087890625 251 c 1
 422.087890625 247.666992188 349.754882812 240.666992188 285.087890625 230 c 1
 181.087890625 41 l 2
517.087890625 602.005859375 m 1
 479.754882812 557.338867188 419.087890625 462.672851562 335.087890625 318.005859375 c 1
 399.754882812 326.005859375 456.754882812 330.672851562 506.087890625 332.005859375 c 1
 517.087890625 602.005859375 l 1
EndSplineSet
EndChar

StartChar: B
Encoding: 66 66 45
Width: 670
GlyphClass: 2
Flags: HMW
HStem: -22.9961 21G<163.544 169.877> 297.005 72<352.211 356.21> 630.005 78.998<436.208 450.544>
LayerCount: 2
Fore
SplineSet
282.208007812 -14 m 0
 271.541015625 -14.6669921875 259.7109375 -15.662109375 246.7109375 -16.9951171875 c 0
 233.7109375 -18.328125 223.043945312 -19.328125 214.7109375 -19.9951171875 c 0
 206.377929688 -20.662109375 197.877929688 -21.3291015625 189.2109375 -21.99609375 c 0
 180.543945312 -22.6630859375 173.043945312 -22.99609375 166.7109375 -22.99609375 c 0
 160.377929688 -22.99609375 154.877929688 -22.3291015625 150.2109375 -20.99609375 c 2
 146.2109375 -20.99609375 l 2
 133.543945312 -20.99609375 124.376953125 -16.49609375 118.709960938 -7.49609375 c 0
 115.602539062 -2.560546875 114.048828125 3.427734375 114.048828125 10.4677734375 c 0
 114.048828125 16.265625 115.102539062 22.7783203125 117.209960938 30.00390625 c 0
 125.876953125 58.00390625 138.876953125 111.336914062 156.209960938 190.00390625 c 0
 173.54296875 268.670898438 190.54296875 349.670898438 207.209960938 433.00390625 c 0
 216.54296875 477.670898438 222.875976562 507.670898438 226.208984375 523.00390625 c 0
 229.541992188 538.336914062 234.708984375 559.00390625 241.708984375 585.00390625 c 0
 248.708984375 611.00390625 253.541992188 629.00390625 256.208984375 639.00390625 c 0
 260.875976562 657.00390625 268.708984375 670.50390625 279.708984375 679.50390625 c 0
 290.708984375 688.50390625 302.541992188 693.00390625 315.208984375 693.00390625 c 2
 318.208984375 693.00390625 l 2
 328.875976562 696.336914062 340.04296875 699.169921875 351.709960938 701.502929688 c 0
 363.376953125 703.8359375 373.876953125 705.502929688 383.209960938 706.502929688 c 0
 392.54296875 707.502929688 402.375976562 708.169921875 412.708984375 708.502929688 c 0
 423.041992188 708.8359375 430.875 709.002929688 436.208007812 709.002929688 c 2
 454.708007812 709.002929688 l 1
 465.208007812 709.002929688 l 2
 507.208007812 709.002929688 542.708007812 700.669921875 571.708007812 684.002929688 c 0
 600.708007812 667.3359375 621.208007812 643.168945312 633.208007812 611.501953125 c 0
 639.958007812 593.689453125 643.333007812 574.2421875 643.333007812 553.16015625 c 0
 643.333007812 536.762695312 641.291015625 519.376953125 637.208007812 501.001953125 c 0
 628.541015625 462.334960938 612.541015625 429.16796875 589.208007812 401.500976562 c 0
 565.875 373.833984375 538.208007812 353.666992188 506.208007812 341 c 1
 525.541015625 333.666992188 543.708007812 322.833984375 560.708007812 308.500976562 c 0
 577.708007812 294.16796875 590.875 278.16796875 600.208007812 260.500976562 c 0
 607.084960938 247.483398438 610.5234375 235.098632812 610.5234375 223.34765625 c 0
 610.5234375 219.151367188 610.084960938 215.036132812 609.208007812 211.000976562 c 0
 603.875 185.66796875 592.208007812 160.500976562 574.208007812 135.500976562 c 0
 556.208007812 110.500976562 533.375 87.66796875 505.708007812 67.0009765625 c 0
 478.041015625 46.333984375 444.708007812 28.6669921875 405.708007812 14 c 0
 366.708007812 -0.6669921875 325.541015625 -10 282.208007812 -14 c 0
445.2109375 630.004882812 m 0
 411.877929688 630.004882812 378.209960938 625.671875 344.209960938 617.004882812 c 1
 340.876953125 604.337890625 335.543945312 584.004882812 328.2109375 556.004882812 c 0
 320.877929688 528.004882812 313.377929688 498.337890625 305.7109375 467.004882812 c 0
 298.043945312 435.671875 290.543945312 403.671875 283.2109375 371.004882812 c 1
 311.877929688 369.671875 339.2109375 369.004882812 365.2109375 369.004882812 c 0
 383.877929688 369.004882812 401.377929688 370.671875 417.7109375 374.004882812 c 0
 434.043945312 377.337890625 448.043945312 381.670898438 459.7109375 387.00390625 c 0
 471.377929688 392.336914062 482.2109375 398.836914062 492.2109375 406.50390625 c 0
 502.2109375 414.170898438 510.543945312 422.00390625 517.2109375 430.00390625 c 0
 523.877929688 438.00390625 529.7109375 446.836914062 534.7109375 456.50390625 c 0
 539.7109375 466.170898438 543.543945312 474.837890625 546.2109375 482.504882812 c 0
 548.877929688 490.171875 551.2109375 498.338867188 553.2109375 507.005859375 c 0
 555.497070312 516.91015625 556.639648438 526.379882812 556.639648438 535.4140625 c 0
 556.639648438 542.189453125 555.997070312 548.719726562 554.7109375 555.005859375 c 0
 551.7109375 569.672851562 546.377929688 581.505859375 538.7109375 590.505859375 c 0
 531.043945312 599.505859375 521.7109375 607.172851562 510.7109375 613.505859375 c 0
 499.7109375 619.838867188 488.7109375 624.171875 477.7109375 626.504882812 c 0
 466.7109375 628.837890625 455.877929688 630.004882812 445.2109375 630.004882812 c 0
356.209960938 297.004882812 m 1
 310.876953125 297.004882812 281.208007812 296.670898438 267.208007812 296.00390625 c 1
 245.208007812 188.670898438 229.875 112.337890625 221.208007812 67.0048828125 c 1
 227.875 67.0048828125 239.041992188 67.337890625 254.708984375 68.0048828125 c 0
 270.375976562 68.671875 282.54296875 69.0048828125 291.209960938 69.0048828125 c 0
 319.876953125 70.337890625 347.876953125 75.6708984375 375.209960938 85.00390625 c 0
 402.54296875 94.3369140625 425.54296875 105.50390625 444.209960938 118.50390625 c 0
 462.876953125 131.50390625 478.376953125 145.170898438 490.709960938 159.50390625 c 0
 503.04296875 173.836914062 510.875976562 187.00390625 514.208984375 199.00390625 c 0
 516.208984375 207.670898438 514.708984375 216.337890625 509.708984375 225.004882812 c 0
 504.708984375 233.671875 496.541992188 242.671875 485.208984375 252.004882812 c 0
 473.875976562 261.337890625 457.04296875 270.004882812 434.709960938 278.004882812 c 0
 412.376953125 286.004882812 386.209960938 292.337890625 356.209960938 297.004882812 c 1
EndSplineSet
EndChar

StartChar: C
Encoding: 67 67 46
Width: 670
GlyphClass: 2
Flags: HMW
HStem: -31.002 90.0029<280.805 335.471> 632.001 80.9961<565.805 567.805>
VStem: 605.471 77
LayerCount: 2
Fore
SplineSet
561.47265625 64 m 0
 495.4921875 0.607421875 409.426757812 -31.0908203125 303.276367188 -31.0908203125 c 0
 300.026367188 -31.0908203125 296.758789062 -31.0615234375 293.471679688 -31.001953125 c 0
 268.138671875 -31.001953125 245.305664062 -26.3349609375 224.97265625 -17.001953125 c 0
 204.639648438 -7.6689453125 188.139648438 4.6640625 175.47265625 19.9970703125 c 0
 162.805664062 35.330078125 152.805664062 53.1630859375 145.47265625 73.49609375 c 0
 138.139648438 93.8291015625 134.139648438 115.49609375 133.47265625 138.49609375 c 0
 133.40625 140.796875 133.373046875 143.099609375 133.373046875 145.403320312 c 0
 133.373046875 166.1328125 136.073242188 186.997070312 141.47265625 207.99609375 c 0
 152.805664062 256.663085938 168.305664062 303.663085938 187.97265625 348.99609375 c 0
 207.639648438 394.329101562 229.639648438 435.329101562 253.97265625 471.99609375 c 0
 278.305664062 508.663085938 304.638671875 542.330078125 332.971679688 572.997070312 c 0
 361.3046875 603.6640625 389.471679688 629.1640625 417.471679688 649.497070312 c 0
 445.471679688 669.830078125 473.3046875 685.497070312 500.971679688 696.497070312 c 0
 528.638671875 707.497070312 554.138671875 712.997070312 577.471679688 712.997070312 c 0
 600.138671875 712.997070312 620.471679688 710.330078125 638.471679688 704.997070312 c 1
 643.138671875 714.997070312 649.638671875 723.1640625 657.971679688 729.497070312 c 0
 666.3046875 735.830078125 675.137695312 739.330078125 684.470703125 739.997070312 c 0
 695.137695312 741.997070312 704.8046875 739.497070312 713.471679688 732.497070312 c 0
 722.138671875 725.497070312 726.471679688 715.330078125 726.471679688 701.997070312 c 0
 726.471679688 691.997070312 725.8046875 682.1640625 724.471679688 672.497070312 c 0
 723.138671875 662.830078125 721.638671875 653.330078125 719.971679688 643.997070312 c 0
 718.3046875 634.6640625 716.8046875 626.997070312 715.471679688 620.997070312 c 0
 714.138671875 614.997070312 712.471679688 607.997070312 710.471679688 599.997070312 c 0
 708.471679688 591.997070312 707.138671875 586.997070312 706.471679688 584.997070312 c 0
 703.138671875 570.997070312 695.138671875 556.830078125 682.471679688 542.497070312 c 0
 669.8046875 528.1640625 658.137695312 520.331054688 647.470703125 518.998046875 c 0
 645.1484375 518.611328125 642.875976562 518.416992188 640.653320312 518.416992188 c 0
 631.391601562 518.416992188 622.997070312 521.77734375 615.470703125 528.498046875 c 0
 608.211914062 534.979492188 604.583007812 543.174804688 604.583007812 553.083007812 c 0
 604.583007812 555.915039062 604.87890625 558.88671875 605.471679688 561.998046875 c 0
 606.8046875 567.331054688 610.8046875 581.331054688 617.471679688 603.998046875 c 0
 616.8046875 604.665039062 614.3046875 606.83203125 609.971679688 610.499023438 c 0
 605.638671875 614.166015625 602.471679688 616.833007812 600.471679688 618.5 c 0
 598.471679688 620.166992188 595.3046875 622.333984375 590.971679688 625.000976562 c 0
 586.638671875 627.66796875 582.471679688 629.500976562 578.471679688 630.500976562 c 0
 574.471679688 631.500976562 570.138671875 632.000976562 565.471679688 632.000976562 c 0
 546.138671875 632.000976562 523.971679688 625.333984375 498.971679688 612.000976562 c 0
 473.971679688 598.66796875 448.471679688 579.66796875 422.471679688 555.000976562 c 0
 396.471679688 530.333984375 371.638671875 502.000976562 347.971679688 470.000976562 c 0
 324.3046875 438.000976562 302.8046875 401.833984375 283.471679688 361.500976562 c 0
 264.138671875 321.16796875 250.138671875 280.66796875 241.471679688 240.000976562 c 0
 237.430664062 222.22265625 235.41015625 204.688476562 235.41015625 187.399414062 c 0
 235.41015625 176.163085938 236.263671875 165.030273438 237.970703125 154.000976562 c 0
 242.303710938 126.000976562 252.303710938 103.16796875 267.970703125 85.5009765625 c 0
 283.637695312 67.833984375 302.8046875 59.0009765625 325.471679688 59.0009765625 c 0
 345.471679688 59.0009765625 365.471679688 61.16796875 385.471679688 65.5009765625 c 0
 405.471679688 69.833984375 423.8046875 75.5009765625 440.471679688 82.5009765625 c 0
 457.138671875 89.5009765625 471.805664062 96.5009765625 484.47265625 103.500976562 c 0
 497.139648438 110.500976562 509.139648438 118.000976562 520.47265625 126.000976562 c 0
 529.805664062 132.000976562 537.805664062 136.66796875 544.47265625 140.000976562 c 0
 551.139648438 143.333984375 557.97265625 145.000976562 564.97265625 145.000976562 c 0
 571.97265625 145.000976562 577.805664062 142.66796875 582.47265625 138.000976562 c 0
 589.260742188 131.212890625 592.654296875 123.631835938 592.654296875 115.256835938 c 0
 592.654296875 100.600585938 582.260742188 83.515625 561.47265625 64 c 0
EndSplineSet
EndChar

StartChar: D
Encoding: 68 68 47
Width: 670
GlyphClass: 2
Flags: HMW
HStem: -31 85.998<360.653 372.323> 694.001 20G<298.321 308.654>
LayerCount: 2
Fore
SplineSet
359.65625 -31 m 0
 328.989257812 -31 299.15234375 -29.5 270.15234375 -26.5 c 0
 241.15234375 -23.5 218.319335938 -20 201.65234375 -16 c 0
 184.985351562 -12 170.485351562 -8.3330078125 158.15234375 -5 c 0
 145.819335938 -1.6669921875 138.65234375 0 136.65234375 0 c 0
 123.985351562 0 114.818359375 4.5 109.151367188 13.5 c 0
 106.043945312 18.435546875 104.490234375 24.423828125 104.490234375 31.4638671875 c 0
 104.490234375 37.26171875 105.543945312 43.7744140625 107.651367188 51 c 0
 116.984375 83 130.651367188 139.833007812 148.651367188 221.5 c 0
 166.651367188 303.166992188 185.318359375 391.666992188 204.651367188 487 c 0
 212.651367188 524.333007812 217.984375 548.833007812 220.651367188 560.5 c 0
 223.318359375 572.166992188 227.985351562 590.333984375 234.65234375 615.000976562 c 0
 241.319335938 639.66796875 245.319335938 654.66796875 246.65234375 660.000976562 c 0
 251.319335938 678.000976562 258.986328125 691.500976562 269.653320312 700.500976562 c 0
 280.3203125 709.500976562 291.987304688 714.000976562 304.654296875 714.000976562 c 0
 312.654296875 714.000976562 322.654296875 713.333984375 334.654296875 712.000976562 c 0
 346.654296875 710.66796875 362.154296875 708.000976562 381.154296875 704.000976562 c 0
 400.154296875 700.000976562 419.154296875 694.500976562 438.154296875 687.500976562 c 0
 457.154296875 680.500976562 476.987304688 670.66796875 497.654296875 658.000976562 c 0
 518.321289062 645.333984375 537.321289062 630.666992188 554.654296875 614 c 0
 571.987304688 597.333007812 587.8203125 576.5 602.153320312 551.5 c 0
 616.486328125 526.5 627.486328125 499.166992188 635.153320312 469.5 c 0
 642.20703125 442.20703125 645.733398438 410.119140625 645.733398438 373.235351562 c 0
 645.733398438 370.026367188 645.70703125 366.78125 645.653320312 363.5 c 0
 644.986328125 322.5 638.986328125 278.333007812 627.653320312 231 c 0
 622.3203125 207.666992188 613.987304688 184 602.654296875 160 c 0
 591.321289062 136 576.98828125 112.5 559.655273438 89.5 c 0
 542.322265625 66.5 523.489257812 46 503.15625 28 c 0
 482.823242188 10 460.15625 -4.3330078125 435.15625 -15 c 0
 410.15625 -25.6669921875 384.989257812 -31 359.65625 -31 c 0
263.65234375 348 m 0
 257.65234375 319.333007812 248.8203125 276.165039062 237.153320312 218.498046875 c 0
 225.486328125 160.831054688 216.986328125 117.331054688 211.653320312 87.998046875 c 1
 234.3203125 75.998046875 258.8203125 67.498046875 285.153320312 62.498046875 c 0
 311.486328125 57.498046875 342.653320312 54.998046875 378.653320312 54.998046875 c 0
 395.986328125 54.998046875 413.653320312 61.1650390625 431.653320312 73.498046875 c 0
 449.653320312 85.8310546875 465.986328125 101.831054688 480.653320312 121.498046875 c 0
 495.3203125 141.165039062 508.3203125 162.83203125 519.653320312 186.499023438 c 0
 530.986328125 210.166015625 539.319335938 233.333007812 544.65234375 256 c 0
 552.21484375 289.063476562 555.99609375 320.0625 555.99609375 348.99609375 c 0
 555.99609375 429.743164062 526.547851562 494.411132812 467.65234375 543 c 0
 438.985351562 566.333007812 395.65234375 590.333007812 337.65234375 615 c 1
 337.65234375 616 l 1
 336.65234375 616 l 1
 335.65234375 616 l 1
 334.65234375 617 l 1
 333.65234375 617 l 1
 332.65234375 618 l 1
 331.65234375 618 l 1
 330.65234375 618 l 1
 330.65234375 619 l 1
 329.65234375 619 l 1
 328.65234375 619 l 1
 327.65234375 620 l 1
 326.65234375 620 l 1
 325.65234375 620 l 1
 325.65234375 621 l 1
 303.65234375 534.333007812 282.985351562 443.333007812 263.65234375 348 c 0
EndSplineSet
EndChar

StartChar: E
Encoding: 69 69 48
Width: 670
GlyphClass: 2
Flags: HMW
HStem: -17.498 87.4961 -6 90.4971 312.001 85.999<265.403 307.074> 332.001 80.999<579.737 611.739> 614.501 82.5
LayerCount: 2
Fore
SplineSet
514.40234375 -6 m 0x48
 512.4609375 -5.87890625 509.967773438 -5.818359375 506.921875 -5.818359375 c 0
 493.234375 -5.818359375 468.396484375 -7.0439453125 432.405273438 -9.498046875 c 0
 388.405273438 -12.498046875 340.405273438 -15.1650390625 288.405273438 -17.498046875 c 0
 260.404296875 -18.75390625 235.8828125 -19.3828125 214.840820312 -19.3828125 c 0
 196.806640625 -19.3828125 181.328125 -18.9208984375 168.405273438 -17.998046875 c 0
 154.405273438 -17.3310546875 142.072265625 -9.8310546875 131.405273438 4.501953125 c 0
 122.422851562 16.5712890625 117.931640625 30.8876953125 117.931640625 47.44921875 c 0
 117.931640625 50.5546875 118.08984375 53.73828125 118.405273438 57.001953125 c 0
 120.405273438 74.3349609375 126.572265625 105.501953125 136.905273438 150.501953125 c 0
 147.23828125 195.501953125 158.571289062 243.334960938 170.904296875 294.001953125 c 0
 183.237304688 344.668945312 195.737304688 401.668945312 208.404296875 465.001953125 c 0
 217.071289062 505.001953125 222.904296875 531.501953125 225.904296875 544.501953125 c 0
 228.904296875 557.501953125 233.737304688 576.668945312 240.404296875 602.001953125 c 0
 247.071289062 627.334960938 251.404296875 643.001953125 253.404296875 649.001953125 c 0
 258.071289062 667.001953125 265.73828125 680.668945312 276.405273438 690.001953125 c 0
 287.072265625 699.334960938 298.739257812 704.001953125 311.40625 704.001953125 c 0
 312.284179688 704.037109375 313.146484375 704.0546875 313.994140625 704.0546875 c 0
 329.251953125 704.0546875 339.721679688 698.370117188 345.40625 687.001953125 c 1
 382.073242188 692.334960938 424.240234375 695.66796875 471.907226562 697.000976562 c 0
 495.740234375 697.66796875 518.157226562 698.000976562 539.157226562 698.000976562 c 0
 560.157226562 698.000976562 579.740234375 697.666992188 597.907226562 697.000976562 c 0
 634.240234375 695.66796875 662.740234375 693.66796875 683.407226562 691.000976562 c 0
 697.407226562 689.000976562 706.740234375 685.000976562 711.407226562 679.000976562 c 0
 716.07421875 673.000976562 717.07421875 664.66796875 714.407226562 654.000976562 c 0
 713.07421875 648.000976562 711.241210938 642.333984375 708.908203125 637.000976562 c 0
 706.575195312 631.66796875 703.575195312 626.834960938 699.908203125 622.501953125 c 0
 696.241210938 618.168945312 691.408203125 614.668945312 685.408203125 612.001953125 c 0
 679.408203125 609.334960938 672.408203125 608.66796875 664.408203125 610.000976562 c 0
 622.1640625 613.439453125 579.376953125 615.159179688 536.047851562 615.159179688 c 0
 520.5703125 615.159179688 505.024414062 614.939453125 489.409179688 614.500976562 c 0
 430.076171875 612.833984375 378.409179688 608.666992188 334.409179688 602 c 1
 315.7421875 532.666992188 299.075195312 464.666992188 284.408203125 398 c 1xa8
 329.741210938 398 392.07421875 400.5 471.407226562 405.5 c 0
 550.740234375 410.5 595.073242188 413 604.40625 413 c 0
 619.073242188 413 628.573242188 409.666992188 632.90625 403 c 0
 637.239257812 396.333007812 638.072265625 387 635.405273438 375 c 0
 628.88671875 346.319335938 612.807617188 331.978515625 587.16796875 331.978515625 c 0
 586.584960938 331.978515625 585.997070312 331.986328125 585.404296875 332.000976562 c 0x18
 574.071289062 332.000976562 525.571289062 328.66796875 439.904296875 322.000976562 c 0
 354.237304688 315.333984375 296.0703125 312.000976562 265.403320312 312.000976562 c 1
 262.0703125 297.333984375 257.737304688 278.166992188 252.404296875 254.5 c 0
 247.071289062 230.833007812 242.571289062 210.5 238.904296875 193.5 c 0
 235.237304688 176.5 231.5703125 159 227.903320312 141 c 0
 224.236328125 123 221.569335938 108.166992188 219.90234375 96.5 c 0
 218.235351562 84.8330078125 217.735351562 76.666015625 218.40234375 71.9990234375 c 1
 226.958984375 69.2763671875 246.916015625 67.9150390625 278.274414062 67.9150390625 c 0
 300.668945312 67.9150390625 328.87890625 68.609375 362.903320312 69.998046875 c 0xa8
 444.5703125 73.3310546875 497.403320312 77.6640625 521.403320312 82.9970703125 c 0
 530.736328125 84.330078125 538.569335938 84.830078125 544.90234375 84.4970703125 c 0
 551.235351562 84.1640625 556.40234375 82.8310546875 560.40234375 80.498046875 c 0
 564.40234375 78.1650390625 567.40234375 75.6650390625 569.40234375 72.998046875 c 0
 571.40234375 70.3310546875 572.735351562 66.8310546875 573.40234375 62.498046875 c 0
 574.069335938 58.1650390625 574.40234375 54.33203125 574.40234375 50.9990234375 c 0
 574.40234375 47.666015625 574.069335938 44.3330078125 573.40234375 41 c 0
 570.735351562 28.3330078125 564.235351562 17 553.90234375 7 c 0
 544.78515625 -1.8232421875 533.4609375 -6.2353515625 519.930664062 -6.2353515625 c 0
 518.126953125 -6.2353515625 516.284179688 -6.1572265625 514.40234375 -6 c 0x48
EndSplineSet
EndChar

StartChar: F
Encoding: 70 70 49
Width: 670
GlyphClass: 2
Flags: HMW
HStem: 316 86.002 619.002 86.999
LayerCount: 2
Fore
SplineSet
207.013671875 24 m 0
 202.346679688 10 193.513671875 -1.166015625 180.513671875 -9.4990234375 c 0
 168.477539062 -17.21484375 156.297851562 -21.072265625 143.975585938 -21.072265625 c 0
 142.989257812 -21.072265625 142.001953125 -21.0478515625 141.013671875 -20.998046875 c 0
 128.346679688 -20.998046875 119.1796875 -16.498046875 113.512695312 -7.498046875 c 0
 110.405273438 -2.5625 108.8515625 3.42578125 108.8515625 10.4658203125 c 0
 108.8515625 16.263671875 109.905273438 22.7763671875 112.012695312 30.001953125 c 0
 120.6796875 59.3349609375 134.1796875 115.501953125 152.512695312 198.501953125 c 0
 170.845703125 281.501953125 188.678710938 367.001953125 206.01171875 455.001953125 c 0
 215.344726562 499.668945312 221.844726562 529.668945312 225.51171875 545.001953125 c 0
 229.178710938 560.334960938 234.51171875 581.001953125 241.51171875 607.001953125 c 0
 248.51171875 633.001953125 253.344726562 650.668945312 256.01171875 660.001953125 c 0
 260.678710938 678.001953125 268.345703125 691.501953125 279.012695312 700.501953125 c 0
 289.6796875 709.501953125 301.346679688 714.001953125 314.013671875 714.001953125 c 0
 315.6640625 714.12890625 317.262695312 714.192382812 318.810546875 714.192382812 c 0
 333.516601562 714.192382812 343.584960938 708.461914062 349.013671875 697.000976562 c 1
 411.013671875 701.66796875 473.013671875 704.66796875 535.013671875 706.000976562 c 0
 550.512695312 706.333984375 565.283203125 706.500976562 579.32421875 706.500976562 c 0
 621.450195312 706.500976562 657.012695312 705.000976562 686.013671875 702.000976562 c 0
 700.013671875 700.66796875 709.180664062 696.834960938 713.513671875 690.501953125 c 0
 717.846679688 684.168945312 719.013671875 675.3359375 717.013671875 664.002929688 c 0
 714.346679688 651.3359375 708.513671875 640.668945312 699.513671875 632.001953125 c 0
 690.513671875 623.334960938 678.346679688 619.001953125 663.013671875 619.001953125 c 0
 628.694335938 620.856445312 593.166015625 621.784179688 556.426757812 621.784179688 c 0
 487.541992188 621.784179688 414.404296875 618.5234375 337.012695312 612.001953125 c 1
 334.345703125 600.668945312 329.678710938 582.501953125 323.01171875 557.501953125 c 0
 316.344726562 532.501953125 309.844726562 507.001953125 303.51171875 481.001953125 c 0
 297.178710938 455.001953125 291.01171875 428.668945312 285.01171875 402.001953125 c 1
 313.58203125 405.430664062 344.845703125 407.14453125 378.803710938 407.14453125 c 0
 384.46484375 407.14453125 390.201171875 407.09765625 396.01171875 407.001953125 c 0
 436.678710938 406.334960938 473.01171875 404.501953125 505.01171875 401.501953125 c 0
 537.01171875 398.501953125 562.344726562 395.334960938 581.01171875 392.001953125 c 0
 595.01171875 389.334960938 604.178710938 385.001953125 608.51171875 379.001953125 c 0
 612.844726562 373.001953125 614.01171875 364.668945312 612.01171875 354.001953125 c 0
 610.678710938 348.001953125 608.845703125 342.501953125 606.512695312 337.501953125 c 0
 604.1796875 332.501953125 601.012695312 327.668945312 597.012695312 323.001953125 c 0
 593.012695312 318.334960938 588.1796875 314.834960938 582.512695312 312.501953125 c 0
 576.845703125 310.168945312 570.012695312 309.3359375 562.012695312 310.002929688 c 0
 544.012695312 313.3359375 518.345703125 316.168945312 485.012695312 318.501953125 c 0
 451.6796875 320.834960938 413.846679688 322.16796875 371.513671875 322.500976562 c 0
 368.694335938 322.5234375 365.90625 322.534179688 363.150390625 322.534179688 c 0
 324.528320312 322.534179688 292.1484375 320.356445312 266.013671875 316 c 1
 230.013671875 139.333007812 210.346679688 42 207.013671875 24 c 0
EndSplineSet
EndChar

StartChar: G
Encoding: 71 71 50
Width: 670
GlyphClass: 2
Flags: HMW
HStem: -30.9971 89.9971<280.033 331.033> 643.002 80.999<567.032 572.364>
LayerCount: 2
Fore
SplineSet
602.700195312 244 m 0
 598.033203125 230 590.366210938 213.669921875 579.69921875 195.002929688 c 0
 569.032226562 176.3359375 556.19921875 156.502929688 541.19921875 135.502929688 c 0
 526.19921875 114.502929688 509.032226562 94.169921875 489.69921875 74.5029296875 c 0
 470.366210938 54.8359375 450.366210938 37.0029296875 429.69921875 21.0029296875 c 0
 409.032226562 5.0029296875 386.532226562 -7.830078125 362.19921875 -17.4970703125 c 0
 339.436523438 -26.5400390625 317.694335938 -31.0615234375 296.973632812 -31.0615234375 c 0
 295.543945312 -31.0615234375 294.119140625 -31.0400390625 292.69921875 -30.9970703125 c 0
 267.366210938 -30.9970703125 244.533203125 -26.330078125 224.200195312 -16.9970703125 c 0
 203.8671875 -7.6640625 187.3671875 4.6689453125 174.700195312 20.001953125 c 0
 162.033203125 35.3349609375 152.033203125 53.16796875 144.700195312 73.5009765625 c 0
 137.3671875 93.833984375 133.3671875 115.500976562 132.700195312 138.500976562 c 0
 132.625976562 141.057617188 132.588867188 143.616210938 132.588867188 146.177734375 c 0
 132.588867188 166.653320312 134.958984375 187.26171875 139.69921875 208.000976562 c 0
 151.032226562 257.333984375 166.865234375 305.333984375 187.198242188 352.000976562 c 0
 207.53125 398.66796875 229.698242188 440.66796875 253.698242188 478.000976562 c 0
 277.698242188 515.333984375 304.03125 549.500976562 332.698242188 580.500976562 c 0
 361.365234375 611.500976562 389.865234375 637.500976562 418.198242188 658.500976562 c 0
 446.53125 679.500976562 474.53125 695.66796875 502.198242188 707.000976562 c 0
 529.865234375 718.333984375 555.365234375 724.000976562 578.698242188 724.000976562 c 0
 604.698242188 724.000976562 632.198242188 717.500976562 661.198242188 704.500976562 c 0
 690.198242188 691.500976562 708.03125 680.333984375 714.698242188 671.000976562 c 0
 719.57421875 664.295898438 722.012695312 656.685546875 722.012695312 648.169921875 c 0
 722.012695312 638.056640625 718.57421875 626.666992188 711.698242188 614.000976562 c 0
 707.698242188 605.333984375 700.53125 599.000976562 690.198242188 595.000976562 c 0
 679.865234375 591.000976562 670.365234375 591.000976562 661.698242188 595.000976562 c 0
 658.365234375 596.333984375 650.865234375 601.333984375 639.198242188 610.000976562 c 0
 627.53125 618.66796875 615.364257812 626.334960938 602.697265625 633.001953125 c 0
 590.030273438 639.668945312 578.030273438 643.001953125 566.697265625 643.001953125 c 0
 547.364257812 643.001953125 525.03125 636.168945312 499.698242188 622.501953125 c 0
 474.365234375 608.834960938 448.698242188 589.16796875 422.698242188 563.500976562 c 0
 396.698242188 537.833984375 371.698242188 508.666992188 347.698242188 476 c 0
 323.698242188 443.333007812 302.03125 406.333007812 282.698242188 365 c 0
 263.365234375 323.666992188 249.032226562 282 239.69921875 240 c 0
 235.658203125 222.221679688 233.637695312 204.6875 233.637695312 187.3984375 c 0
 233.637695312 176.162109375 234.491210938 165.029296875 236.198242188 154 c 0
 240.53125 126 250.53125 103.166992188 266.198242188 85.5 c 0
 281.865234375 67.8330078125 301.032226562 59 323.69921875 59 c 0
 338.366210938 59 354.866210938 64.1669921875 373.19921875 74.5 c 0
 391.532226562 84.8330078125 408.865234375 98 425.198242188 114 c 0
 441.53125 130 457.53125 148 473.198242188 168 c 0
 488.865234375 188 502.532226562 207.333007812 514.19921875 226 c 0
 525.866210938 244.666992188 535.366210938 262 542.69921875 278 c 1
 503.366210938 276 464.366210938 272.333007812 425.69921875 267 c 0
 387.032226562 261.666992188 359.69921875 254.666992188 343.69921875 246 c 0
 338.014648438 243.158203125 332.779296875 241.736328125 327.9921875 241.736328125 c 0
 322.673828125 241.736328125 317.91015625 243.491210938 313.69921875 247 c 0
 305.69921875 253.666992188 302.366210938 262.666992188 303.69921875 274 c 0
 305.69921875 299.333007812 322.032226562 319 352.69921875 333 c 0
 372.69921875 342.333007812 412.19921875 349.5 471.19921875 354.5 c 0
 513.341796875 358.071289062 548.9375 359.857421875 577.985351562 359.857421875 c 0
 589.604492188 359.857421875 600.17578125 359.571289062 609.69921875 359 c 0
 625.032226562 358.333007812 635.032226562 355.5 639.69921875 350.5 c 0
 644.366210938 345.5 646.366210938 337.666992188 645.69921875 327 c 0
 643.032226562 302.333007812 633.032226562 287 615.69921875 281 c 0
 615.032226562 279 613.032226562 273.666992188 609.69921875 265 c 0
 606.366210938 256.333007812 604.033203125 249.333007812 602.700195312 244 c 0
EndSplineSet
EndChar

StartChar: H
Encoding: 72 72 51
Width: 670
GlyphClass: 2
Flags: HMW
HStem: 311.999 86.001<280.289 317.621>
LayerCount: 2
Fore
SplineSet
554.290039062 24 m 0
 549.623046875 10 540.958007812 -1.16796875 528.291015625 -9.5009765625 c 0
 516.5625 -17.216796875 504.548828125 -21.07421875 492.25 -21.07421875 c 0
 491.265625 -21.07421875 490.279296875 -21.0498046875 489.291015625 -21 c 0
 476.624023438 -21 467.45703125 -16.5 461.790039062 -7.5 c 0
 458.682617188 -2.564453125 457.12890625 3.423828125 457.12890625 10.4638671875 c 0
 457.12890625 16.26171875 458.182617188 22.7744140625 460.290039062 30 c 0
 487.623046875 122.666992188 514.290039062 226.666992188 540.290039062 342 c 1
 529.623046875 341.333007812 490.456054688 336.166015625 422.7890625 326.499023438 c 0
 355.122070312 316.83203125 307.622070312 311.999023438 280.2890625 311.999023438 c 0
 279.622070312 309.999023438 278.622070312 306.499023438 277.2890625 301.499023438 c 0
 275.956054688 296.499023438 274.956054688 292.999023438 274.2890625 290.999023438 c 0
 255.622070312 224.999023438 234.955078125 135.999023438 212.288085938 23.9990234375 c 0
 207.62109375 9.9990234375 198.788085938 -1.16796875 185.788085938 -9.5009765625 c 0
 173.751953125 -17.216796875 161.858398438 -21.07421875 150.107421875 -21.07421875 c 0
 149.166992188 -21.07421875 148.2265625 -21.0498046875 147.288085938 -21 c 0
 135.288085938 -21 126.12109375 -16.5 119.788085938 -7.5 c 0
 116.350585938 -2.6142578125 114.630859375 3.302734375 114.630859375 10.251953125 c 0
 114.630859375 16.1025390625 115.850585938 22.685546875 118.288085938 30 c 0
 120.955078125 39.3330078125 124.955078125 54.3330078125 130.288085938 75 c 0
 135.62109375 95.6669921875 142.288085938 123.333984375 150.288085938 158.000976562 c 0
 158.288085938 192.66796875 165.62109375 224.000976562 172.288085938 252.000976562 c 0
 177.62109375 274.66796875 185.788085938 307.16796875 196.788085938 349.500976562 c 0
 207.788085938 391.833984375 215.62109375 423.166992188 220.288085938 443.5 c 2
 241.288085938 535 l 2
 247.288085938 565 251.288085938 584.166992188 253.288085938 592.5 c 0
 255.288085938 600.833007812 258.288085938 612.333007812 262.288085938 627 c 2
 271.288085938 660 l 2
 275.955078125 678 283.788085938 691.5 294.788085938 700.5 c 0
 305.788085938 709.5 317.62109375 714 330.288085938 714 c 0
 331.325195312 714.049804688 332.34375 714.07421875 333.342773438 714.07421875 c 0
 345.825195312 714.07421875 355.306640625 710.216796875 361.788085938 702.500976562 c 0
 366.2421875 697.198242188 368.469726562 689.9375 368.469726562 680.719726562 c 0
 368.469726562 675.453125 367.7421875 669.546875 366.288085938 663.000976562 c 0
 364.955078125 656.333984375 360.788085938 642.000976562 353.788085938 620.000976562 c 0
 346.788085938 598.000976562 341.288085938 577.66796875 337.288085938 559.000976562 c 0
 333.288085938 541.66796875 327.455078125 515.16796875 319.788085938 479.500976562 c 0
 312.12109375 443.833984375 305.954101562 416.666992188 301.287109375 398 c 1
 333.954101562 398 367.954101562 400 403.287109375 404 c 0
 438.620117188 408 470.620117188 412 499.287109375 416 c 0
 527.954101562 420 547.954101562 422.666992188 559.287109375 424 c 1
 559.954101562 428.666992188 561.12109375 435.5 562.788085938 444.5 c 0
 564.455078125 453.5 565.955078125 460.333007812 567.288085938 465 c 0
 576.62109375 506.333007812 582.62109375 533.666015625 585.288085938 546.999023438 c 0
 587.955078125 560.33203125 592.955078125 580.999023438 600.288085938 608.999023438 c 0
 607.62109375 636.999023438 612.288085938 653.999023438 614.288085938 659.999023438 c 0
 618.955078125 677.999023438 626.622070312 691.499023438 637.2890625 700.499023438 c 0
 647.956054688 709.499023438 659.623046875 713.999023438 672.290039062 713.999023438 c 0
 673.327148438 714.048828125 674.345703125 714.073242188 675.344726562 714.073242188 c 0
 687.827148438 714.073242188 697.30859375 710.215820312 703.790039062 702.5 c 0
 708.244140625 697.197265625 710.471679688 689.936523438 710.471679688 680.71875 c 0
 710.471679688 675.452148438 709.744140625 669.545898438 708.290039062 663 c 0
 705.623046875 650.333007812 699.290039062 624.333007812 689.290039062 585 c 0
 679.290039062 545.666992188 670.790039062 511.166992188 663.790039062 481.5 c 0
 656.790039062 451.833007812 647.290039062 409 635.290039062 353 c 0
 625.95703125 306.333007812 611.290039062 245 591.290039062 169 c 0
 571.290039062 93 558.95703125 44.6669921875 554.290039062 24 c 0
EndSplineSet
EndChar

StartChar: I
Encoding: 73 73 52
Width: 670
GlyphClass: 2
Flags: HMW
HStem: -13.998 80.001 -6.49902 77.999 612.001 89.001 625.002 82.999<291.728 318.395 310.062 318.395 310.062 434.394>
LayerCount: 2
Fore
SplineSet
524.400390625 -11 m 0x60
 509.067382812 -8.3330078125 483.221679688 -6.83203125 446.888671875 -6.4990234375 c 0x60
 439.625976562 -6.4326171875 432.383789062 -6.3994140625 425.161132812 -6.3994140625 c 0
 396.250976562 -6.3994140625 367.66015625 -6.9326171875 339.389648438 -7.9990234375 c 0
 304.056640625 -9.33203125 266.723632812 -10.6650390625 227.390625 -11.998046875 c 0
 188.057617188 -13.3310546875 160.724609375 -13.998046875 145.391601562 -13.998046875 c 0
 129.391601562 -13.998046875 118.224609375 -10.6650390625 111.891601562 -3.998046875 c 0
 105.55859375 2.6689453125 103.725585938 11.3359375 106.392578125 22.0029296875 c 0
 108.392578125 34.0029296875 114.059570312 44.169921875 123.392578125 52.5029296875 c 0
 132.725585938 60.8359375 145.392578125 65.3359375 161.392578125 66.0029296875 c 0
 188.059570312 67.3359375 234.059570312 69.0029296875 299.392578125 71.0029296875 c 1
 332.059570312 185.002929688 361.7265625 305.669921875 388.393554688 433.002929688 c 0
 393.060546875 457.002929688 397.893554688 479.669921875 402.893554688 501.002929688 c 0
 407.893554688 522.3359375 411.393554688 537.668945312 413.393554688 547.001953125 c 0
 415.393554688 556.334960938 419.2265625 570.834960938 424.893554688 590.501953125 c 0
 430.560546875 610.168945312 433.727539062 621.668945312 434.39453125 625.001953125 c 1
 406.39453125 625.66796875 381.14453125 626.001953125 358.64453125 626.001953125 c 0
 336.14453125 626.001953125 316.39453125 625.66796875 299.39453125 625.001953125 c 0
 284.061523438 625.001953125 273.228515625 628.668945312 266.895507812 636.001953125 c 0
 260.5625 643.334960938 258.395507812 652.66796875 260.395507812 664.000976562 c 0
 262.395507812 676.000976562 268.395507812 686.333984375 278.395507812 695.000976562 c 0
 288.395507812 703.66796875 301.728515625 708.000976562 318.395507812 708.000976562 c 0x90
 370.62109375 709.556640625 418.995117188 710.334960938 463.516601562 710.334960938 c 0
 552.548828125 710.334960938 626.17578125 707.223632812 684.395507812 701.001953125 c 0
 707.090820312 698.732421875 718.438476562 688.495117188 718.438476562 670.291015625 c 0
 718.438476562 667.104492188 718.090820312 663.674804688 717.395507812 660.000976562 c 0
 716.0625 654.000976562 713.895507812 648.16796875 710.895507812 642.500976562 c 0
 707.895507812 636.833984375 704.228515625 631.333984375 699.895507812 626.000976562 c 0
 695.5625 620.66796875 690.0625 616.500976562 683.395507812 613.500976562 c 0
 676.728515625 610.500976562 669.395507812 610.000976562 661.395507812 612.000976562 c 0
 644.0625 615.333984375 599.729492188 619.000976562 528.396484375 623.000976562 c 1
 527.063476562 617.66796875 523.23046875 602.66796875 516.897460938 578.000976562 c 0
 510.564453125 553.333984375 505.564453125 533.666992188 501.897460938 519 c 0
 498.23046875 504.333007812 493.397460938 483.333007812 487.397460938 456 c 0
 481.397460938 428.666992188 475.397460938 401.666992188 469.397460938 375 c 0
 459.397460938 327.666992188 445.23046875 268.666992188 426.897460938 198 c 0
 408.564453125 127.333007812 397.731445312 85.3330078125 394.3984375 72 c 1
 421.731445312 72 452.731445312 71.8330078125 487.3984375 71.5 c 0
 522.065429688 71.1669921875 540.732421875 71 543.399414062 71 c 0
 558.06640625 71 567.399414062 67.5 571.399414062 60.5 c 0
 575.399414062 53.5 576.399414062 44.3330078125 574.399414062 33 c 0
 573.06640625 27 571.399414062 21.5 569.399414062 16.5 c 0
 567.399414062 11.5 564.399414062 6.5 560.399414062 1.5 c 0
 556.399414062 -3.5 551.232421875 -7.1669921875 544.899414062 -9.5 c 0
 538.56640625 -11.8330078125 531.733398438 -12.3330078125 524.400390625 -11 c 0x60
EndSplineSet
EndChar

StartChar: J
Encoding: 74 74 53
Width: 670
GlyphClass: 2
Flags: HMW
HStem: -35.001 101.001<311.944 319.277> 625 82.999<294.611 320.277>
VStem: 138.277 87.501 151.278 77
LayerCount: 2
Fore
SplineSet
476.275390625 215 m 0xe0
 457.608398438 155 439.110351562 106.33203125 420.77734375 68.9990234375 c 0
 402.444335938 31.666015625 384.27734375 4.9990234375 366.27734375 -11.0009765625 c 0
 348.27734375 -27.0009765625 329.27734375 -35.0009765625 309.27734375 -35.0009765625 c 0
 287.944335938 -35.0009765625 268.27734375 -31.0009765625 250.27734375 -23.0009765625 c 0
 232.27734375 -15.0009765625 217.110351562 -4.333984375 204.77734375 8.9990234375 c 0
 192.444335938 22.33203125 181.611328125 36.83203125 172.278320312 52.4990234375 c 0
 162.9453125 68.166015625 155.778320312 83.8330078125 150.778320312 99.5 c 0
 145.778320312 115.166992188 142.278320312 129.166992188 140.278320312 141.5 c 0
 138.278320312 153.833007812 137.611328125 163.666015625 138.278320312 170.999023438 c 0xe0
 138.278320312 176.999023438 139.611328125 184.166015625 142.278320312 192.499023438 c 0
 144.9453125 200.83203125 147.9453125 208.665039062 151.278320312 215.998046875 c 0
 154.611328125 223.331054688 159.778320312 229.831054688 166.778320312 235.498046875 c 0
 173.778320312 241.165039062 182.278320312 244.665039062 192.278320312 245.998046875 c 0
 195.833984375 246.64453125 199.145507812 246.967773438 202.211914062 246.967773438 c 0
 211.791992188 246.967773438 218.98046875 243.811523438 223.778320312 237.499023438 c 0
 227.927734375 232.0390625 230.001953125 225.649414062 230.001953125 218.329101562 c 0
 230.001953125 214.4765625 229.427734375 210.3671875 228.278320312 205.999023438 c 0xd0
 228.225585938 205.706054688 225.729492188 191.61328125 225.729492188 176.352539062 c 0
 225.729492188 166.751953125 227.079101562 155.80078125 229.779296875 143.5 c 0
 232.779296875 129.833007812 237.446289062 117.333007812 243.779296875 106 c 0
 250.112304688 94.6669921875 259.9453125 85.1669921875 273.278320312 77.5 c 0
 286.611328125 69.8330078125 302.611328125 66 321.278320312 66 c 0
 343.278320312 66 369.611328125 124 400.278320312 240 c 0
 403.611328125 254.666992188 413.778320312 301.666992188 430.778320312 381 c 0
 447.778320312 460.333007812 466.278320312 541.333007812 486.278320312 624 c 1
 445.079101562 625.200195312 406.51953125 625.799804688 370.600585938 625.799804688 c 0
 346.653320312 625.799804688 323.87890625 625.533203125 302.278320312 625 c 0
 286.9453125 625 275.9453125 628.666992188 269.278320312 636 c 0
 262.611328125 643.333007812 260.611328125 652.666015625 263.278320312 663.999023438 c 0
 265.278320312 675.999023438 271.4453125 686.33203125 281.778320312 694.999023438 c 0
 292.111328125 703.666015625 304.944335938 707.999023438 320.27734375 707.999023438 c 0
 372.502929688 709.5546875 420.9140625 710.333007812 465.508789062 710.333007812 c 0
 554.690429688 710.333007812 628.612304688 707.221679688 687.27734375 701 c 0
 709.97265625 698.73046875 721.3203125 688.493164062 721.3203125 670.2890625 c 0
 721.3203125 667.102539062 720.97265625 663.672851562 720.27734375 659.999023438 c 0
 718.944335938 653.999023438 716.77734375 648.166015625 713.77734375 642.499023438 c 0
 710.77734375 636.83203125 706.944335938 631.33203125 702.27734375 625.999023438 c 0
 697.610351562 620.666015625 691.943359375 616.499023438 685.276367188 613.499023438 c 0
 678.609375 610.499023438 671.609375 609.999023438 664.276367188 611.999023438 c 0
 643.609375 615.33203125 610.942382812 618.33203125 566.275390625 620.999023438 c 1
 561.608398438 601.666015625 555.44140625 572.333007812 547.774414062 533 c 0
 540.107421875 493.666992188 533.107421875 457.833984375 526.774414062 425.500976562 c 0
 520.44140625 393.16796875 512.608398438 357.16796875 503.275390625 317.500976562 c 0
 493.942382812 277.833984375 484.942382812 243.666992188 476.275390625 215 c 0xe0
EndSplineSet
EndChar

StartChar: K
Encoding: 75 75 54
Width: 670
GlyphClass: 2
Flags: W
HStem: -21.0752 21G<146.602 153.256 510.446 520.955> 694.072 20G<319.69 326.431>
LayerCount: 2
Fore
SplineSet
210.1328125 24 m 0
 205.465820312 10 196.6328125 -1.1689453125 183.6328125 -9.501953125 c 0
 171.596679688 -17.2177734375 159.416992188 -21.0751953125 147.094726562 -21.0751953125 c 0
 146.108398438 -21.0751953125 145.12109375 -21.05078125 144.1328125 -21.0009765625 c 0
 131.465820312 -21.0009765625 122.298828125 -16.5009765625 116.631835938 -7.5009765625 c 0
 113.524414062 -2.5654296875 111.970703125 3.4228515625 111.970703125 10.462890625 c 0
 111.970703125 16.2607421875 113.024414062 22.7734375 115.131835938 29.9990234375 c 0
 123.798828125 59.33203125 137.465820312 115.499023438 156.1328125 198.499023438 c 0
 174.799804688 281.499023438 192.799804688 366.999023438 210.1328125 454.999023438 c 0
 218.799804688 497.666015625 224.799804688 526.499023438 228.1328125 541.499023438 c 0
 231.465820312 556.499023438 236.965820312 578.166015625 244.6328125 606.499023438 c 0
 252.299804688 634.83203125 257.1328125 652.665039062 259.1328125 659.998046875 c 0
 263.799804688 677.998046875 271.466796875 691.498046875 282.133789062 700.498046875 c 0
 292.80078125 709.498046875 304.467773438 713.998046875 317.134765625 713.998046875 c 0
 318.171875 714.047851562 319.190429688 714.072265625 320.189453125 714.072265625 c 0
 332.671875 714.072265625 342.153320312 710.21484375 348.634765625 702.499023438 c 0
 353.088867188 697.196289062 355.31640625 689.935546875 355.31640625 680.717773438 c 0
 355.31640625 675.451171875 354.588867188 669.544921875 353.134765625 662.999023438 c 0
 349.801757812 646.999023438 341.134765625 611.999023438 327.134765625 557.999023438 c 0
 313.134765625 503.999023438 301.801757812 459.33203125 293.134765625 423.999023438 c 1
 321.134765625 447.33203125 363.134765625 482.665039062 419.134765625 529.998046875 c 0
 475.134765625 577.331054688 519.467773438 614.831054688 552.134765625 642.498046875 c 0
 584.801757812 670.165039062 605.801757812 687.33203125 615.134765625 693.999023438 c 0
 625.801757812 702.666015625 635.46875 708.499023438 644.135742188 711.499023438 c 0
 652.802734375 714.499023438 659.969726562 715.166015625 665.63671875 713.499023438 c 0
 671.303710938 711.83203125 676.13671875 708.33203125 680.13671875 702.999023438 c 0
 683.677734375 697.490234375 685.448242188 691.576171875 685.448242188 685.254882812 c 0
 685.448242188 670.155273438 675.344726562 652.736328125 655.13671875 632.999023438 c 0
 643.13671875 620.999023438 601.969726562 584.499023438 531.63671875 523.499023438 c 0
 461.303710938 462.499023438 399.13671875 409.33203125 345.13671875 363.999023438 c 1
 360.469726562 339.999023438 387.469726562 302.499023438 426.13671875 251.499023438 c 0
 464.803710938 200.499023438 498.303710938 155.666015625 526.63671875 116.999023438 c 0
 544.409179688 92.744140625 571.241210938 56.1259765625 571.241210938 40.0419921875 c 0
 571.241210938 28.9599609375 568.706054688 18.9462890625 563.635742188 9.9990234375 c 0
 557.96875 -0.0009765625 550.801757812 -7.66796875 542.134765625 -13.0009765625 c 0
 533.129882812 -18.5986328125 524.791015625 -21.3974609375 517.118164062 -21.3974609375 c 0
 503.774414062 -21.3974609375 492.446289062 -12.931640625 483.133789062 4 c 0
 478.466796875 12.6669921875 461.633789062 35.6669921875 432.633789062 73 c 0
 403.633789062 110.333007812 372.30078125 151.5 338.633789062 196.5 c 0
 304.966796875 241.5 280.799804688 277.333007812 266.1328125 304 c 1
 261.1328125 284 l 2
 259.1328125 272.666992188 242.1328125 186 210.1328125 24 c 0
EndSplineSet
EndChar

StartChar: L
Encoding: 76 76 55
Width: 670
GlyphClass: 2
Flags: HMW
HStem: -9.00488 81.0029
LayerCount: 2
Fore
SplineSet
527.734375 10 m 0
 483.734375 1.3330078125 418.407226562 -5.0048828125 331.740234375 -9.0048828125 c 0
 245.073242188 -13.0048828125 181.740234375 -15.0048828125 141.740234375 -15.0048828125 c 0
 129.073242188 -15.0048828125 119.90625 -10.5048828125 114.239257812 -1.5048828125 c 0
 111.131835938 3.4306640625 109.578125 9.4189453125 109.578125 16.458984375 c 0
 109.578125 22.2568359375 110.631835938 28.76953125 112.739257812 35.9951171875 c 0
 114.072265625 41.328125 126.405273438 79.4951171875 149.73828125 150.495117188 c 0
 173.071289062 221.495117188 194.071289062 289.995117188 212.73828125 355.995117188 c 0
 221.405273438 385.995117188 234.405273438 440.995117188 251.73828125 520.995117188 c 0
 269.071289062 600.995117188 278.404296875 644.328125 279.737304688 650.995117188 c 0
 284.404296875 668.995117188 292.237304688 682.662109375 303.237304688 691.995117188 c 0
 314.237304688 701.328125 325.737304688 705.995117188 337.737304688 705.995117188 c 0
 338.774414062 706.044921875 339.793945312 706.069335938 340.794921875 706.069335938 c 0
 353.299804688 706.069335938 362.947265625 702.211914062 369.737304688 694.49609375 c 0
 374.21875 689.404296875 376.458984375 682.506835938 376.458984375 673.8046875 c 0
 376.458984375 668.265625 375.551757812 661.997070312 373.736328125 654.99609375 c 0
 369.069335938 635.663085938 362.40234375 609.330078125 353.735351562 575.997070312 c 0
 345.068359375 542.6640625 334.068359375 500.6640625 320.735351562 449.997070312 c 0
 307.40234375 399.330078125 296.069335938 355.330078125 286.736328125 317.997070312 c 0
 279.403320312 289.997070312 267.5703125 249.330078125 251.237304688 195.997070312 c 0
 234.904296875 142.6640625 223.404296875 101.331054688 216.737304688 71.998046875 c 1
 221.260742188 71.9404296875 225.853515625 71.9111328125 230.514648438 71.9111328125 c 0
 279.448242188 71.9111328125 336.022460938 75.107421875 400.237304688 81.498046875 c 0
 470.5703125 88.498046875 518.0703125 95.3310546875 542.737304688 101.998046875 c 0
 550.737304688 103.998046875 557.404296875 103.665039062 562.737304688 100.998046875 c 0
 568.0703125 98.3310546875 571.903320312 94.3310546875 574.236328125 88.998046875 c 0
 576.569335938 83.6650390625 577.90234375 77.83203125 578.235351562 71.4990234375 c 0
 578.568359375 65.166015625 578.401367188 59.3330078125 577.734375 54 c 0
 575.067382812 42 570.067382812 32.3330078125 562.734375 25 c 0
 555.401367188 17.6669921875 543.734375 12.6669921875 527.734375 10 c 0
EndSplineSet
EndChar

StartChar: M
Encoding: 77 77 56
Width: 670
GlyphClass: 2
Flags: HMW
HStem: -9.99414 21G<119.119 125.119>
VStem: 289.116 97.001 506.116 89.001
LayerCount: 2
Fore
SplineSet
179.118164062 59 m 0
 175.118164062 37.6669921875 167.119140625 20.8388671875 155.119140625 8.505859375 c 0
 143.119140625 -3.8271484375 131.119140625 -9.994140625 119.119140625 -9.994140625 c 0
 104.302734375 -9.544921875 96.89453125 1.7900390625 96.89453125 24.009765625 c 0
 96.89453125 34.783203125 98.6357421875 48.115234375 102.119140625 64.0068359375 c 0
 104.119140625 72.0068359375 108.286132812 85.673828125 114.619140625 105.006835938 c 0
 120.952148438 124.33984375 129.119140625 149.672851562 139.119140625 181.005859375 c 0
 149.119140625 212.338867188 157.786132812 239.671875 165.119140625 263.004882812 c 0
 167.119140625 271.004882812 170.786132812 283.337890625 176.119140625 300.004882812 c 0
 190.786132812 349.337890625 202.619140625 387.837890625 211.619140625 415.504882812 c 0
 220.619140625 443.171875 231.786132812 477.671875 245.119140625 519.004882812 c 0
 258.452148438 560.337890625 269.78515625 592.837890625 279.118164062 616.504882812 c 0
 288.451171875 640.171875 296.451171875 656.671875 303.118164062 666.004882812 c 0
 312.451171875 680.004882812 324.451171875 690.171875 339.118164062 696.504882812 c 0
 351.234375 701.736328125 362.213867188 704.352539062 372.0546875 704.352539062 c 0
 374.126953125 704.352539062 376.147460938 704.236328125 378.118164062 704.004882812 c 0
 406.118164062 704.004882812 420.118164062 691.671875 420.118164062 667.004882812 c 0
 420.178710938 664.336914062 420.208984375 661.510742188 420.208984375 658.526367188 c 0
 420.208984375 628.69140625 417.178710938 583.017578125 411.118164062 521.504882812 c 0
 404.451171875 453.837890625 395.784179688 376.670898438 385.1171875 290.00390625 c 0
 374.450195312 203.336914062 367.450195312 146.00390625 364.1171875 118.00390625 c 1
 392.1171875 212.00390625 418.784179688 296.670898438 444.1171875 372.00390625 c 0
 462.1171875 427.336914062 482.450195312 483.00390625 505.1171875 539.00390625 c 0
 527.784179688 595.00390625 546.1171875 637.670898438 560.1171875 667.00390625 c 0
 564.784179688 677.00390625 571.784179688 685.170898438 581.1171875 691.50390625 c 0
 590.450195312 697.836914062 599.450195312 701.669921875 608.1171875 703.002929688 c 0
 616.784179688 704.3359375 625.1171875 704.668945312 633.1171875 704.001953125 c 2
 637.1171875 704.001953125 l 1
 649.6171875 704.001953125 l 2
 652.6171875 704.001953125 656.784179688 703.168945312 662.1171875 701.501953125 c 0
 667.450195312 699.834960938 671.6171875 697.66796875 674.6171875 695.000976562 c 0
 677.6171875 692.333984375 680.1171875 688.166992188 682.1171875 682.5 c 0
 684.1171875 676.833007812 684.784179688 670 684.1171875 662 c 0
 682.1171875 642 666.784179688 544.333007812 638.1171875 369 c 0
 609.450195312 193.666992188 595.1171875 94.6669921875 595.1171875 72 c 0
 594.450195312 32 581.783203125 6.6669921875 557.116210938 -4 c 0
 551.021484375 -6.4375 545.309570312 -7.6572265625 539.98046875 -7.6572265625 c 0
 533.65234375 -7.6572265625 527.864257812 -5.9375 522.616210938 -2.5 c 0
 512.94921875 3.8330078125 507.44921875 17.666015625 506.116210938 38.9990234375 c 0
 506.017578125 40.6533203125 505.967773438 42.513671875 505.967773438 44.580078125 c 0
 505.967773438 98.29296875 539.350585938 291.099609375 606.115234375 623 c 1
 566.115234375 526.333007812 534.448242188 438.333007812 511.115234375 359 c 0
 487.782226562 283 463.44921875 210.833007812 438.116210938 142.5 c 0
 412.783203125 74.1669921875 395.450195312 32.333984375 386.1171875 17.0009765625 c 0
 375.450195312 1.0009765625 356.1171875 -6.9990234375 328.1171875 -6.9990234375 c 0
 315.450195312 -7.666015625 305.783203125 -5.666015625 299.116210938 -0.9990234375 c 0
 292.44921875 3.66796875 289.116210938 10.3349609375 289.116210938 19.001953125 c 0
 289.116210938 51.001953125 293.783203125 124.501953125 303.116210938 239.501953125 c 0
 312.44921875 354.501953125 322.116210938 464.668945312 332.116210938 570.001953125 c 1
 309.616210938 498.001953125 l 2
 301.283203125 471.334960938 294.283203125 448.16796875 288.616210938 428.500976562 c 0
 282.94921875 408.833984375 274.44921875 379.666992188 263.116210938 341 c 0
 251.783203125 302.333007812 243.116210938 273 237.116210938 253 c 0
 229.116210938 225 220.44921875 196.166992188 211.116210938 166.5 c 0
 201.783203125 136.833007812 194.450195312 113.5 189.1171875 96.5 c 0
 183.784179688 79.5 180.451171875 67 179.118164062 59 c 0
EndSplineSet
EndChar

StartChar: N
Encoding: 78 78 57
Width: 670
GlyphClass: 2
Flags: W
HStem: -12.0664 21G<137.325 143.606>
LayerCount: 2
Fore
SplineSet
490.356445312 -14 m 0
 478.356445312 -14.6669921875 469.182617188 -12.5029296875 462.849609375 -7.5029296875 c 0
 456.516601562 -2.5029296875 452.68359375 4.330078125 451.350585938 12.9970703125 c 0
 448.68359375 26.330078125 440.516601562 55.6630859375 426.849609375 100.99609375 c 0
 413.182617188 146.329101562 399.182617188 193.49609375 384.849609375 242.49609375 c 0
 370.516601562 291.49609375 356.18359375 346.329101562 341.850585938 406.99609375 c 0
 327.517578125 467.663085938 318.350585938 519.330078125 314.350585938 561.997070312 c 1
 301.017578125 489.330078125 286.684570312 421.663085938 271.3515625 358.99609375 c 0
 256.018554688 296.329101562 239.8515625 232.49609375 222.8515625 167.49609375 c 0
 205.8515625 102.49609375 196.018554688 62.99609375 193.3515625 48.99609375 c 0
 189.3515625 27.6630859375 181.8515625 11.99609375 170.8515625 1.99609375 c 0
 160.5390625 -7.37890625 149.495117188 -12.06640625 137.717773438 -12.06640625 c 0
 136.932617188 -12.06640625 136.143554688 -12.0458984375 135.3515625 -12.00390625 c 0
 122.684570312 -12.00390625 115.3515625 -6.3369140625 113.3515625 4.99609375 c 0
 112.751953125 8.396484375 112.451171875 12.2763671875 112.451171875 16.63671875 c 0
 112.451171875 26.8095703125 114.084960938 39.5966796875 117.3515625 54.99609375 c 0
 120.018554688 68.3291015625 132.685546875 119.99609375 155.352539062 209.99609375 c 0
 178.01953125 299.99609375 197.686523438 378.663085938 214.353515625 445.99609375 c 0
 231.020507812 513.329101562 245.353515625 577.99609375 257.353515625 639.99609375 c 0
 259.353515625 653.329101562 263.353515625 664.662109375 269.353515625 673.995117188 c 0
 275.353515625 683.328125 282.353515625 690.161132812 290.353515625 694.494140625 c 0
 298.353515625 698.827148438 306.353515625 701.827148438 314.353515625 703.494140625 c 0
 322.353515625 705.161132812 330.020507812 705.328125 337.353515625 703.995117188 c 0
 364.686523438 703.995117188 379.01953125 691.662109375 380.352539062 666.995117188 c 0
 383.01953125 622.995117188 400.186523438 541.995117188 431.853515625 423.995117188 c 0
 463.520507812 305.995117188 491.353515625 210.662109375 515.353515625 137.995117188 c 1
 532.020507812 200.662109375 553.6875 291.829101562 580.354492188 411.49609375 c 0
 607.021484375 531.163085938 622.354492188 609.99609375 626.354492188 647.99609375 c 0
 628.354492188 663.99609375 634.521484375 677.49609375 644.854492188 688.49609375 c 0
 655.1875 699.49609375 666.354492188 704.99609375 678.354492188 704.99609375 c 0
 685.021484375 704.99609375 690.688476562 704.163085938 695.35546875 702.49609375 c 0
 700.022460938 700.829101562 703.522460938 698.829101562 705.85546875 696.49609375 c 0
 708.188476562 694.163085938 709.688476562 690.330078125 710.35546875 684.997070312 c 0
 711.022460938 679.6640625 711.189453125 674.831054688 710.856445312 670.498046875 c 0
 710.5234375 666.165039062 710.0234375 659.33203125 709.356445312 649.999023438 c 0
 708.689453125 639.33203125 697.356445312 585.83203125 675.356445312 489.499023438 c 0
 653.356445312 393.166015625 629.189453125 293.333007812 602.856445312 190 c 0
 576.5234375 86.6669921875 558.0234375 27 547.356445312 11 c 0
 537.356445312 -5.6669921875 518.356445312 -14 490.356445312 -14 c 0
EndSplineSet
EndChar

StartChar: O
Encoding: 79 79 58
Width: 670
GlyphClass: 2
Flags: HMW
HStem: -24 83.998<308.035 309.039> 636.997 81.001<497.037 508.703>
LayerCount: 2
Fore
SplineSet
296.372070312 -24 m 0
 258.372070312 -23.3330078125 227.03515625 -10.8349609375 202.368164062 13.498046875 c 0
 177.701171875 37.8310546875 161.868164062 70.498046875 154.868164062 111.498046875 c 0
 152.2890625 126.603515625 151 142.228515625 151 158.375 c 0
 151 186.053710938 154.7890625 215.260742188 162.368164062 245.998046875 c 0
 163.03515625 249.331054688 164.368164062 254.998046875 166.368164062 262.998046875 c 0
 173.03515625 292.998046875 178.702148438 316.998046875 183.369140625 334.998046875 c 0
 188.036132812 352.998046875 194.869140625 376.998046875 203.869140625 406.998046875 c 0
 212.869140625 436.998046875 223.036132812 465.498046875 234.369140625 492.498046875 c 0
 245.702148438 519.498046875 258.369140625 544.998046875 272.369140625 568.998046875 c 0
 298.369140625 612.331054688 334.202148438 647.998046875 379.869140625 675.998046875 c 0
 425.536132812 703.998046875 472.703125 717.998046875 521.370117188 717.998046875 c 0
 546.037109375 717.998046875 568.704101562 712.831054688 589.37109375 702.498046875 c 0
 610.038085938 692.165039062 627.205078125 677.33203125 640.872070312 657.999023438 c 0
 654.5390625 638.666015625 663.872070312 613.999023438 668.872070312 583.999023438 c 0
 671.291015625 569.483398438 672.500976562 554.108398438 672.500976562 537.875976562 c 0
 672.500976562 520.560546875 671.125 502.267578125 668.372070312 482.999023438 c 0
 663.0390625 449.666015625 656.206054688 413.999023438 647.873046875 375.999023438 c 0
 639.540039062 337.999023438 629.540039062 299.499023438 617.873046875 260.499023438 c 0
 606.206054688 221.499023438 595.0390625 190.666015625 584.372070312 167.999023438 c 0
 569.705078125 136.666015625 553.705078125 109.666015625 536.372070312 86.9990234375 c 0
 519.0390625 64.33203125 501.5390625 45.83203125 483.872070312 31.4990234375 c 0
 466.205078125 17.166015625 447.038085938 5.8330078125 426.37109375 -2.5 c 0
 405.704101562 -10.8330078125 385.204101562 -16.5 364.87109375 -19.5 c 0
 344.538085938 -22.5 321.705078125 -24 296.372070312 -24 c 0
315.368164062 59.998046875 m 0
 332.03515625 59.998046875 348.702148438 62.1650390625 365.369140625 66.498046875 c 0
 382.036132812 70.8310546875 398.369140625 77.8310546875 414.369140625 87.498046875 c 0
 430.369140625 97.1650390625 445.869140625 109.998046875 460.869140625 125.998046875 c 0
 475.869140625 141.998046875 488.702148438 160.665039062 499.369140625 181.998046875 c 0
 503.369140625 190.665039062 510.536132812 210.665039062 520.869140625 241.998046875 c 0
 531.202148438 273.331054688 542.03515625 310.6640625 553.368164062 353.997070312 c 0
 564.701171875 397.330078125 573.701171875 439.997070312 580.368164062 481.997070312 c 0
 582.30078125 494.750976562 583.266601562 506.903320312 583.266601562 518.453125 c 0
 583.266601562 546.748046875 577.467773438 571.4296875 565.869140625 592.497070312 c 0
 549.536132812 622.1640625 525.036132812 636.997070312 492.369140625 636.997070312 c 0
 459.036132812 636.997070312 428.036132812 623.830078125 399.369140625 597.497070312 c 0
 370.702148438 571.1640625 345.702148438 534.331054688 324.369140625 486.998046875 c 0
 295.702148438 423.665039062 273.03515625 348.665039062 256.368164062 261.998046875 c 0
 252.368164062 240.665039062 249.53515625 220.998046875 247.868164062 202.998046875 c 0
 246.826171875 191.749023438 246.305664062 180.499023438 246.305664062 169.25 c 0
 246.305664062 162.499023438 246.493164062 155.749023438 246.868164062 148.998046875 c 0
 247.868164062 130.998046875 250.701171875 115.498046875 255.368164062 102.498046875 c 0
 260.03515625 89.498046875 267.53515625 79.1650390625 277.868164062 71.498046875 c 0
 288.201171875 63.8310546875 300.701171875 59.998046875 315.368164062 59.998046875 c 0
EndSplineSet
EndChar

StartChar: P
Encoding: 80 80 59
Width: 670
GlyphClass: 2
Flags: HMW
HStem: 230.001 82<367.197 376.197 367.197 392.863> 630.003 80.998<463.529 514.196>
LayerCount: 2
Fore
SplineSet
228.198242188 24 m 0
 225.53125 10 217.694335938 -0.830078125 204.694335938 -8.4970703125 c 0
 192.734375 -15.55078125 180.633789062 -19.0771484375 168.392578125 -19.0771484375 c 0
 167.327148438 -19.0771484375 166.26171875 -19.05078125 165.194335938 -18.9970703125 c 0
 151.861328125 -18.9970703125 142.028320312 -14.830078125 135.6953125 -6.4970703125 c 0
 132.2578125 -1.9736328125 130.538085938 3.6796875 130.538085938 10.462890625 c 0
 130.538085938 16.17578125 131.7578125 22.6884765625 134.1953125 30.0029296875 c 0
 136.862304688 40.669921875 140.862304688 56.5029296875 146.1953125 77.5029296875 c 0
 151.528320312 98.5029296875 157.528320312 124.502929688 164.1953125 155.502929688 c 0
 170.862304688 186.502929688 177.1953125 216.502929688 183.1953125 245.502929688 c 0
 189.1953125 274.502929688 196.528320312 310.002929688 205.1953125 352.002929688 c 0
 213.862304688 394.002929688 221.1953125 429.002929688 227.1953125 457.002929688 c 0
 236.528320312 500.3359375 250.1953125 557.668945312 268.1953125 629.001953125 c 1
 264.1953125 634.001953125 l 2
 261.528320312 642.001953125 261.861328125 650.168945312 265.194335938 658.501953125 c 0
 268.52734375 666.834960938 273.52734375 674.334960938 280.194335938 681.001953125 c 0
 286.861328125 687.668945312 293.528320312 691.668945312 300.1953125 693.001953125 c 0
 324.1953125 698.334960938 358.1953125 702.66796875 402.1953125 706.000976562 c 0
 446.1953125 709.333984375 476.528320312 711.000976562 493.1953125 711.000976562 c 0
 535.1953125 711.000976562 570.862304688 703.000976562 600.1953125 687.000976562 c 0
 629.528320312 671.000976562 650.1953125 646.833984375 662.1953125 614.500976562 c 0
 668.9453125 596.313476562 672.3203125 576.174804688 672.3203125 554.0859375 c 0
 672.3203125 536.904296875 670.278320312 518.54296875 666.1953125 499.000976562 c 0
 657.528320312 461.66796875 643.6953125 426.500976562 624.6953125 393.500976562 c 0
 605.6953125 360.500976562 583.6953125 332.000976562 558.6953125 308.000976562 c 0
 533.6953125 284.000976562 505.362304688 265.000976562 473.6953125 251.000976562 c 0
 442.028320312 237.000976562 409.528320312 230.000976562 376.1953125 230.000976562 c 0
 327.528320312 230.000976562 290.1953125 233.66796875 264.1953125 241.000976562 c 1
 258.862304688 213.000976562 254.029296875 186.16796875 249.696289062 160.500976562 c 0
 245.36328125 134.833984375 241.030273438 108.166992188 236.697265625 80.5 c 0
 232.364257812 52.8330078125 229.53125 34 228.198242188 24 c 0
474.194335938 630.002929688 m 0
 452.861328125 630.002929688 413.194335938 627.333984375 355.194335938 622.000976562 c 1
 351.861328125 608.66796875 345.528320312 584.000976562 336.1953125 548.000976562 c 0
 326.862304688 512.000976562 317.529296875 475.000976562 308.196289062 437.000976562 c 0
 298.86328125 399.000976562 290.196289062 362.000976562 282.196289062 326.000976562 c 1
 303.446289062 316.625976562 329.67578125 311.938476562 360.885742188 311.938476562 c 0
 362.966796875 311.938476562 365.0703125 311.958984375 367.196289062 312.000976562 c 0
 385.196289062 312.000976562 401.86328125 313.333984375 417.196289062 316.000976562 c 0
 432.529296875 318.66796875 446.196289062 322.334960938 458.196289062 327.001953125 c 0
 470.196289062 331.668945312 481.529296875 337.8359375 492.196289062 345.502929688 c 0
 502.86328125 353.169921875 511.86328125 360.836914062 519.196289062 368.50390625 c 0
 526.529296875 376.170898438 533.362304688 385.170898438 539.6953125 395.50390625 c 0
 546.028320312 405.836914062 551.1953125 415.169921875 555.1953125 423.502929688 c 0
 559.1953125 431.8359375 563.028320312 441.502929688 566.6953125 452.502929688 c 0
 570.362304688 463.502929688 573.1953125 472.502929688 575.1953125 479.502929688 c 0
 577.1953125 486.502929688 579.528320312 495.002929688 582.1953125 505.002929688 c 0
 584.595703125 516.203125 585.795898438 526.743164062 585.795898438 536.623046875 c 0
 585.795898438 543.209960938 585.26171875 549.502929688 584.1953125 555.502929688 c 0
 581.528320312 570.502929688 576.361328125 582.502929688 568.694335938 591.502929688 c 0
 561.02734375 600.502929688 551.694335938 608.002929688 540.694335938 614.002929688 c 0
 529.694335938 620.002929688 518.52734375 624.169921875 507.194335938 626.502929688 c 0
 495.861328125 628.8359375 484.861328125 630.002929688 474.194335938 630.002929688 c 0
EndSplineSet
EndChar

StartChar: Q
Encoding: 81 81 60
Width: 670
GlyphClass: 2
Flags: HMW
HStem: -23.9961 84.002<303.707 347.707> 637.005 80.9971<495.375 507.04>
LayerCount: 2
Fore
SplineSet
496.708007812 -206 m 0
 489.154296875 -210.443359375 481.749023438 -212.6640625 474.491210938 -212.6640625 c 0
 470.859375 -212.6640625 467.264648438 -212.107421875 463.70703125 -210.99609375 c 0
 453.040039062 -207.663085938 444.70703125 -199.99609375 438.70703125 -187.99609375 c 0
 432.70703125 -175.99609375 423.20703125 -153.663085938 410.20703125 -120.99609375 c 0
 397.20703125 -88.3291015625 384.70703125 -54.99609375 372.70703125 -20.99609375 c 1
 359.374023438 -23.1298828125 344.975585938 -24.1962890625 329.510742188 -24.1962890625 c 0
 325.642578125 -24.1962890625 321.708007812 -24.1298828125 317.70703125 -23.99609375 c 0
 289.70703125 -23.99609375 265.374023438 -19.3291015625 244.70703125 -9.99609375 c 0
 224.040039062 -0.6630859375 207.040039062 12.3369140625 193.70703125 29.00390625 c 0
 180.374023438 45.6708984375 170.20703125 65.50390625 163.20703125 88.50390625 c 0
 155.797851562 112.848632812 152.180664062 138.78515625 152.180664062 166.670898438 c 0
 152.180664062 191.768554688 155.022460938 218.212890625 160.70703125 246.002929688 c 0
 186.040039062 375.3359375 222.70703125 481.668945312 270.70703125 565.001953125 c 0
 296.70703125 609.001953125 332.540039062 645.501953125 378.20703125 674.501953125 c 0
 423.874023438 703.501953125 471.041015625 718.001953125 519.708007812 718.001953125 c 0
 545.041015625 718.001953125 567.708007812 713.334960938 587.708007812 704.001953125 c 0
 607.708007812 694.668945312 624.541015625 681.001953125 638.208007812 663.001953125 c 0
 651.875 645.001953125 661.208007812 620.668945312 666.208007812 590.001953125 c 0
 668.626953125 575.163085938 669.836914062 559.154296875 669.836914062 541.974609375 c 0
 669.836914062 523.6484375 668.4609375 503.991210938 665.708007812 483.000976562 c 0
 659.708007812 437.000976562 648.375 380.833984375 631.708007812 314.500976562 c 0
 615.041015625 248.16796875 599.374023438 197.66796875 584.70703125 163.000976562 c 0
 554.70703125 91.0009765625 512.374023438 39.66796875 457.70703125 9.0009765625 c 1
 465.70703125 -10.33203125 474.374023438 -29.9990234375 483.70703125 -49.9990234375 c 0
 493.040039062 -69.9990234375 502.040039062 -88.666015625 510.70703125 -105.999023438 c 0
 519.374023438 -123.33203125 525.374023438 -134.999023438 528.70703125 -140.999023438 c 0
 531.374023438 -148.33203125 531.041015625 -156.33203125 527.708007812 -164.999023438 c 0
 524.375 -173.666015625 519.708007812 -181.833007812 513.708007812 -189.5 c 0
 507.708007812 -197.166992188 502.041015625 -202.666992188 496.708007812 -206 c 0
254.70703125 262.004882812 m 0
 250.666992188 238.974609375 248.646484375 217.353515625 248.646484375 197.139648438 c 0
 248.646484375 184 249.5 171.456054688 251.20703125 159.505859375 c 0
 255.540039062 129.172851562 265.040039062 105.005859375 279.70703125 87.005859375 c 0
 294.374023438 69.005859375 313.70703125 60.005859375 337.70703125 60.005859375 c 2
 347.70703125 60.005859375 l 1
 339.70703125 90.005859375 334.374023438 113.338867188 331.70703125 130.005859375 c 0
 330.928710938 136.561523438 330.540039062 142.802734375 330.540039062 148.729492188 c 0
 330.540039062 178.358398438 340.26171875 200.1171875 359.706054688 214.005859375 c 0
 366.373046875 218.672851562 373.040039062 221.505859375 379.70703125 222.505859375 c 0
 386.374023438 223.505859375 392.20703125 221.505859375 397.20703125 216.505859375 c 0
 402.20703125 211.505859375 405.040039062 204.005859375 405.70703125 194.005859375 c 0
 409.040039062 160.672851562 417.040039062 124.33984375 429.70703125 85.0068359375 c 1
 461.040039062 104.33984375 485.70703125 135.33984375 503.70703125 178.006835938 c 0
 507.70703125 188.006835938 514.20703125 208.173828125 523.20703125 238.506835938 c 0
 532.20703125 268.83984375 542.374023438 306.672851562 553.70703125 352.005859375 c 0
 565.040039062 397.338867188 573.373046875 440.671875 578.706054688 482.004882812 c 0
 580.342773438 494.9140625 581.16015625 507.103515625 581.16015625 518.575195312 c 0
 581.16015625 549.1640625 575.342773438 574.641601562 563.706054688 595.004882812 c 0
 547.706054688 623.004882812 523.373046875 637.004882812 490.706054688 637.004882812 c 0
 456.706054688 637.004882812 425.206054688 624.004882812 396.206054688 598.004882812 c 0
 367.206054688 572.004882812 342.373046875 535.671875 321.706054688 489.004882812 c 0
 290.373046875 419.671875 268.040039062 344.004882812 254.70703125 262.004882812 c 0
EndSplineSet
EndChar

StartChar: R
Encoding: 82 82 61
Width: 670
GlyphClass: 2
Flags: W
HStem: -19.0801 21G<151.931 158.878 506.138 518.583> 694.06 20G<308.189 315.091>
VStem: 570.035 88.5586<409.03 519.094>
LayerCount: 2
Fore
SplineSet
212.137695312 24 m 0
 209.470703125 10 201.805664062 -0.8330078125 189.138671875 -8.5 c 0
 177.485351562 -15.5537109375 165.268554688 -19.080078125 152.487304688 -19.080078125 c 0
 151.375 -19.080078125 150.258789062 -19.0537109375 149.138671875 -19 c 0
 136.471679688 -19 126.8046875 -14.8330078125 120.137695312 -6.5 c 0
 116.43359375 -1.8701171875 114.58203125 3.9423828125 114.58203125 10.939453125 c 0
 114.58203125 16.5361328125 115.766601562 22.8896484375 118.13671875 30 c 0
 128.803710938 64.6669921875 136.970703125 94.1669921875 142.637695312 118.5 c 0
 148.3046875 142.833007812 161.471679688 202.666015625 182.138671875 297.999023438 c 0
 184.805664062 310.666015625 191.805664062 337.833007812 203.138671875 379.5 c 0
 214.471679688 421.166992188 223.471679688 460.666992188 230.138671875 498 c 0
 234.805664062 520.666992188 240.305664062 551.333984375 246.638671875 590.000976562 c 0
 252.971679688 628.66796875 257.138671875 652.000976562 259.138671875 660.000976562 c 2
 260.138671875 666.000976562 l 2
 262.138671875 678.66796875 268.805664062 689.66796875 280.138671875 699.000976562 c 0
 290.177734375 709.040039062 301.693359375 714.059570312 314.684570312 714.059570312 c 0
 315.497070312 714.059570312 316.314453125 714.040039062 317.138671875 714.000976562 c 0
 329.138671875 714.000976562 338.471679688 711.333984375 345.138671875 706.000976562 c 1
 395.805664062 703.333984375 440.805664062 696.166992188 480.138671875 684.5 c 0
 519.471679688 672.833007812 551.138671875 658.333007812 575.138671875 641 c 0
 599.138671875 623.666992188 618.138671875 604 632.138671875 582 c 0
 646.138671875 560 654.471679688 538 657.138671875 516 c 0
 658.108398438 508 658.59375 499.955078125 658.59375 491.8671875 c 0
 658.59375 477.712890625 657.108398438 463.423828125 654.138671875 449 c 0
 650.138671875 432.333007812 644.471679688 417 637.138671875 403 c 0
 629.805664062 389 621.305664062 376.833007812 611.638671875 366.5 c 0
 601.971679688 356.166992188 590.3046875 347 576.637695312 339 c 0
 562.970703125 331 548.803710938 324.166992188 534.13671875 318.5 c 0
 519.469726562 312.833007812 502.469726562 307.833007812 483.13671875 303.5 c 0
 463.803710938 299.166992188 444.970703125 295.833984375 426.637695312 293.500976562 c 0
 408.3046875 291.16796875 387.471679688 289.000976562 364.138671875 287.000976562 c 1
 418.805664062 252.333984375 464.638671875 211.833984375 501.638671875 165.500976562 c 0
 502.5078125 164.413085938 568.244140625 81.5439453125 568.244140625 43.2431640625 c 0
 568.244140625 32.6953125 565.708984375 22.9482421875 560.638671875 14.0009765625 c 0
 554.971679688 4.0009765625 547.471679688 -3.9990234375 538.138671875 -9.9990234375 c 0
 530.31640625 -15.3759765625 522.494140625 -18.0654296875 514.671875 -18.0654296875 c 0
 506.137695312 -16.998046875 l 0
 495.470703125 -14.3310546875 487.137695312 -6.3310546875 481.137695312 7.001953125 c 0
 474.470703125 21.001953125 464.303710938 38.1689453125 450.63671875 58.501953125 c 0
 436.969726562 78.8349609375 420.13671875 101.501953125 400.13671875 126.501953125 c 0
 380.13671875 151.501953125 356.469726562 176.168945312 329.13671875 200.501953125 c 0
 301.803710938 224.834960938 274.470703125 244.334960938 247.137695312 259.001953125 c 1
 239.8046875 220.334960938 232.637695312 174.66796875 225.637695312 122.000976562 c 0
 218.637695312 69.333984375 214.137695312 36.6669921875 212.137695312 24 c 0
314.139648438 498 m 0
 312.806640625 490.666992188 310.310546875 480.833984375 306.643554688 468.500976562 c 0
 302.9765625 456.16796875 299.643554688 445.16796875 296.643554688 435.500976562 c 0
 293.643554688 425.833984375 289.4765625 412.500976562 284.143554688 395.500976562 c 0
 278.810546875 378.500976562 274.810546875 366.333984375 272.143554688 359.000976562 c 1
 279.381835938 357.4765625 288.795898438 356.71484375 300.387695312 356.71484375 c 0
 309.081054688 356.71484375 319 357.143554688 330.143554688 358.000976562 c 0
 355.4765625 359.333984375 377.309570312 360.833984375 395.642578125 362.500976562 c 0
 413.975585938 364.16796875 432.142578125 366.500976562 450.142578125 369.500976562 c 0
 468.142578125 372.500976562 483.309570312 376.000976562 495.642578125 380.000976562 c 0
 507.975585938 384.000976562 519.30859375 389.000976562 529.641601562 395.000976562 c 0
 539.974609375 401.000976562 548.307617188 408.16796875 554.640625 416.500976562 c 0
 560.973632812 424.833984375 565.473632812 434.333984375 568.140625 445.000976562 c 0
 569.404296875 450.895507812 570.03515625 456.724609375 570.03515625 462.486328125 c 0
 570.03515625 474.969726562 567.0703125 487.141601562 561.140625 499.000976562 c 0
 552.473632812 516.333984375 539.806640625 531.666992188 523.139648438 545 c 0
 506.47265625 558.333007812 486.97265625 570.5 464.639648438 581.5 c 0
 442.306640625 592.5 420.639648438 601.333007812 399.639648438 608 c 0
 378.639648438 614.666992188 358.47265625 620 339.139648438 624 c 1
 329.139648438 575.333007812 320.806640625 533.333007812 314.139648438 498 c 0
EndSplineSet
EndChar

